<?xml version="1.0" encoding="UTF-8" standalone="no"?>
<!-- Created with Inkscape (http://www.inkscape.org/) -->

<svg
   xmlns:dc="http://purl.org/dc/elements/1.1/"
   xmlns:cc="http://creativecommons.org/ns#"
   xmlns:rdf="http://www.w3.org/1999/02/22-rdf-syntax-ns#"
   xmlns:svg="http://www.w3.org/2000/svg"
   xmlns="http://www.w3.org/2000/svg"
   xmlns:sodipodi="http://sodipodi.sourceforge.net/DTD/sodipodi-0.dtd"
   xmlns:inkscape="http://www.inkscape.org/namespaces/inkscape"
   width="512"
   height="512"
   viewBox="0 0 135.46666 135.46667"
   version="1.1"
   id="svg8"
   inkscape:version="0.92.4 (5da689c313, 2019-01-14)"
   sodipodi:docname="U+51FA.svg">
  <defs
     id="defs2" />
  <sodipodi:namedview
     id="base"
     pagecolor="#ffffff"
     bordercolor="#666666"
     borderopacity="1.0"
     inkscape:pageopacity="0.0"
     inkscape:pageshadow="2"
     inkscape:zoom="1.215"
     inkscape:cx="561.29655"
     inkscape:cy="246.62325"
     inkscape:document-units="px"
     inkscape:current-layer="layer2"
     showgrid="false"
     inkscape:window-width="1920"
     inkscape:window-height="1017"
     inkscape:window-x="-8"
     inkscape:window-y="-8"
     inkscape:window-maximized="1"
     units="px" />
  <metadata
     id="metadata5">
    <rdf:RDF>
      <cc:Work
         rdf:about="">
        <dc:format>image/svg+xml</dc:format>
        <dc:type
           rdf:resource="http://purl.org/dc/dcmitype/StillImage" />
        <dc:title></dc:title>
      </cc:Work>
    </rdf:RDF>
  </metadata>
  <g
     inkscape:groupmode="layer"
     id="layer2"
     inkscape:label="圖層 2"
     transform="translate(0,-161.53331)">
    <path
       style="fill:#000000;fill-opacity:1;stroke:none;stroke-width:0.26458332px;stroke-linecap:butt;stroke-linejoin:miter;stroke-opacity:1"
       d="m 35.113118,210.96963 c 0,0 -0.601356,-2.53906 2.806332,-0.86862 3.407685,1.67043 6.34765,2.87314 7.14946,4.07586 0.801806,1.20271 2.138156,3.0736 1.804069,4.34313 -0.334087,1.26953 -3.407688,6.74855 -3.34087,7.01582 0.06682,0.26727 -1.269529,1.9377 -1.804069,4.07586 -0.534538,2.13816 -2.138156,3.87541 -0.334087,2.73951 1.804069,-1.13589 10.891234,-4.27631 17.37252,-5.94674 6.481282,-1.67044 26.326042,-12.62849 28.597842,-13.02939 2.27179,-0.40091 9.6217,0.0668 11.49259,0.53454 1.870875,0.46772 3.340855,0.66817 4.409935,1.80407 1.06908,1.13589 2.60588,1.73725 -0.4009,2.27179 -3.006775,0.53454 -7.283095,1.46998 -10.289875,1.60361 -3.00678,0.13364 -1.9377,-3.67495 -14.16528,0.66818 -12.22758,4.34313 -30.335095,10.7576 -34.010049,13.69756 -3.674957,2.93997 -6.280835,5.87993 -6.882191,6.01356 -0.601358,0.13364 -3.207234,1.40317 -3.34087,-2.07133 -0.133635,-3.47451 -0.467722,-4.14268 1.069078,-4.6104 1.536801,-0.46773 5.61266,-1.73725 6.347651,-6.88219 0.734991,-5.14494 0.53454,-8.21854 -0.334087,-8.8199 -0.868624,-0.60136 -6.815373,-0.80181 -6.147199,-6.61492 z"
       id="path26"
       inkscape:connector-curvature="0" />
    <path
       style="fill:#000000;fill-opacity:1;stroke:none;stroke-width:0.26458332px;stroke-linecap:butt;stroke-linejoin:miter;stroke-opacity:1"
       d="m 92.442435,198.27433 c 0,0 1.80407,0.26727 6.08038,3.94223 4.276305,3.67495 6.481285,2.13815 6.748545,6.81537 0.26727,4.67722 0.53455,3.8754 -0.0668,8.35217 -0.60135,4.47676 -0.93545,4.67722 -1.33635,5.41221 -0.4009,0.73499 -2.13816,0.26727 -2.80633,-1.33635 -0.66818,-1.60362 -3.407685,-8.28536 -3.140415,-10.28988 0.26727,-2.00452 0.93544,-4.6104 -0.13363,-6.28083 -0.86863,-0.60136 -6.48129,-6.41447 -5.34539,-6.61492 z"
       id="path28"
       inkscape:connector-curvature="0"
       sodipodi:nodetypes="ccccscscc" />
    <path
       style="fill:#000000;fill-opacity:1;stroke:none;stroke-width:0.26458332px;stroke-linecap:butt;stroke-linejoin:miter;stroke-opacity:1"
       d="m 65.220335,171.45902 c 0,0 2.17764,-3.0487 3.37534,-2.83094 1.19771,0.21777 3.37535,2.39541 4.57305,2.72205 1.1977,0.32665 2.83093,0.43553 2.61317,1.19771 -0.21777,0.76217 0.10888,2.50428 -1.52435,3.5931 -1.63323,1.08883 -3.37534,1.95988 -3.37534,4.02864 0,2.06876 -0.97994,24.06293 -0.97994,31.14026 0,7.07733 -0.54441,37.67318 -0.54441,39.08865 0,1.41546 -0.21777,8.05727 -0.65329,9.90826 -0.43553,1.85099 -0.97994,2.83093 -1.08882,-4.35528 -0.10889,-7.18621 -0.6533,-14.37243 -0.97994,-15.35237 -0.32665,-0.97993 -0.10889,-32.6646 -0.6533,-34.29784 -0.5444,-1.63323 -1.959872,-33.86231 -0.76217,-34.84224 z"
       id="path30"
       inkscape:connector-curvature="0" />
    <path
       style="fill:#000000;fill-opacity:1;stroke:none;stroke-width:0.26458332px;stroke-linecap:butt;stroke-linejoin:miter;stroke-opacity:1"
       d="m 37.01989,254.86265 c 0,0 -1.850995,-2.61317 -0.217765,-2.83093 1.633231,-0.21777 3.15758,0.21776 4.355282,1.41546 1.197703,1.19771 5.444101,4.46417 5.444101,6.85957 0,2.3954 -3.81087,8.27504 -3.81087,10.01715 0,1.74211 -0.326647,1.95988 1.088821,1.74211 1.415466,-0.21777 12.194786,-1.95988 15.134601,-1.85099 2.939814,0.10888 8.819445,0 18.401065,-2.72205 9.58162,-2.72205 12.0859,-2.06876 13.06584,-3.37535 0.97994,-1.30658 1.08882,-4.2464 3.91976,-2.72205 2.83093,1.52435 5.4441,3.70199 5.879615,4.79081 0.43553,1.08882 0.87106,1.30658 -0.544405,1.41547 -1.41546,0.10888 -17.96553,0.10888 -22.32081,1.30658 -4.35528,1.1977 -17.530009,2.93981 -19.816531,3.59311 -2.286523,0.65329 -12.521435,2.50428 -12.848079,2.83093 -0.326646,0.32665 -2.504286,-0.76217 -3.048698,0.54441 -0.54441,1.30658 -3.810871,6.20628 -4.790808,7.2951 -0.97994,1.08882 -1.524349,0 -1.850996,-2.17764 -0.326646,-2.17765 -0.435528,-7.2951 1.197703,-8.71056 1.63323,-1.41547 4.573045,-4.35529 4.573045,-6.0974 0,-1.74212 0.108883,-8.27503 -0.871057,-8.71056 -0.979937,-0.43553 -2.939814,-2.61317 -2.939814,-2.61317 z"
       id="path32"
       inkscape:connector-curvature="0"
       sodipodi:nodetypes="cccssscsccccsccccccscc" />
    <path
       style="fill:#000000;fill-opacity:1;stroke:none;stroke-width:0.26458332px;stroke-linecap:butt;stroke-linejoin:miter;stroke-opacity:1"
       d="m 93.638545,247.45867 c 0,0 -0.97994,-1.74211 1.1977,-1.52435 2.17764,0.21777 7.403975,2.50429 8.928325,4.02864 1.52435,1.52435 4.79081,2.61317 5.98851,6.09739 1.1977,3.48423 1.95988,12.19479 1.95988,15.35237 0,3.15758 0,4.79081 -1.63323,6.75068 -1.63323,1.95988 -2.93982,3.91976 -4.46417,0.32665 -1.52435,-3.59311 -1.95987,-6.31516 -2.83093,-8.60168 -0.87106,-2.28652 0.21777,-10.8882 -0.54441,-12.19479 -0.76217,-1.30658 -3.157575,-5.22633 -4.899685,-6.31516 -1.74211,-1.08882 -3.70199,-1.1977 -3.70199,-3.91975 z"
       id="path34"
       inkscape:connector-curvature="0"
       sodipodi:nodetypes="ccssscssccc" />
  </g>
</svg>
