<?xml version="1.0" encoding="UTF-8" standalone="no"?>
<!-- Created with Inkscape (http://www.inkscape.org/) -->

<svg
   xmlns:dc="http://purl.org/dc/elements/1.1/"
   xmlns:cc="http://creativecommons.org/ns#"
   xmlns:rdf="http://www.w3.org/1999/02/22-rdf-syntax-ns#"
   xmlns:svg="http://www.w3.org/2000/svg"
   xmlns="http://www.w3.org/2000/svg"
   xmlns:sodipodi="http://sodipodi.sourceforge.net/DTD/sodipodi-0.dtd"
   xmlns:inkscape="http://www.inkscape.org/namespaces/inkscape"
   width="210mm"
   height="297mm"
   viewBox="0 0 210 297"
   version="1.1"
   id="svg8"
   inkscape:version="0.92.4 (5da689c313, 2019-01-14)"
   sodipodi:docname="U+528D.svg">
  <defs
     id="defs2" />
  <sodipodi:namedview
     id="base"
     pagecolor="#ffffff"
     bordercolor="#666666"
     borderopacity="1.0"
     inkscape:pageopacity="0.0"
     inkscape:pageshadow="2"
     inkscape:zoom="1.979899"
     inkscape:cx="400.21853"
     inkscape:cy="587.8401"
     inkscape:document-units="mm"
     inkscape:current-layer="layer2"
     showgrid="false"
     inkscape:window-width="1920"
     inkscape:window-height="1051"
     inkscape:window-x="-9"
     inkscape:window-y="-9"
     inkscape:window-maximized="1" />
  <metadata
     id="metadata5">
    <rdf:RDF>
      <cc:Work
         rdf:about="">
        <dc:format>image/svg+xml</dc:format>
        <dc:type
           rdf:resource="http://purl.org/dc/dcmitype/StillImage" />
        <dc:title></dc:title>
      </cc:Work>
    </rdf:RDF>
  </metadata>
  <g
     inkscape:groupmode="layer"
     id="layer2"
     inkscape:label="圖層 2">
    <path
       style="fill:#000000;stroke:none;stroke-width:0.26458332px;stroke-linecap:butt;stroke-linejoin:miter;stroke-opacity:1;fill-opacity:1"
       d="m 88.867116,93.34062 c 0,0 -0.801809,-3.34087 0,-3.073601 0.80181,0.267269 2.271792,3.741774 2.939966,4.142679 0.668173,0.400902 1.069078,0.668173 0.801809,2.672694 -0.267272,2.00452 -2.539061,4.009048 -2.138156,5.746298 0.400904,1.73725 -0.53454,2.27179 0.668173,2.40542 1.202711,0.13364 2.004521,0.26727 2.004521,1.20272 0,0.93544 -5.746295,9.48806 -7.483547,10.95804 -1.737251,1.46999 -6.414469,3.60814 -9.087163,6.54811 -2.672697,2.93996 -6.147198,7.88445 -7.750817,8.55262 -1.603615,0.66818 -4.677216,-0.26727 -8.819893,3.20724 -4.142679,3.4745 -4.276312,4.14268 -5.746295,3.87541 -1.469982,-0.26727 -10.156242,-5.61266 -10.557147,-6.54811 -0.400905,-0.93544 -1.202714,-2.00452 -0.400905,-2.00452 0.80181,0 8.285356,1.60362 10.289879,1.46998 2.00452,-0.13363 7.082642,0.53454 14.833457,-4.00904 7.750818,-4.54358 17.105249,-14.03165 17.639789,-14.96709 0.534538,-0.93545 4.409948,-4.94449 4.142676,-6.28084 -0.267268,-1.33634 -1.336347,-2.00452 -2.138156,-2.80632 -0.801806,-0.80181 -3.073598,-1.60362 -1.202711,-4.14268 1.870887,-2.539065 2.405425,-5.879932 2.00452,-6.94901 z"
       id="path24"
       inkscape:connector-curvature="0"
       sodipodi:nodetypes="csccscsccccscscscccsc" />
    <path
       style="fill:#000000;stroke:none;stroke-width:0.26458332px;stroke-linecap:butt;stroke-linejoin:miter;stroke-opacity:1;fill-opacity:1"
       d="m 99.424264,97.082392 c 0,0 2.939966,0.400904 5.479026,1.069078 2.53906,0.668173 5.61266,1.336347 6.68174,2.13816 1.06908,0.80181 5.07812,1.87088 5.47902,4.40994 0.4009,2.53906 1.20271,6.01357 0,6.01357 -1.20271,0 -5.21175,-2.00452 -6.1472,-2.93997 -0.93544,-0.93544 -9.2208,-6.01356 -10.0226,-7.08264 -0.80181,-1.069077 -2.6727,-3.474502 -1.469986,-3.608138 z"
       id="path26"
       inkscape:connector-curvature="0" />
    <path
       style="fill:#000000;stroke:none;stroke-width:0.26458332px;stroke-linecap:butt;stroke-linejoin:miter;stroke-opacity:1;fill-opacity:1"
       d="m 86.328055,128.48656 c -0.807807,-1.0692 -2.939965,-3.34087 -1.469982,-3.74177 1.469983,-0.40091 3.741775,0.4009 4.944488,0 1.202712,-0.40091 5.479024,-2.80633 6.548102,-3.0736 1.069078,-0.26727 1.737251,-0.66818 2.539061,-0.13364 0.801809,0.53454 1.469986,2.53906 0.801809,3.34087 -0.668174,0.80181 -4.677217,2.40543 -5.479026,3.20724 -0.801809,0.8018 -1.870888,2.00452 -2.405425,2.27179 -0.534541,0.26727 -1.336347,1.33635 -2.672697,0.26727 -1.336347,-1.06908 -2.097405,-1.19983 -2.80633,-2.13816 z"
       id="path30"
       inkscape:connector-curvature="0"
       sodipodi:nodetypes="accsscccca" />
    <path
       style="fill:#000000;stroke:none;stroke-width:0.26458332px;stroke-linecap:butt;stroke-linejoin:miter;stroke-opacity:1;fill-opacity:1"
       d="m 66.416477,145.99272 c 0,0 -0.400904,-2.40543 0.668174,-1.73726 1.069078,0.66818 4.009043,4.00905 5.078121,4.40995 1.069078,0.4009 3.073599,0.53454 3.340868,2.00452 0.267271,1.46999 0.668176,7.75082 0.668176,9.08716 0,1.33635 -3.34087,7.88446 -4.543583,7.34992 -1.202714,-0.53454 -1.202712,-4.40995 -1.069079,-5.87993 0.133636,-1.46999 -0.133633,-8.28536 -1.069078,-9.75534 -0.935442,-1.46998 -3.608139,-4.00904 -3.073599,-5.47902 z"
       id="path32"
       inkscape:connector-curvature="0"
       sodipodi:nodetypes="ccssssccc" />
    <path
       style="fill:#000000;stroke:none;stroke-width:0.26458332px;stroke-linecap:butt;stroke-linejoin:miter;stroke-opacity:1;fill-opacity:1"
       d="m 75.370006,143.05275 c 0,0 -1.469982,-1.60362 0.534538,-1.73725 2.004523,-0.13364 2.939965,-1.73725 4.276312,-2.53906 1.33635,-0.80181 2.672697,-1.73725 3.875411,-1.06908 1.202711,0.66817 3.608138,2.13816 3.608138,3.0736 0,0.93544 0,4.94448 0.267269,6.01356 0.267269,1.06908 0.801809,3.47451 0.801809,4.94449 0,1.46998 0,4.14268 -1.069078,4.40995 -1.06908,0.26727 -3.34087,0.4009 -4.009043,-1.06908 -0.668173,-1.46998 -0.534542,-8.55263 -0.534542,-8.55263 0,0 -1.069078,-2.53906 -1.737251,-2.40543 -0.668173,0.13364 -4.54358,1.20272 -6.013563,-1.06907 z"
       id="path34"
       inkscape:connector-curvature="0"
       sodipodi:nodetypes="ccscsssssccc" />
    <path
       style="fill:#000000;stroke:none;stroke-width:0.26458332px;stroke-linecap:butt;stroke-linejoin:miter;stroke-opacity:1;fill-opacity:1"
       d="m 73.632755,156.95077 c 0,0 -0.53454,-2.93997 1.069078,-2.93997 1.603616,0 4.81085,0.53454 5.746295,-0.13363 0.935442,-0.66818 2.806329,-3.74178 4.142676,-3.47451 1.336347,0.26727 2.271792,0.80181 3.34087,2.00452 1.069078,1.20272 1.870887,3.20724 0.935442,3.60814 -0.935442,0.40091 -7.34991,3.20724 -9.087164,3.0736 -1.737252,-0.13363 -6.414469,0.53454 -6.147197,-2.13815 z"
       id="path40"
       inkscape:connector-curvature="0" />
    <path
       style="fill:#000000;stroke:none;stroke-width:0.26458332px;stroke-linecap:butt;stroke-linejoin:miter;stroke-opacity:1;fill-opacity:1"
       d="m 94.613411,138.6428 c 0,0 -0.801809,-2.40542 0.133636,-2.40542 0.935442,0 2.00452,1.46998 2.80633,1.73725 0.801809,0.26727 1.202713,0.66817 1.202713,2.27179 0,1.60362 0.935443,9.6217 0.935443,10.55715 0,0.93544 0.534537,2.13815 0.133635,3.74177 -0.400904,1.60362 -1.469983,3.74177 -2.004523,2.53906 -0.534538,-1.20271 -0.400904,-14.69982 -0.534537,-15.23436 -0.133636,-0.53454 -2.806332,-2.27179 -2.672697,-3.20724 z"
       id="path42"
       inkscape:connector-curvature="0"
       sodipodi:nodetypes="csssscccc" />
    <path
       style="fill:#000000;stroke:none;stroke-width:0.26458332px;stroke-linecap:butt;stroke-linejoin:miter;stroke-opacity:1;fill-opacity:1"
       d="m 102.23059,136.50465 c 0,0 0.13364,-1.20272 2.2718,-1.73725 2.13815,-0.53455 6.68173,-1.73726 6.68173,-2.2718 0,-0.53453 -0.13363,-1.87088 1.60362,-1.73725 1.73725,0.13364 4.27631,-0.13363 4.40995,1.20272 0.13363,1.33634 0.93544,4.81085 0.13363,5.87992 -0.80181,1.06908 -3.20723,1.73726 -4.40995,4.00905 -1.20271,2.27179 -3.07359,4.27631 -3.34087,6.28083 -0.26726,2.00452 0.13364,4.94449 -0.13363,5.87993 -0.26727,0.93544 -0.93544,3.34087 -1.46998,2.53906 -0.53454,-0.80181 -2.93997,-3.0736 -2.6727,-3.87541 0.26727,-0.80181 3.0736,-5.34539 3.34087,-6.94901 0.26727,-1.60361 4.14268,-9.48806 2.53906,-9.6217 -1.60362,-0.13363 -2.13815,-0.4009 -3.0736,0.40091 -0.93544,0.80181 -1.73725,1.33634 -2.80633,1.60361 -1.06908,0.26727 -3.4745,0 -3.0736,-1.60361 z"
       id="path44"
       inkscape:connector-curvature="0" />
    <path
       style="fill:#000000;stroke:none;stroke-width:0.26458332px;stroke-linecap:butt;stroke-linejoin:miter;stroke-opacity:1;fill-opacity:1"
       d="m 98.622455,153.74353 c 0,0 0.133635,-0.93544 1.737255,-1.20271 1.60361,-0.26727 5.74629,-0.53454 6.5481,-0.13364 0.80181,0.40091 2.13816,0.66818 1.46998,2.53906 -0.66817,1.87089 -0.66817,2.13816 -2.13815,2.27179 -1.46999,0.13364 -7.617185,0.26728 -7.884454,-0.4009 -0.267272,-0.66817 -0.534541,-2.40543 0.267269,-3.0736 z"
       id="path46"
       inkscape:connector-curvature="0" />
    <path
       style="fill:#000000;stroke:none;stroke-width:0.26458332px;stroke-linecap:butt;stroke-linejoin:miter;stroke-opacity:1;fill-opacity:1"
       d="m 66.550111,177.93142 c 0,0 -0.935443,-4.54358 -0.267269,-4.94448 0.668173,-0.40091 1.469982,0.80181 2.806329,0.53454 1.33635,-0.26727 12.561668,-3.34087 13.898018,-3.34087 1.336346,0 10.69078,-1.60362 12.828936,-1.73726 2.138156,-0.13363 10.690785,-0.8018 11.492585,-0.4009 0.80181,0.4009 1.06908,3.0736 0.40091,3.74177 -0.66818,0.66818 -7.48355,1.20272 -9.48807,1.73726 -2.00452,0.53453 -7.617182,1.87088 -10.156243,2.40542 -2.53906,0.53454 -6.681737,0.93545 -8.686257,2.27179 -2.004523,1.33635 -5.078122,3.87541 -6.548104,4.40995 -1.469983,0.53454 -3.207234,0.80181 -4.543581,-0.80181 -1.33635,-1.60362 -1.737254,-3.87541 -1.737254,-3.87541 z"
       id="path48"
       inkscape:connector-curvature="0" />
    <path
       style="fill:#000000;stroke:none;stroke-width:0.26458332px;stroke-linecap:butt;stroke-linejoin:miter;stroke-opacity:1;fill-opacity:1"
       d="m 128.42301,120.86938 c 0,0 0,-3.34087 -1.06908,-4.00904 -1.06908,-0.66818 -1.87089,-2.93997 0.26727,-2.80633 2.13815,0.13363 11.09168,0.66817 12.96257,0.13363 1.87089,-0.53454 12.96257,-3.0736 14.16528,-4.00904 1.20272,-0.93545 2.53906,-4.94449 4.27632,-4.27631 1.73725,0.66817 9.35443,5.87993 9.48807,6.81537 0.13363,0.93544 0,8.81989 -0.80181,9.6217 -0.80181,0.80181 -4.94449,7.48355 -5.21176,8.8199 -0.26727,1.33634 -4.40995,16.1698 -4.81085,17.63979 -0.40091,1.46998 -1.87089,9.88897 -2.27179,11.89349 -0.4009,2.00452 -4.81086,12.2944 -5.47903,15.90253 -0.66818,3.60814 -1.33634,6.01357 -2.40542,10.55715 -2.00452,3.47451 -5.61266,4.67722 -6.28084,1.60362 -0.66817,-3.0736 0.13364,-9.2208 -0.93544,-10.28988 -1.06908,-1.06908 -1.87089,-7.08264 -1.33635,-7.34991 0.53454,-0.26727 5.21175,4.14267 6.94901,2.93996 1.73725,-1.20271 6.5481,-20.31248 6.94901,-25.92514 1.06907,-5.74629 3.4745,-14.69982 4.27631,-17.23888 0.80181,-2.53906 2.93996,-8.28536 2.67269,-10.02261 -0.26726,-1.73725 1.33635,-4.54358 -1.20271,-4.27631 -2.53906,0.26727 -12.42803,1.87088 -15.23436,3.34087 -2.80633,1.46998 -7.75082,5.47902 -8.95353,5.34539 -1.20271,-0.13364 -6.01356,-0.80181 -6.01356,-4.40995 z"
       id="path52"
       inkscape:connector-curvature="0"
       sodipodi:nodetypes="cccscccsccscccssccscsccc" />
    <path
       style="fill:#000000;stroke:none;stroke-width:0.26458332px;stroke-linecap:butt;stroke-linejoin:miter;stroke-opacity:1;fill-opacity:1"
       d="m 139.9156,127.01658 c 0,0 2.27179,-1.06908 2.53906,0 0.26727,1.06908 1.87088,2.93996 1.06908,5.87993 -0.80181,2.93996 -2.80633,12.6953 -5.34539,17.10525 -2.53907,4.40994 -11.8935,20.17885 -12.69531,20.98066 -0.80181,0.8018 -5.21175,5.87993 -6.01356,6.41446 -0.80181,0.53454 -3.87541,2.53906 -3.87541,2.53906 0,0 4.40995,-5.47902 7.75082,-10.69078 3.34087,-5.21175 11.75985,-17.90705 13.36347,-21.11429 1.60362,-3.20723 3.74177,-13.49711 3.34087,-14.69982 -0.4009,-1.20272 -1.06908,-5.87993 -0.13363,-6.41447 z"
       id="path54"
       inkscape:connector-curvature="0" />
    <path
       style="fill:#000000;stroke:none;stroke-width:0.26458332px;stroke-linecap:butt;stroke-linejoin:miter;stroke-opacity:1;fill-opacity:1"
       d="m 119.46948,144.25546 c 0,0 -0.40091,-1.73725 0.93544,-1.87088 1.33635,-0.13364 18.4416,-0.40091 18.97614,0.4009 0.53454,0.80181 5.34539,6.5481 5.34539,9.48807 0,2.93996 0,2.53906 -2.00453,2.27179 -2.00452,-0.26727 -7.48354,-2.00452 -10.55714,-3.20723 -3.0736,-1.20272 -12.56167,-4.81086 -12.6953,-7.08265 z"
       id="path56"
       inkscape:connector-curvature="0"
       sodipodi:nodetypes="ccssscc" />
  </g>
</svg>
