<?xml version="1.0" encoding="UTF-8" standalone="no"?>
<!-- Created with Inkscape (http://www.inkscape.org/) -->

<svg
   xmlns:dc="http://purl.org/dc/elements/1.1/"
   xmlns:cc="http://creativecommons.org/ns#"
   xmlns:rdf="http://www.w3.org/1999/02/22-rdf-syntax-ns#"
   xmlns:svg="http://www.w3.org/2000/svg"
   xmlns="http://www.w3.org/2000/svg"
   xmlns:sodipodi="http://sodipodi.sourceforge.net/DTD/sodipodi-0.dtd"
   xmlns:inkscape="http://www.inkscape.org/namespaces/inkscape"
   width="210mm"
   height="297mm"
   viewBox="0 0 210 297"
   version="1.1"
   id="svg8"
   inkscape:version="0.92.4 (5da689c313, 2019-01-14)"
   sodipodi:docname="U+5CA1.svg">
  <defs
     id="defs2" />
  <sodipodi:namedview
     id="base"
     pagecolor="#ffffff"
     bordercolor="#666666"
     borderopacity="1.0"
     inkscape:pageopacity="0.0"
     inkscape:pageshadow="2"
     inkscape:zoom="0.98994949"
     inkscape:cx="355.72393"
     inkscape:cy="606.43821"
     inkscape:document-units="mm"
     inkscape:current-layer="layer2"
     showgrid="false"
     inkscape:window-width="1920"
     inkscape:window-height="1051"
     inkscape:window-x="-9"
     inkscape:window-y="-9"
     inkscape:window-maximized="1" />
  <metadata
     id="metadata5">
    <rdf:RDF>
      <cc:Work
         rdf:about="">
        <dc:format>image/svg+xml</dc:format>
        <dc:type
           rdf:resource="http://purl.org/dc/dcmitype/StillImage" />
        <dc:title></dc:title>
      </cc:Work>
    </rdf:RDF>
  </metadata>
  <g
     inkscape:groupmode="layer"
     id="layer2"
     inkscape:label="圖層 2"
     style="display:inline">
    <path
       style="fill:#000000;stroke:none;stroke-width:0.26458332px;stroke-linecap:butt;stroke-linejoin:miter;stroke-opacity:1;fill-opacity:1"
       d="m 56.393868,105.76865 c 0,0 -0.400902,-4.67721 1.336349,-4.94448 1.737252,-0.26728 5.345391,0.26727 6.681737,1.33634 1.33635,1.06908 3.34087,0 3.608139,1.87089 0.267272,1.87089 0.133636,6.94901 0,7.61718 -0.133633,0.66818 -0.935442,1.20271 -0.935442,1.20271 0,0 4.276312,-1.06907 5.479026,-1.46998 1.202711,-0.4009 4.726935,-2.12493 7.216275,-2.80633 4.22386,-1.15619 8.667766,-1.28234 12.962572,-2.13815 4.217456,-0.8404 9.488066,-2.6727 12.561666,-2.93997 3.0736,-0.26727 13.63075,-1.20271 15.7689,-0.93544 2.13816,0.26727 4.40995,0 5.61267,1.20271 1.20271,1.20271 1.60361,1.87089 1.60361,1.87089 0,0 -0.4009,0.80181 -2.40542,0.93544 -2.00452,0.13363 -4.62671,-0.59841 -6.94901,-0.53454 -3.72815,0.10253 -7.88445,1.20271 -11.09169,1.46998 -3.20723,0.26727 -14.96709,2.40543 -16.837977,2.93997 -1.870888,0.53454 -13.363477,3.74177 -16.30344,5.21175 -2.939965,1.46999 -4.543584,1.73725 -7.349913,4.27632 -2.80633,2.53906 -4.81085,1.33634 -5.479026,0.4009 -0.668174,-0.93544 -3.073599,-3.4745 -0.935443,-6.01356 2.138157,-2.53906 -1.069078,-6.68174 -1.069078,-6.68174 -0.133633,-0.53454 -2.138155,0 -3.474505,-1.87089 z"
       id="path22"
       inkscape:connector-curvature="0"
       sodipodi:nodetypes="cccccccaassccsasscccscc" />
    <path
       style="fill:#000000;stroke:none;stroke-width:0.26458332px;stroke-linecap:butt;stroke-linejoin:miter;stroke-opacity:1;fill-opacity:1"
       d="m 126.28485,86.525247 c 0,0 0.53454,5.34539 0.26727,8.418989 -0.26727,3.073598 -2.13816,6.147204 -2.67269,9.220794 -0.53454,3.0736 -0.26728,5.47903 0.66817,6.28084 0.93544,0.80181 1.06908,0.80181 3.4745,-1.20272 2.40543,-2.00452 9.2208,-8.15171 9.35444,-9.488062 0.13363,-1.336349 2.13815,-7.082644 1.33634,-8.418991 -0.80181,-1.336347 -4.67721,-4.543581 -6.41447,-4.81085 -1.73725,-0.267271 -5.47902,-1.069081 -6.01356,0 z"
       id="path24"
       inkscape:connector-curvature="0" />
    <path
       style="fill:#000000;stroke:none;stroke-width:0.26458332px;stroke-linecap:butt;stroke-linejoin:miter;stroke-opacity:1;fill-opacity:1"
       d="m 81.517206,87.460689 c 0,0 -1.603619,-2.405425 0,-2.806329 1.603616,-0.400905 7.483546,-1.469983 8.552624,-0.935445 1.069078,0.53454 2.405425,2.004523 4.142677,1.336349 1.737251,-0.668176 2.672696,-0.53454 3.474505,1.336347 0.801807,1.870888 2.405428,6.1472 2.138156,8.552625 -0.267271,2.405425 -3.87541,11.626224 -4.409947,12.561664 -0.534541,0.93545 -3.340871,2.13816 -3.741773,0.93545 -0.400905,-1.20272 0.400903,-12.561672 -0.267271,-13.229845 -0.668173,-0.668174 -1.870887,-4.409946 -4.944485,-5.61266 -3.073602,-1.202713 -5.078122,-1.603618 -4.944486,-2.138156 z"
       id="path26"
       inkscape:connector-curvature="0"
       sodipodi:nodetypes="cccccscscsc" />
    <path
       style="fill:#000000;stroke:none;stroke-width:0.26458332px;stroke-linecap:butt;stroke-linejoin:miter;stroke-opacity:1;fill-opacity:1"
       d="m 52.117558,140.38005 c 0,0 -1.069078,-2.27179 1.069078,-2.13815 2.138156,0.13363 6.949006,2.13815 8.018084,2.80633 1.069078,0.66817 3.073601,0.13363 2.672697,2.80633 -0.400905,2.67269 -0.668174,15.368 -0.534541,16.97161 0.133636,1.60362 0,15.50164 -0.534537,16.43708 -0.534541,0.93544 -1.202714,0.80181 -1.336347,3.4745 -0.133636,2.6727 0.534537,4.81085 -0.534541,5.87993 -1.069078,1.06908 -1.603615,1.60362 -2.53906,0.26727 -0.935443,-1.33635 -2.539061,-5.74629 -2.138156,-7.61718 0.400904,-1.87089 0,-1.46998 1.603618,-3.60814 1.603616,-2.13815 1.870885,-4.40995 2.271789,-7.88445 0.400905,-3.4745 2.004523,-13.89801 1.202714,-17.23888 -0.801809,-3.34087 -1.336347,-5.7463 -2.539061,-6.54811 -1.202713,-0.80181 -6.147199,-2.13815 -6.681737,-3.60814 z"
       id="path28"
       inkscape:connector-curvature="0" />
    <path
       style="fill:#000000;stroke:none;stroke-width:0.26458332px;stroke-linecap:butt;stroke-linejoin:miter;stroke-opacity:1;fill-opacity:1"
       d="m 67.485555,124.74479 c 0,0 0.133634,-0.66818 1.202712,-0.13364 1.069078,0.53454 0.935445,2.13816 2.939965,2.13816 2.004523,0 8.819896,-0.53454 9.755338,-0.80181 0.935442,-0.26727 11.091685,-3.4745 12.695304,-3.60814 1.603615,-0.13363 11.091686,-1.60362 12.428036,-1.60362 1.33634,0 7.34991,0.26727 8.55262,0 1.20271,-0.26726 6.81537,-1.73725 7.75082,-2.13815 0.93544,-0.40091 3.20723,-1.46998 5.74629,-1.06908 2.53906,0.40091 5.34539,-0.26727 7.08264,2.27179 1.73726,2.53906 2.40543,3.0736 3.74178,3.87541 1.33635,0.80181 2.13815,1.46998 1.60361,3.74177 -0.53454,2.27179 -0.53454,9.75534 -0.53454,11.8935 0,2.13815 -0.53453,17.37252 -0.4009,22.18337 0.13364,4.81085 -1.06908,12.82894 0,15.23436 1.06908,2.40543 2.13816,1.33635 2.00452,6.01356 -0.13363,4.67722 1.46999,5.47903 -0.53454,8.95353 -2.00452,3.47451 -3.0736,3.47451 -4.54358,0.40091 -1.46998,-3.0736 -3.60814,-11.22532 -5.07812,-12.2944 -1.46998,-1.06908 -2.27179,-3.0736 -2.40543,-3.87541 -0.13363,-0.80181 -0.26726,-1.46998 0.93545,-0.93544 1.20271,0.53454 5.61266,2.80633 5.47902,0.66817 -0.13363,-2.13815 -0.80181,-21.9161 -1.06907,-23.25245 -0.26727,-1.33635 -1.06908,-10.28987 -1.20272,-13.0962 -0.13363,-2.80633 0.13364,-13.22985 0.13364,-13.22985 0,0 0.4009,-3.60813 -1.87089,-4.00904 -2.27179,-0.4009 -5.21175,-0.80181 -6.81537,-0.26727 -1.60362,0.53454 -7.48355,3.0736 -12.02713,2.27179 -4.54358,-0.8018 -17.105252,2.53907 -17.105252,2.53907 0,0 -13.363474,2.67269 -17.639786,4.27631 -4.276312,1.60361 -6.1472,4.27631 -8.018087,2.00452 -1.870887,-2.27179 -4.677217,-4.94449 -2.80633,-8.15172 z"
       id="path30"
       inkscape:connector-curvature="0" />
    <path
       style="fill:#000000;stroke:none;stroke-width:0.26458332px;stroke-linecap:butt;stroke-linejoin:miter;stroke-opacity:1;fill-opacity:1"
       d="m 79.779952,137.97463 c 0,0 -1.336347,-2.00452 0.133635,-2.13816 1.469983,-0.13363 3.34087,-0.80181 5.078122,-0.13363 1.737251,0.66817 5.211754,2.27179 5.87993,4.00904 0.668174,1.73725 1.603616,4.27631 1.069079,4.81085 -0.534541,0.53454 -4.409948,-1.06907 -5.879931,-2.27179 -1.469983,-1.20271 -5.34539,-3.87541 -6.280835,-4.27631 z"
       id="path32"
       inkscape:connector-curvature="0" />
    <path
       style="fill:#000000;stroke:none;stroke-width:0.26458332px;stroke-linecap:butt;stroke-linejoin:miter;stroke-opacity:1;fill-opacity:1"
       d="m 105.43783,123.54207 c 0,0 2.93996,2.80633 4.14267,3.74178 1.20272,0.93544 2.13816,2.00452 3.34087,3.4745 1.20272,1.46998 2.13816,3.60814 1.33635,4.27631 -0.80181,0.66818 -10.42351,8.01809 -11.35895,9.35444 -0.93545,1.33634 -2.53907,3.4745 -2.2718,1.60361 0.26727,-1.87088 1.87089,-6.41446 1.87089,-7.21627 0,-0.80181 4.54358,-6.81537 3.0736,-9.08717 -1.46998,-2.27179 -1.73725,-7.08264 -0.13363,-6.1472 z"
       id="path34"
       inkscape:connector-curvature="0"
       sodipodi:nodetypes="cccccsscc" />
    <path
       style="fill:#000000;stroke:none;stroke-width:0.26458332px;stroke-linecap:butt;stroke-linejoin:miter;stroke-opacity:1;fill-opacity:1"
       d="m 71.895501,147.72997 2.939965,2.40542 c 2.80633,0.13364 15.954009,-1.06907 15.234364,-1.06908 0,0 11.99021,-3.37807 13.63074,-4.00904 0,0 7.08265,-1.06908 9.2208,-1.60361 2.13816,-0.53455 4.14268,-1.20272 4.54358,-2.00453 0.40091,-0.8018 0.26728,-0.93544 3.07361,-0.13363 2.80633,0.80181 5.74629,1.33635 6.41446,2.00452 0.66818,0.66818 0.26728,3.20724 -0.93544,3.20724 -1.20271,0 -13.22984,-0.13364 -19.37704,1.20271 -6.1472,1.33634 -17.372519,3.74177 -18.842502,4.00904 -1.469982,0.26727 -6.815372,1.06908 -8.819893,2.00452 -2.004523,0.93544 -4.944485,3.60814 -6.548104,1.20271 -1.603618,-2.40542 -2.405424,-6.949 -0.53454,-7.21627 z"
       id="path36"
       inkscape:connector-curvature="0"
       sodipodi:nodetypes="ccssccssscsscc" />
    <path
       style="fill:#000000;stroke:none;stroke-width:0.26458332px;stroke-linecap:butt;stroke-linejoin:miter;stroke-opacity:1;fill-opacity:1"
       d="m 73.900024,160.5589 c 0,0 -1.202714,-1.20271 0.668173,-1.33634 1.870887,-0.13364 3.875408,0 4.677217,0.66817 0.801809,0.66817 2.539061,1.73725 2.939965,4.14268 0.400905,2.40542 -1.336347,7.61718 -0.267269,7.34991 1.069079,-0.26727 11.626223,-2.6727 14.031648,-2.93997 2.405428,-0.26726 8.953532,-1.33634 10.824412,-2.13815 1.87089,-0.80181 4.81086,-2.40543 6.28084,-2.27179 1.46998,0.13363 3.60814,0.80181 4.54358,1.60362 0.93544,0.8018 2.80633,1.73725 1.06908,2.00452 -1.73725,0.26727 -13.76438,1.33635 -17.50615,2.40542 -3.741779,1.06908 -10.289881,3.60814 -11.225325,3.87541 -0.935443,0.26727 -10.824417,3.60814 -11.893495,3.0736 -1.069078,-0.53454 -1.737251,-3.0736 -1.469982,-4.94449 0.267271,-1.87088 0.668176,-6.5481 -0.133634,-7.75081 -0.801809,-1.20272 -2.806329,-2.80633 -2.53906,-3.74178 z"
       id="path38"
       inkscape:connector-curvature="0" />
    <path
       style="fill:#000000;stroke:none;stroke-width:0.26458332px;stroke-linecap:butt;stroke-linejoin:miter;stroke-opacity:1;fill-opacity:1"
       d="m 114.65863,151.07083 c 0,0 -0.13364,1.46999 0.66817,2.53907 0.80181,1.06907 3.0736,3.20723 3.0736,4.14267 0,0.93545 0.53454,4.00905 0,5.61266 -0.53454,1.60362 -0.93545,3.87541 -0.80181,5.07812 0.13364,1.20272 0.40091,3.87541 2.53906,0.53455 2.13816,-3.34087 3.70682,-5.05351 4.40995,-9.08717 0.75869,-4.35241 -4.67722,-6.1472 -5.34539,-6.81537 -0.66818,-0.66818 -4.27632,-2.6727 -4.54358,-2.00453 z"
       id="path40"
       inkscape:connector-curvature="0"
       sodipodi:nodetypes="ccscssssc" />
    <path
       style="fill:#000000;stroke:none;stroke-width:0.26458332px;stroke-linecap:butt;stroke-linejoin:miter;stroke-opacity:1;fill-opacity:1"
       d="m 93.143429,154.67897 c 0.01994,-0.51909 -1.202711,-1.46998 0.801809,-1.33634 2.00452,0.13363 5.479026,1.33634 6.147202,0.93544 0.66817,-0.4009 1.60361,-0.93544 1.60361,0.93544 0,1.87089 -0.26727,12.82894 -0.93544,13.63075 -0.66817,0.80181 -5.078121,2.93996 -4.810852,-1.46998 0.267272,-4.40995 -0.133633,-7.88445 -0.801806,-8.68626 -0.668176,-0.80181 -2.061863,-2.51607 -2.004523,-4.00905 z"
       id="path42"
       inkscape:connector-curvature="0"
       sodipodi:nodetypes="accsssca" />
  </g>
</svg>
