<?xml version="1.0" encoding="UTF-8" standalone="no"?>
<!-- Created with Inkscape (http://www.inkscape.org/) -->

<svg
   xmlns:dc="http://purl.org/dc/elements/1.1/"
   xmlns:cc="http://creativecommons.org/ns#"
   xmlns:rdf="http://www.w3.org/1999/02/22-rdf-syntax-ns#"
   xmlns:svg="http://www.w3.org/2000/svg"
   xmlns="http://www.w3.org/2000/svg"
   xmlns:sodipodi="http://sodipodi.sourceforge.net/DTD/sodipodi-0.dtd"
   xmlns:inkscape="http://www.inkscape.org/namespaces/inkscape"
   width="210mm"
   height="297mm"
   viewBox="0 0 210 297"
   version="1.1"
   id="svg8"
   inkscape:version="0.92.4 (5da689c313, 2019-01-14)"
   sodipodi:docname="U+5DE8.svg">
  <defs
     id="defs2" />
  <sodipodi:namedview
     id="base"
     pagecolor="#ffffff"
     bordercolor="#666666"
     borderopacity="1.0"
     inkscape:pageopacity="0.0"
     inkscape:pageshadow="2"
     inkscape:zoom="1.4"
     inkscape:cx="380.71243"
     inkscape:cy="555.10116"
     inkscape:document-units="mm"
     inkscape:current-layer="layer2"
     showgrid="false"
     inkscape:window-width="1920"
     inkscape:window-height="1051"
     inkscape:window-x="-9"
     inkscape:window-y="-9"
     inkscape:window-maximized="1" />
  <metadata
     id="metadata5">
    <rdf:RDF>
      <cc:Work
         rdf:about="">
        <dc:format>image/svg+xml</dc:format>
        <dc:type
           rdf:resource="http://purl.org/dc/dcmitype/StillImage" />
        <dc:title></dc:title>
      </cc:Work>
    </rdf:RDF>
  </metadata>
  <g
     inkscape:groupmode="layer"
     id="layer2"
     inkscape:label="圖層 2">
    <path
       style="fill:#000000;stroke:none;stroke-width:0.26458332px;stroke-linecap:butt;stroke-linejoin:miter;stroke-opacity:1;fill-opacity:1"
       d="m 74.083332,103.47619 c 0,0 0.944941,2.45684 1.322917,3.96875 0.377976,1.5119 -0.566965,3.40179 2.078868,3.96875 2.645834,0.56696 11.528274,-0.94494 13.607143,-2.07887 2.078871,-1.13393 6.614583,-3.59077 10.20536,-4.15774 3.59077,-0.56696 10.39434,-2.83482 12.28422,-2.83482 1.88988,0 3.77977,1.70089 5.29167,-1.13393 1.51191,-2.834819 1.70089,-5.102677 -0.37798,-5.669642 -2.07886,-0.566962 -6.61458,-1.700892 -7.55952,-0.944941 -0.94494,0.755955 -4.15774,3.212799 -7.55952,4.15774 -3.40179,0.94494 -18.520835,5.480653 -19.843752,5.480653 -1.322916,0 -4.346728,0.75595 -5.669645,-0.18899 -1.322917,-0.94494 -4.724701,-2.26785 -3.779761,-0.56696 z"
       id="path22"
       inkscape:connector-curvature="0" />
    <path
       style="fill:#000000;stroke:none;stroke-width:0.26458332px;stroke-linecap:butt;stroke-linejoin:miter;stroke-opacity:1;fill-opacity:1"
       d="m 64.066964,107.06696 c 0,0 0.755952,3.2128 2.83482,6.04762 2.078871,2.83482 4.346726,5.29167 5.480656,7.9375 1.133927,2.64583 1.322917,5.10268 0.755952,9.6384 -0.566965,4.53571 -1.700893,9.07142 -1.511904,14.1741 0.188987,5.10268 -0.188989,13.79613 -0.566965,16.06399 -0.377976,2.26786 -1.511906,13.60714 -0.755951,17.19792 0.755951,3.59077 1.133927,5.10267 1.322916,8.69345 0.188987,3.59077 0.188987,13.98512 0.188987,15.11905 0,1.13392 0.188989,3.77976 -0.944941,5.66964 -1.133927,1.88988 -3.96875,3.77976 -4.724702,-1.51191 -0.755951,-5.29166 -1.322916,-14.36309 -0.566965,-15.68601 0.755955,-1.32292 0.377976,-16.63095 1.322917,-17.95387 0.944941,-1.32291 1.700893,-11.52827 1.511906,-14.55208 -0.188989,-3.02381 0,-11.71726 0,-13.60714 0,-1.88988 2.078868,-18.52084 0.944941,-19.65477 -1.13393,-1.13392 -5.858632,-7.37053 -5.858632,-10.01636 0,-2.64584 -0.755951,-8.69346 0.566965,-7.55953 z"
       id="path24"
       inkscape:connector-curvature="0" />
    <path
       style="fill:#000000;stroke:none;stroke-width:0.26458332px;stroke-linecap:butt;stroke-linejoin:miter;stroke-opacity:1;fill-opacity:1"
       d="m 79.374999,124.45387 c 0,0 1.322917,1.13393 0.755952,3.02381 -0.566963,1.88988 -0.377976,3.77976 0.377975,6.04762 0.755955,2.26785 2.456847,4.53571 3.590775,4.15773 1.13393,-0.37797 8.126489,-4.53571 9.07143,-4.53571 0.94494,0 10.583329,-3.02381 11.339289,-3.2128 0.75595,-0.18899 8.50446,-3.59077 9.63839,-3.40178 1.13393,0.18899 0.56696,-1.51191 1.88988,-0.56697 1.32292,0.94494 2.45684,1.70089 2.07887,3.77976 -0.37798,2.07887 -1.32292,6.99256 -1.70089,8.12649 -0.37798,1.13393 -2.64584,4.15774 -1.7009,5.48066 0.94494,1.32291 0.37798,4.15773 3.02381,2.64583 2.64584,-1.51191 5.10268,-5.85863 6.23661,-7.18155 1.13393,-1.32291 5.10268,-7.74851 5.29167,-8.88244 0.18898,-1.13393 2.07886,-6.80357 2.83482,-6.80357 0.75595,0 4.34672,-0.94494 4.34672,-2.26786 0,-1.32291 0.75596,-2.07886 -3.40178,-4.7247 -4.15774,-2.64583 -9.26042,-6.04762 -10.96131,-4.91369 -1.70089,1.13393 -2.64584,1.32292 -2.64584,3.2128 0,1.88988 0.18899,3.02381 -2.83482,4.7247 -3.02381,1.70089 -10.58333,3.2128 -11.71726,3.59078 -1.13393,0.37797 -8.88244,2.83482 -10.205356,3.0238 -1.322917,0.18899 -6.047618,0.75596 -7.559524,0.56697 -1.511904,-0.18899 -5.102678,-1.7009 -5.102678,-1.7009 0,0 -2.267857,-1.13392 -2.645833,-0.18898 z"
       id="path26"
       inkscape:connector-curvature="0" />
    <path
       style="fill:#000000;stroke:none;stroke-width:0.26458332px;stroke-linecap:butt;stroke-linejoin:miter;stroke-opacity:1;fill-opacity:1"
       d="m 69.547617,153.74702 c 0,0 -1.322916,-0.75595 0.944941,-1.70089 2.267858,-0.94494 10.961309,-3.2128 13.796132,-3.77976 2.83482,-0.56697 15.308035,-2.83482 16.63095,-3.02381 1.32292,-0.18899 9.63839,-1.32292 10.58333,-2.45685 0.94495,-1.13393 6.80358,-2.07887 8.12649,-2.64583 1.32292,-0.56697 4.91369,-0.56697 7.18155,0.18899 2.26786,0.75595 6.23661,3.21279 6.4256,4.15773 0.18898,0.94495 2.45684,4.53572 0.18898,4.15774 -2.26785,-0.37797 -7.37053,-2.07886 -10.39434,-1.88988 -3.02381,0.18899 -11.52828,-0.37797 -14.3631,0.56697 -2.83482,0.94494 -13.229162,3.40178 -15.308033,4.15773 -2.078868,0.75596 -11.717261,3.59078 -13.040177,4.91369 -1.322917,1.32292 -1.700893,1.32292 -1.700893,1.32292 0,0 -5.858631,1.13393 -6.803572,0.94494 -0.944941,-0.18898 -3.590774,-2.07887 -2.267858,-4.91369 z"
       id="path28"
       inkscape:connector-curvature="0" />
    <path
       style="fill:#000000;stroke:none;stroke-width:0.26458332px;stroke-linecap:butt;stroke-linejoin:miter;stroke-opacity:1;fill-opacity:1"
       d="m 96.383926,148.45535 c 0,0 6.803574,3.77977 8.126494,3.59078 1.32291,-0.18899 6.61458,2.07887 7.18154,3.2128 0.56697,1.13392 3.96875,5.10267 3.77976,6.80357 -0.18898,1.70089 -2.07886,3.40178 -3.77976,3.77976 -1.70089,0.37798 -4.91369,0.75595 -5.85863,-2.26786 -0.94494,-3.02381 -0.75595,-4.91369 -2.26786,-5.85863 -1.5119,-0.94494 -1.70089,-3.96875 -2.45684,-4.53571 -0.75595,-0.56697 -4.724704,-2.07887 -4.724704,-4.72471 z"
       id="path30"
       inkscape:connector-curvature="0" />
    <path
       style="fill:#000000;stroke:none;stroke-width:0.26458332px;stroke-linecap:butt;stroke-linejoin:miter;stroke-opacity:1;fill-opacity:1"
       d="m 74.272322,170.18899 c 0,0 -0.944941,-1.51191 0,-2.64584 0.944938,-1.13392 2.83482,0.18899 5.102677,-0.18899 2.267857,-0.37797 17.197916,-3.21279 20.599701,-3.40178 3.40179,-0.18899 20.97768,-1.32292 21.73363,-1.32292 0.75595,0 11.1503,-0.75595 11.52828,-1.88988 0.37797,-1.13393 3.21279,-2.07887 5.10267,-1.70089 1.88988,0.37797 5.66965,0.94494 7.9375,2.07887 2.26786,1.13393 5.48066,3.40178 5.85863,4.7247 0.37798,1.32292 3.02381,3.02381 0.37798,4.34673 -2.64583,1.32291 -5.10268,1.88988 -7.37053,0.75595 -2.26786,-1.13393 -10.58334,-3.2128 -13.98512,-3.02381 -3.40179,0.18899 -10.77232,-1.32292 -24.00149,0.56696 -13.229168,1.88988 -18.520834,3.2128 -19.843751,3.59078 -1.322917,0.37797 -5.480656,2.45684 -6.992559,2.45684 -1.511906,0 -8.315476,-1.32292 -6.047618,-4.34672 z"
       id="path32"
       inkscape:connector-curvature="0" />
  </g>
</svg>
