<?xml version="1.0" encoding="UTF-8" standalone="no"?>
<!-- Created with Inkscape (http://www.inkscape.org/) -->

<svg
   xmlns:dc="http://purl.org/dc/elements/1.1/"
   xmlns:cc="http://creativecommons.org/ns#"
   xmlns:rdf="http://www.w3.org/1999/02/22-rdf-syntax-ns#"
   xmlns:svg="http://www.w3.org/2000/svg"
   xmlns="http://www.w3.org/2000/svg"
   xmlns:sodipodi="http://sodipodi.sourceforge.net/DTD/sodipodi-0.dtd"
   xmlns:inkscape="http://www.inkscape.org/namespaces/inkscape"
   width="512"
   height="512"
   viewBox="0 0 135.46666 135.46667"
   version="1.1"
   id="svg8"
   inkscape:version="0.92.4 (5da689c313, 2019-01-14)"
   sodipodi:docname="U+5D11.svg">
  <defs
     id="defs2" />
  <sodipodi:namedview
     id="base"
     pagecolor="#ffffff"
     bordercolor="#666666"
     borderopacity="1.0"
     inkscape:pageopacity="0.0"
     inkscape:pageshadow="2"
     inkscape:zoom="0.98994949"
     inkscape:cx="401.81655"
     inkscape:cy="335.08072"
     inkscape:document-units="px"
     inkscape:current-layer="layer2"
     showgrid="false"
     inkscape:window-width="1920"
     inkscape:window-height="1017"
     inkscape:window-x="-8"
     inkscape:window-y="-8"
     inkscape:window-maximized="1"
     units="px" />
  <metadata
     id="metadata5">
    <rdf:RDF>
      <cc:Work
         rdf:about="">
        <dc:format>image/svg+xml</dc:format>
        <dc:type
           rdf:resource="http://purl.org/dc/dcmitype/StillImage" />
        <dc:title></dc:title>
      </cc:Work>
    </rdf:RDF>
  </metadata>
  <g
     inkscape:groupmode="layer"
     id="layer2"
     inkscape:label="圖層 2"
     style="display:inline"
     transform="translate(0,-161.53331)">
    <path
       style="fill:#000000;fill-opacity:1;stroke:none;stroke-width:0.26458332px;stroke-linecap:butt;stroke-linejoin:miter;stroke-opacity:1"
       d="m 5.345389,238.2007 c 0,0 -1.069078,1.33635 1.069078,2.27179 2.138159,0.93545 4.409948,2.13816 5.612662,2.93997 1.202711,0.8018 2.672694,1.60361 3.474503,3.74177 0.801809,2.13816 1.870887,3.20723 1.870887,4.00904 0,0.80181 0.534538,1.33635 -0.935442,2.80633 -1.469983,1.46998 -3.34087,1.46998 -3.608139,3.0736 -0.267271,1.60362 -0.668176,3.60814 0.668174,3.4745 1.336346,-0.13363 2.939965,0.26727 3.875407,-2.13815 0.935442,-2.40543 0.668175,-2.53906 2.939964,-3.4745 2.271792,-0.93544 3.608141,-1.60363 7.349913,-2.80634 3.741774,-1.20271 2.806329,-1.60361 5.211756,-2.27179 2.405425,-0.66817 8.552623,-3.74176 9.88897,-3.60813 1.33635,0.13363 5.612661,1.87088 6.41447,1.60361 0.801809,-0.26727 2.004523,-1.33635 1.469982,-1.60361 -0.534537,-0.26727 0,-2.2718 -2.138156,-2.00453 -2.138156,0.26727 -7.884451,0.53454 -9.621702,0.93545 -1.737252,0.4009 -8.418991,3.07359 -8.418991,3.07359 0,0 -4.276313,2.2718 -4.677217,2.40543 -0.400902,0.13364 -6.147197,2.13816 -6.280833,1.46999 -0.133636,-0.66818 -0.400904,-4.27632 -1.069078,-5.87993 -0.668173,-1.60362 -1.737251,-5.21176 -3.207234,-5.87994 -1.469983,-0.66817 -2.806329,-1.46998 -4.409948,-1.33634 -1.603616,0.13363 -4.677217,-2.13816 -5.479026,-0.80181 z"
       id="path28"
       inkscape:connector-curvature="0"
       sodipodi:nodetypes="cccssccccsscsscscccccccc" />
    <path
       style="fill:#000000;fill-opacity:1;stroke:none;stroke-width:0.26458332px;stroke-linecap:butt;stroke-linejoin:miter;stroke-opacity:1"
       d="m 45.43582,227.37628 c 0,0 -0.935445,0.53454 0.133633,2.27179 1.069078,1.73726 1.202714,2.53906 2.004523,2.80633 0.801807,0.26728 0.935442,0 1.069078,1.60362 0.133633,1.60362 0,5.87993 0.133633,6.94901 0.133636,1.06908 0,3.87541 -0.534538,4.81085 -0.53454,0.93545 -0.935444,2.53906 -0.53454,3.20723 0.400905,0.66818 2.405428,0.80181 3.207234,-0.93544 0.801809,-1.73725 1.870888,-7.88445 1.737254,-8.81989 -0.133635,-0.93545 1.069078,-6.41447 -0.267271,-7.61718 -1.336347,-1.20272 -3.474503,-1.73725 -4.276312,-2.80633 -0.801809,-1.06908 -1.870888,-2.40543 -2.672694,-1.46999 z"
       id="path30"
       inkscape:connector-curvature="0" />
    <path
       style="fill:#000000;fill-opacity:1;stroke:none;stroke-width:0.26458332px;stroke-linecap:butt;stroke-linejoin:miter;stroke-opacity:1"
       d="m 22.317005,209.33559 c 0.03744,-0.94315 -0.668174,-2.53906 0.935445,-2.6727 1.603615,-0.13363 5.746295,-0.53453 6.681737,0.13364 0.935442,0.66817 3.474503,2.27179 4.276312,4.14268 0.801809,1.87088 0.133636,4.67721 0,6.28083 -0.133636,1.60362 -1.069078,4.14268 -0.935442,5.87993 0.133633,1.73725 -0.267272,10.82442 -0.133636,12.02713 0.133636,1.20271 0.400905,6.5481 0.400905,7.21628 0,0.66817 0,6.01356 -0.400905,6.68173 -0.400905,0.66818 -2.138157,0.13364 -2.539059,-5.07812 -0.400905,-5.21175 -0.267272,-12.6953 -0.267272,-13.76437 0,-1.06908 -0.26727,-8.55263 0.267271,-10.42352 0.534537,-1.87089 1.603618,-6.28083 0.801809,-7.48354 -0.80181,-1.20272 -2.939966,-3.0736 -3.474506,-2.80633 -0.534538,0.26727 -1.737252,0.26727 -2.271789,1.46998 -0.534541,1.20271 -1.870888,1.60362 -2.672697,0.93544 -0.801806,-0.66817 -0.702887,-1.66458 -0.668173,-2.53906 z"
       id="path32"
       inkscape:connector-curvature="0"
       sodipodi:nodetypes="acscscsscssccccca" />
    <path
       style="fill:#000000;fill-opacity:1;stroke:none;stroke-width:0.26458332px;stroke-linecap:butt;stroke-linejoin:miter;stroke-opacity:1"
       d="m 59.333835,191.56217 c 0,0 0.133635,-1.33635 1.336346,-1.06908 1.202714,0.26727 6.013565,3.34087 6.681745,4.67722 0.66817,1.33635 2.40542,2.53905 2.53905,5.74628 0.13364,0.53454 1.46998,3.34088 1.46998,3.34088 0,0 0.13364,0.53454 0.26728,4.27631 0.13363,3.74178 0.66817,6.68174 0.26727,7.88445 -0.40091,1.20272 -0.55341,4.90377 -2.2718,4.67722 -2.33854,-0.30831 -1.29243,2.67352 -1.33634,-6.94901 -0.0211,-4.61933 -0.80181,-11.62622 -1.20272,-12.29439 -0.4009,-0.66818 -1.06907,-2.80633 -1.87088,-3.47451 -0.80181,-0.66817 -6.414472,-6.28083 -5.879931,-6.81537 z"
       id="path34"
       inkscape:connector-curvature="0"
       sodipodi:nodetypes="cscccccasccc" />
    <path
       style="fill:#000000;fill-opacity:1;stroke:none;stroke-width:0.26458332px;stroke-linecap:butt;stroke-linejoin:miter;stroke-opacity:1"
       d="m 71.093696,186.48405 c 0,0 0,-3.87541 0.4009,-4.40995 0.40091,-0.53454 0.80181,2.00452 1.73725,1.87089 0.93545,-0.13364 7.08264,-1.33635 8.28536,-1.73725 1.20271,-0.40091 8.01809,-3.34087 11.22532,-3.74178 3.20723,-0.4009 4.81085,-1.73725 6.01356,-1.87088 1.20272,-0.13364 2.138164,-0.80181 3.875414,-0.26727 1.73725,0.53454 3.74178,1.73725 5.47903,2.40542 1.73725,0.66817 3.8754,1.06908 3.4745,4.14268 -0.4009,3.0736 0.26727,5.34539 -0.26727,5.34539 -0.53454,0 -1.87089,0.40091 -2.6727,2.40542 -0.8018,2.00453 -2.27178,6.01357 -2.40542,7.34992 -0.13364,1.33634 -2.93997,9.35443 -2.93997,10.42351 0,1.06908 -1.06907,3.87541 -1.06907,5.34539 0,1.46998 0,2.40542 -0.40091,3.87541 -0.4009,1.46998 -0.93544,3.60814 -1.60361,3.0736 -0.668184,-0.53454 -3.875414,-4.67722 -3.608144,-6.54811 0.26727,-1.87088 4.142674,-11.49259 4.142674,-12.6953 0,-1.20271 2.80634,-13.09621 2.6727,-14.29892 -0.13364,-1.20271 -0.4009,-4.14268 -2.00452,-4.40995 -1.603624,-0.26726 -4.543584,0 -6.548104,0.66818 -2.00453,0.66817 -7.88446,1.46998 -9.48807,2.00452 -1.60362,0.53454 -6.1472,1.33635 -8.01809,2.67269 -1.87088,1.33635 -3.34087,2.13816 -4.67721,1.20272 -1.33635,-0.93545 -1.60362,-0.93545 -1.60362,-2.80633 z"
       id="path36"
       inkscape:connector-curvature="0" />
    <path
       style="fill:#000000;fill-opacity:1;stroke:none;stroke-width:0.26458332px;stroke-linecap:butt;stroke-linejoin:miter;stroke-opacity:1"
       d="m 76.038176,201.45114 c 0,0 2.53906,-1.46998 3.87541,-1.87089 1.33635,-0.4009 4.40995,-1.60361 5.34539,-1.87088 0.93545,-0.26727 2.27179,-2.27179 3.34087,-2.40543 1.06908,-0.13363 3.20723,-0.4009 3.20723,0.40091 0,0.8018 0.40091,1.73725 -0.93544,2.27179 -1.33634,0.53453 -2.93996,0.93544 -4.54358,2.27179 -1.60362,1.33635 -5.34539,3.87541 -6.28083,3.87541 -0.93545,0 -3.60814,0 -4.00905,-2.6727 z"
       id="path38"
       inkscape:connector-curvature="0" />
    <path
       style="fill:#000000;fill-opacity:1;stroke:none;stroke-width:0.26458332px;stroke-linecap:butt;stroke-linejoin:miter;stroke-opacity:1"
       d="m 69.490076,219.3582 c -0.29407,-1.42434 -0.26727,-1.87088 3.34087,-2.80633 3.60814,-0.93544 10.82441,-2.80633 12.16076,-3.34087 1.33635,-0.53454 4.54359,-2.00452 6.28084,-2.00452 1.73725,0 1.73725,-1.20272 2.67269,-0.93545 0.93545,0.26727 1.46998,-0.26727 2.53906,1.33635 1.06908,1.60362 0.53454,3.20724 -1.20271,3.47451 -1.73725,0.26727 -7.21628,0.13363 -8.01809,0.4009 -0.80181,0.26727 -5.07812,2.67269 -5.74629,3.20723 -0.66817,0.53454 -5.7463,2.00453 -6.68174,2.2718 -0.93544,0.26727 -4.96925,0.21821 -5.34539,-1.60362 z"
       id="path40"
       inkscape:connector-curvature="0"
       sodipodi:nodetypes="acsscsssssa" />
    <path
       style="fill:#000000;fill-opacity:1;stroke:none;stroke-width:0.26458332px;stroke-linecap:butt;stroke-linejoin:miter;stroke-opacity:1"
       d="m 66.282846,241.14066 15.36799,-6.41446 c 0,0 1.33635,-1.20272 2.6727,-0.93545 1.33635,0.26727 3.0736,-0.13363 3.20723,-0.13363 0.13364,0 1.87089,0.80181 0.13364,1.20271 -1.73725,0.40091 -12.02713,5.7463 -14.83346,7.08264 -2.80633,1.33635 -4.67722,3.60814 -5.61266,2.80633 -0.93544,-0.80181 -2.00452,-3.20723 -0.93544,-3.60814 z"
       id="path42"
       inkscape:connector-curvature="0" />
    <path
       style="fill:#000000;fill-opacity:1;stroke:none;stroke-width:0.26458332px;stroke-linecap:butt;stroke-linejoin:miter;stroke-opacity:1"
       d="m 62.006528,233.52348 c 0,0 3.608138,-0.8018 4.543588,-0.13363 0.93544,0.66817 1.33634,-1.06908 1.46998,1.60361 0.13363,2.6727 0.53454,18.17433 0.26727,19.51068 -0.26727,1.33635 -0.80181,2.00452 -0.80181,2.00452 0,0 10.42351,-6.01356 11.35895,-6.949 0.93545,-0.93545 2.6727,-2.2718 2.6727,-1.20272 0,1.06908 0.66817,1.46998 -0.80181,3.34087 -1.46998,1.87089 -12.16076,9.35443 -12.6953,10.02261 -0.53454,0.66817 -9.087166,7.34991 -9.621704,8.28535 -0.53454,0.93545 -0.668176,2.40543 -1.469982,2.40543 -0.80181,0 -2.405428,-0.80181 -2.806333,-3.74178 -0.400902,-2.93996 -0.400902,-3.34086 0.534541,-4.27631 0.935442,-0.93544 9.621698,-5.21175 10.022608,-6.28083 0.4009,-1.06908 2.6727,-6.01356 1.60362,-7.75082 -1.06908,-1.73725 -2.80633,-6.68174 -2.6727,-7.48354 0.13364,-0.80181 0.13364,-6.01357 -0.4009,-6.94901 -0.534542,-0.93545 -1.870891,-1.73725 -1.202718,-2.40543 z"
       id="path44"
       inkscape:connector-curvature="0" />
    <path
       style="fill:#000000;fill-opacity:1;stroke:none;stroke-width:0.26458332px;stroke-linecap:butt;stroke-linejoin:miter;stroke-opacity:1"
       d="m 107.04145,234.85983 c 0,0 3.62669,-4.52571 4.54358,-7.21628 0.60621,-1.7789 0.8316,-3.75693 0.53454,-5.61266 -0.24593,-1.53633 -2.00452,-3.20723 -1.87089,-4.27631 0.13364,-1.06908 1.60362,-0.13363 2.40543,0.4009 0.80181,0.53454 4.54358,4.14268 5.07812,5.34539 0.53454,1.20272 2.6727,1.73726 1.33635,3.34087 -1.33635,1.60362 -5.21176,5.87994 -12.02713,8.01809 z"
       id="path46"
       inkscape:connector-curvature="0"
       sodipodi:nodetypes="caaccccc" />
    <path
       style="fill:#000000;fill-opacity:1;stroke:none;stroke-width:0.26458332px;stroke-linecap:butt;stroke-linejoin:miter;stroke-opacity:1"
       d="m 92.341616,219.22456 c 0,0 6.68174,3.0736 8.018094,4.27631 1.33635,1.20272 1.87089,0 1.73725,3.47451 -0.13363,3.4745 -0.26014,18.628 0.13363,27.92966 0.0473,1.11618 0.13364,2.27179 0.26728,3.34087 0.13363,1.06908 1.60361,2.80633 2.40542,2.80633 0.80181,0 11.62623,-0.53454 13.63075,-0.26727 2.00452,0.26727 6.41447,0.80181 8.41899,1.73726 2.00452,0.93544 5.21175,3.34086 5.74629,4.27631 0.53454,0.93544 0.66818,2.00452 -1.46998,2.27179 -2.13816,0.26727 -10.74713,-2.89655 -16.16981,-4.14268 -4.78493,-1.09958 -12.96257,0 -14.43255,-2.93996 -1.469984,-2.93997 -2.539074,-9.6217 -2.539074,-10.55714 0,-0.93545 1e-5,-19.10978 -0.66816,-20.04522 -0.66818,-0.93545 -6.68174,-9.48807 -5.07813,-12.16077 z"
       id="path48"
       inkscape:connector-curvature="0"
       sodipodi:nodetypes="cccacssccsacscc" />
  </g>
</svg>
