<?xml version="1.0" encoding="UTF-8" standalone="no"?>
<!-- Created with Inkscape (http://www.inkscape.org/) -->

<svg
   xmlns:dc="http://purl.org/dc/elements/1.1/"
   xmlns:cc="http://creativecommons.org/ns#"
   xmlns:rdf="http://www.w3.org/1999/02/22-rdf-syntax-ns#"
   xmlns:svg="http://www.w3.org/2000/svg"
   xmlns="http://www.w3.org/2000/svg"
   xmlns:sodipodi="http://sodipodi.sourceforge.net/DTD/sodipodi-0.dtd"
   xmlns:inkscape="http://www.inkscape.org/namespaces/inkscape"
   width="210mm"
   height="297mm"
   viewBox="0 0 210 297"
   version="1.1"
   id="svg8"
   inkscape:version="0.92.4 (5da689c313, 2019-01-14)"
   sodipodi:docname="U+6C34.svg">
  <defs
     id="defs2" />
  <sodipodi:namedview
     id="base"
     pagecolor="#ffffff"
     bordercolor="#666666"
     borderopacity="1.0"
     inkscape:pageopacity="0.0"
     inkscape:pageshadow="2"
     inkscape:zoom="1.52"
     inkscape:cx="335.59717"
     inkscape:cy="560"
     inkscape:document-units="mm"
     inkscape:current-layer="layer2"
     showgrid="false"
     inkscape:window-width="1920"
     inkscape:window-height="1051"
     inkscape:window-x="-9"
     inkscape:window-y="-9"
     inkscape:window-maximized="1" />
  <metadata
     id="metadata5">
    <rdf:RDF>
      <cc:Work
         rdf:about="">
        <dc:format>image/svg+xml</dc:format>
        <dc:type
           rdf:resource="http://purl.org/dc/dcmitype/StillImage" />
        <dc:title></dc:title>
      </cc:Work>
    </rdf:RDF>
  </metadata>
  <g
     inkscape:groupmode="layer"
     id="layer2"
     inkscape:label="圖層 2">
    <path
       style="fill:#000000;stroke:none;stroke-width:0.26458332px;stroke-linecap:butt;stroke-linejoin:miter;stroke-opacity:1;fill-opacity:1"
       d="m 87.033991,89.8591 c 0,0 0.348136,-2.436952 2.43695,-2.611019 2.088816,-0.17407 10.44408,3.655428 10.618149,4.3517 0.17407,0.696269 2.26288,0.174066 1.39254,4.699833 -0.87034,4.525766 -2.959153,29.243426 -3.13322,32.376646 -0.17407,3.13322 -0.522206,13.92544 -0.17407,21.93256 0.348137,8.00713 -1.392544,20.54003 0.17407,24.02139 1.566611,3.48136 2.43695,3.65542 2.43695,8.52933 0,4.8739 -1.044408,7.13678 -2.61102,5.91831 -1.566611,-1.21848 -7.484922,-10.27001 -8.703399,-10.61815 -1.218475,-0.34813 0.348136,-1.74068 1.914749,-1.21847 1.566612,0.5222 4.177631,2.26288 4.525767,0.69627 0.348136,-1.56661 0.174067,-37.07648 0.174067,-39.51343 0,-2.43696 1.044408,-38.29496 1.044408,-38.29496 0,0 0.696272,-3.133224 -3.133222,-5.570174 -3.829497,-2.436952 -7.310856,-3.481361 -6.962719,-4.699836 z"
       id="path22"
       inkscape:connector-curvature="0" />
    <path
       style="fill:#000000;stroke:none;stroke-width:0.26458332px;stroke-linecap:butt;stroke-linejoin:miter;stroke-opacity:1;fill-opacity:1"
       d="m 41.950383,133.37609 c 0,0 3.307291,1.39255 14.273575,-1.39254 10.966283,-2.78509 20.017816,-5.74424 20.714088,-8.87747 0.696273,-3.13322 2.61102,-2.26288 3.829497,-0.69627 1.218475,1.56661 4.3517,1.21848 4.003564,3.30729 -0.348136,2.08882 -3.481361,9.74781 -6.614583,14.79578 -3.133225,5.04797 -20.540022,32.37665 -22.976975,33.59512 -2.43695,1.21848 -11.662555,4.8739 -13.055097,4.52577 -1.392544,-0.34814 -1.044408,-4.52577 -0.870341,-5.39611 0.174069,-0.87034 0.174069,3.48136 2.088816,2.78509 1.914747,-0.69627 9.051536,-1.74068 15.666119,-10.61815 6.614584,-8.87746 9.921875,-13.92543 13.229167,-19.84375 3.307292,-5.91831 4.351697,-12.88103 3.481358,-14.27357 -0.870339,-1.39254 0,-2.43695 -2.088816,-2.08882 -2.088814,0.34814 -2.61102,-2.26288 -10.966281,3.3073 -8.355264,5.57017 -9.573741,10.09594 -12.881033,9.92187 -3.307292,-0.17407 -7.833058,-0.52221 -7.833058,-3.13322 0,-2.61102 0,-5.91832 0,-5.91832 z"
       id="path24"
       inkscape:connector-curvature="0" />
    <path
       style="fill:#000000;stroke:none;stroke-width:0.26458332px;stroke-linecap:butt;stroke-linejoin:miter;stroke-opacity:1;fill-opacity:1"
       d="m 134.03235,104.13268 c 0,0 1.21847,-2.43696 3.65542,0 2.43695,2.43695 7.13679,4.52576 3.65543,6.09237 -3.48136,1.56662 -27.1546,15.31799 -31.15817,18.27714 -4.00356,2.95916 -16.536456,10.96628 -19.321545,11.31442 -2.785086,0.34814 5.047972,-2.78509 13.055095,-8.18119 8.00713,-5.39611 28.19902,-19.49562 28.54715,-20.7141 0.34814,-1.21847 0.87034,-5.74424 1.56662,-6.78864 z"
       id="path26"
       inkscape:connector-curvature="0" />
    <path
       style="fill:#000000;stroke:none;stroke-width:0.26458332px;stroke-linecap:butt;stroke-linejoin:miter;stroke-opacity:1;fill-opacity:1"
       d="m 93.822641,129.19846 c 0,0 5.047972,1.21848 7.833059,3.3073 2.78509,2.08881 5.57018,5.22203 9.05154,6.96271 3.48135,1.74068 18.62527,9.39967 23.49917,11.14035 4.8739,1.74068 21.58443,6.26645 26.80647,6.44052 5.22204,0.17407 7.65899,1.21848 7.65899,1.21848 0,0 -0.69627,1.91474 -3.13322,1.91474 -2.43695,0 -16.53646,2.08882 -20.01782,4.17764 -3.48136,2.08881 -0.69627,1.21847 -7.48492,-3.48136 -6.78865,-4.69984 -23.15104,-16.01426 -24.54359,-16.71053 -1.39254,-0.69627 -6.78864,-7.13679 -15.840183,-12.01069 -9.051534,-4.87391 -3.655427,-2.26288 -3.829496,-2.95916 z"
       id="path28"
       inkscape:connector-curvature="0"
       sodipodi:nodetypes="cccsscscsccc" />
  </g>
</svg>
