<?xml version="1.0" encoding="UTF-8" standalone="no"?>
<!-- Created with Inkscape (http://www.inkscape.org/) -->

<svg
   xmlns:dc="http://purl.org/dc/elements/1.1/"
   xmlns:cc="http://creativecommons.org/ns#"
   xmlns:rdf="http://www.w3.org/1999/02/22-rdf-syntax-ns#"
   xmlns:svg="http://www.w3.org/2000/svg"
   xmlns="http://www.w3.org/2000/svg"
   xmlns:sodipodi="http://sodipodi.sourceforge.net/DTD/sodipodi-0.dtd"
   xmlns:inkscape="http://www.inkscape.org/namespaces/inkscape"
   width="512"
   height="512"
   viewBox="0 0 135.46666 135.46667"
   version="1.1"
   id="svg8"
   sodipodi:docname="U+7232.svg"
   inkscape:version="0.92.4 (5da689c313, 2019-01-14)">
  <defs
     id="defs2" />
  <sodipodi:namedview
     id="base"
     pagecolor="#ffffff"
     bordercolor="#666666"
     borderopacity="1.0"
     inkscape:pageopacity="0.0"
     inkscape:pageshadow="2"
     inkscape:zoom="1.24"
     inkscape:cx="454.45237"
     inkscape:cy="269.67742"
     inkscape:document-units="px"
     inkscape:current-layer="layer2"
     showgrid="false"
     inkscape:window-width="1920"
     inkscape:window-height="1017"
     inkscape:window-x="-8"
     inkscape:window-y="-8"
     inkscape:window-maximized="1"
     units="px" />
  <metadata
     id="metadata5">
    <rdf:RDF>
      <cc:Work
         rdf:about="">
        <dc:format>image/svg+xml</dc:format>
        <dc:type
           rdf:resource="http://purl.org/dc/dcmitype/StillImage" />
        <dc:title></dc:title>
      </cc:Work>
    </rdf:RDF>
  </metadata>
  <g
     inkscape:groupmode="layer"
     id="layer2"
     inkscape:label="圖層 2"
     transform="translate(0,-161.53331)">
    <path
       style="fill:#000000;fill-opacity:1;stroke:none;stroke-width:0.26458332px;stroke-linecap:butt;stroke-linejoin:miter;stroke-opacity:1"
       d="m 36.060146,192.66028 c 0,0 7.468079,-0.21337 8.108199,1.28024 0.640122,1.49362 0.640122,7.04133 2.133737,9.38844 1.493616,2.34711 0.640123,3.41398 0.640123,3.41398 0,0 -1.920365,-1.28024 -3.200607,-3.84072 -1.280242,-2.56049 -6.40121,-7.89483 -7.681452,-10.24194 z"
       id="path22"
       inkscape:connector-curvature="0" />
    <path
       style="fill:#000000;fill-opacity:1;stroke:none;stroke-width:0.26458332px;stroke-linecap:butt;stroke-linejoin:miter;stroke-opacity:1"
       d="m 43.528225,201.19522 c 0,0 0.213373,1e-5 6.187837,-0.85349 5.974461,-0.85349 26.885081,-19.63037 26.885081,-20.91062 0,-1.28024 1.49361,-7.04133 -4.0541,-5.97446 -5.54772,1.06687 -18.136761,53.13004 -18.136761,53.13004 0,0 -19.843749,52.48991 -24.324596,55.69052 -5.903396,4.21671 -5.334342,3.20061 -5.334342,3.20061 0,0 31.708161,-64.85392 33.286289,-83.00235 1.70699,-19.63038 11.73555,-33.07292 15.57628,-33.92641 3.84072,-0.8535 13.01579,1.28024 10.45531,5.76108 -2.56048,4.48085 -17.06989,16.64315 -16.64315,16.85652 0.42675,0.21337 -22.190858,19.417 -23.257727,16.2164 -1.066869,-3.20061 -0.640121,-6.18784 -0.640121,-6.18784 z"
       id="path24"
       inkscape:connector-curvature="0"
       sodipodi:nodetypes="ccsscscscscsc" />
    <path
       style="fill:#000000;fill-opacity:1;stroke:none;stroke-width:0.26458332px;stroke-linecap:butt;stroke-linejoin:miter;stroke-opacity:1"
       d="m 30.939178,228.72043 c 0,0 -1.066866,-3.84073 0.213376,-3.62735 1.280242,0.21337 2.133735,1.70698 4.0541,1.70698 1.920361,0 28.592069,-14.08266 28.592069,-14.08266 0,0 9.81519,-5.97446 10.66868,-9.60181 0.8535,-3.62735 5.12097,-1.28024 5.12097,-1.28024 0,0 3.62735,0.42674 3.62735,2.98723 0,2.56048 0,6.18783 -2.34711,6.82795 -2.34711,0.64013 -7.04133,3.62736 -8.1082,12.1623 -1.06687,8.53495 -2.98723,4.26748 -2.98723,4.26748 0,0 -2.98723,-1.49362 -2.98723,-2.56049 0,-1.06687 0,-9.17507 0,-9.17507 0,0 0,-1.06686 -1.49362,0.21338 -1.49361,1.28024 -28.165318,15.78965 -28.165318,17.71001 0,1.92036 -3.840726,0.42675 -3.840726,0.42675 0,0 -2.560484,-5.12097 -2.347111,-5.97446 z"
       id="path26"
       inkscape:connector-curvature="0" />
    <path
       style="fill:#000000;fill-opacity:1;stroke:none;stroke-width:0.26458332px;stroke-linecap:butt;stroke-linejoin:miter;stroke-opacity:1"
       d="m 59.744623,232.34778 c 0,0 7.46808,-6.40121 15.14953,-8.53495 7.68145,-2.13373 8.74832,-2.77385 8.53494,0 -0.21337,2.77386 -2.34711,3.41398 -4.90759,6.18784 -2.56048,2.77385 -4.0541,7.89482 -5.12097,10.88206 -1.06686,2.98723 -2.34711,5.97446 -3.84072,5.33434 -1.49362,-0.64013 -4.9076,-1.06687 -4.9076,-3.41398 0,-2.34711 1.49362,-5.33434 -0.42674,-5.76109 -1.92037,-0.42675 -6.40121,2.98723 -4.48085,-4.69422 z"
       id="path28"
       inkscape:connector-curvature="0" />
    <path
       style="fill:#000000;fill-opacity:1;stroke:none;stroke-width:0.26458332px;stroke-linecap:butt;stroke-linejoin:miter;stroke-opacity:1"
       d="m 57.18414,248.77755 c 0,0 0.640123,-3.62735 3.840723,-4.69422 3.20061,-1.06687 23.25773,-4.26747 24.53797,-5.12097 1.28024,-0.85349 13.65592,-2.98723 15.149527,-2.77386 1.49362,0.21338 12.37567,5.54772 12.80242,9.81519 0.42675,4.26748 -6.40121,31.15256 -8.53495,34.35316 -2.13373,3.20061 -10.028557,10.66868 -11.522167,10.45531 -1.49362,-0.21337 -9.81519,-4.0541 -17.06989,-10.66868 -7.25471,-6.61459 -4.48085,-4.69422 -4.48085,-4.69422 0,0 9.24409,0.39843 13.86929,0.42674 3.84131,0.0235 8.34425,1.94465 11.52218,-0.21337 6.250657,-4.2446 8.748317,-20.91062 8.748317,-20.91062 0,0 3.20059,-6.61458 -1.49363,-10.66868 -4.694217,-4.0541 -4.0541,-4.0541 -16.429767,-1.92036 -12.37567,2.13374 -21.97748,6.82796 -24.53796,9.60181 -2.56049,2.77386 -4.69423,1.92036 -6.401213,-2.98723 z"
       id="path30"
       inkscape:connector-curvature="0"
       sodipodi:nodetypes="csccscsscaacsssc" />
    <path
       style="display:inline;fill:#000000;fill-opacity:1;stroke:none;stroke-width:0.26458332px;stroke-linecap:butt;stroke-linejoin:miter;stroke-opacity:1"
       d="m 29.445563,268.40793 c 0,0 -1.066866,2.13373 0.213376,4.90759 1.280239,2.77386 1.706989,8.53494 4.480846,5.33434 2.773857,-3.2006 5.761087,-4.26747 9.815187,-5.54771 4.054099,-1.28025 36.060151,-9.17507 37.340391,-10.88206 1.28024,-1.70699 8.53494,-6.40121 -4.69422,-4.48085 -13.22917,1.92037 -44.595096,7.04134 -47.15558,10.66869 z"
       id="path32"
       inkscape:connector-curvature="0" />
  </g>
</svg>
