<?xml version="1.0" encoding="UTF-8" standalone="no"?>
<!-- Created with Inkscape (http://www.inkscape.org/) -->

<svg
   xmlns:dc="http://purl.org/dc/elements/1.1/"
   xmlns:cc="http://creativecommons.org/ns#"
   xmlns:rdf="http://www.w3.org/1999/02/22-rdf-syntax-ns#"
   xmlns:svg="http://www.w3.org/2000/svg"
   xmlns="http://www.w3.org/2000/svg"
   xmlns:sodipodi="http://sodipodi.sourceforge.net/DTD/sodipodi-0.dtd"
   xmlns:inkscape="http://www.inkscape.org/namespaces/inkscape"
   width="210mm"
   height="297mm"
   viewBox="0 0 210 297"
   version="1.1"
   id="svg8"
   inkscape:version="0.92.4 (5da689c313, 2019-01-14)"
   sodipodi:docname="U+7389.svg">
  <defs
     id="defs2" />
  <sodipodi:namedview
     id="base"
     pagecolor="#ffffff"
     bordercolor="#666666"
     borderopacity="1.0"
     inkscape:pageopacity="0.0"
     inkscape:pageshadow="2"
     inkscape:zoom="1.7469907"
     inkscape:cx="482.2859"
     inkscape:cy="505.92638"
     inkscape:document-units="mm"
     inkscape:current-layer="layer2"
     showgrid="false"
     inkscape:window-width="1920"
     inkscape:window-height="1051"
     inkscape:window-x="-9"
     inkscape:window-y="-9"
     inkscape:window-maximized="1" />
  <metadata
     id="metadata5">
    <rdf:RDF>
      <cc:Work
         rdf:about="">
        <dc:format>image/svg+xml</dc:format>
        <dc:type
           rdf:resource="http://purl.org/dc/dcmitype/StillImage" />
        <dc:title></dc:title>
      </cc:Work>
    </rdf:RDF>
  </metadata>
  <g
     inkscape:groupmode="layer"
     id="layer2"
     inkscape:label="圖層 2">
    <path
       style="fill:#000000;stroke:none;stroke-width:0.26458332px;stroke-linecap:butt;stroke-linejoin:miter;stroke-opacity:1;fill-opacity:1"
       d="m 77.694315,125.25467 c -0.239121,-1.16394 -0.93781,-2.30893 -0.757255,-3.48337 0.123693,-0.80458 0.605803,-3.18047 1.211608,-2.12032 0.605804,1.06016 0.302901,3.18048 0.757254,2.87757 0.454353,-0.3029 9.692857,-1.36306 13.024778,-2.72611 3.331919,-1.36306 16.3567,-6.20949 17.11395,-8.63271 0.75726,-2.42321 6.51239,-0.75725 7.724,-0.3029 1.2116,0.45436 6.96674,3.33192 5.45223,4.24063 -1.51451,0.90871 -8.48125,3.48337 -16.20525,6.05803 -7.723992,2.57467 -6.759586,1.63765 -10.147207,2.42322 -2.016325,0.46757 -4.846429,0.15145 -6.058035,1.36306 -1.211609,1.21161 -5.906588,6.05803 -6.815291,6.96674 -0.908706,0.90871 -2.726116,0.75725 -4.392078,-1.96886 -1.66596,-2.72612 -0.587922,-3.13355 -0.908704,-4.69498 z"
       id="path22"
       inkscape:connector-curvature="0"
       sodipodi:nodetypes="aacccccscaccca" />
    <path
       style="fill:#000000;stroke:none;stroke-width:0.26458332px;stroke-linecap:butt;stroke-linejoin:miter;stroke-opacity:1;fill-opacity:1"
       d="m 78.754472,155.6963 c 0,0 0,1.81741 2.877566,1.06016 2.877568,-0.75726 10.904466,-3.93773 13.479131,-5.75514 2.574666,-1.81741 7.572541,-2.42321 9.692861,-2.72611 2.12031,-0.30291 2.72611,-3.33192 4.84642,-3.02902 2.12032,0.3029 6.96675,2.27176 7.724,3.33192 0.75726,1.06015 2.12031,2.87757 0,3.18047 -2.12031,0.3029 -7.724,1.36306 -9.69286,1.96886 -1.96886,0.6058 -4.84643,1.06016 -7.57254,2.57466 -2.726118,1.51451 -11.813172,5.30079 -15.296543,8.32981 -3.48337,3.02901 -6.815291,-3.93773 -6.966741,-4.99789 -0.151451,-1.06015 0.908706,-3.93772 0.908706,-3.93772 z"
       id="path24"
       inkscape:connector-curvature="0" />
    <path
       style="fill:#000000;stroke:none;stroke-width:0.26458332px;stroke-linecap:butt;stroke-linejoin:miter;stroke-opacity:1;fill-opacity:1"
       d="m 92.385053,122.0742 c 0,0 1.96886,2.57467 4.240626,3.78627 2.271762,1.21161 6.209481,4.24063 6.058031,4.54353 -0.15145,0.3029 0.60581,1.96886 -0.6058,3.63482 -1.21161,1.66596 -2.423215,1.66596 -2.726116,5.45223 -0.302902,3.78628 -0.908706,23.32344 -0.908706,23.32344 0,0 -1.060156,15.7509 -1.211606,16.96251 -0.151453,1.2116 -1.211609,2.12031 -1.211609,2.12031 0,0 -0.605803,-14.99364 -0.605803,-23.47489 0,-8.48125 2.574665,-28.47277 1.665959,-29.38148 -0.908703,-0.9087 -3.786272,-6.96674 -4.694976,-6.96674 z"
       id="path26"
       inkscape:connector-curvature="0" />
    <path
       style="fill:#000000;stroke:none;stroke-width:0.26458332px;stroke-linecap:butt;stroke-linejoin:miter;stroke-opacity:1;fill-opacity:1"
       d="m 71.030475,182.65456 c 0,0 2.574665,3.18047 5.300781,1.96886 2.726116,-1.2116 8.784154,-4.08917 9.84431,-4.24062 1.060156,-0.15145 13.782032,-2.27176 13.782032,-2.27176 0,0 7.421092,-2.57467 8.632702,-3.18047 1.21161,-0.60581 5.75513,-1.21161 7.11819,-0.60581 1.36306,0.60581 8.0269,4.54353 8.17835,5.45224 0.15145,0.9087 1.96886,2.87756 -0.45435,3.33192 -2.42322,0.45435 -21.50603,-0.60581 -22.86909,-1.21161 -1.363056,-0.6058 -1.211611,-2.12032 -4.543527,0 -3.331919,2.12031 -13.327679,6.81529 -14.236385,7.57254 -0.908704,0.75726 -3.029016,3.02902 -4.543526,2.57467 -1.514509,-0.45435 -5.452234,-3.18047 -6.209487,-9.38996 z"
       id="path28"
       inkscape:connector-curvature="0" />
    <path
       style="fill:#000000;stroke:none;stroke-width:0.26458332px;stroke-linecap:butt;stroke-linejoin:miter;stroke-opacity:1;fill-opacity:1"
       d="m 130.09633,163.87465 c 0,0 3.63482,0 5.30078,0.90871 1.66596,0.9087 7.11819,3.93772 8.17835,4.69497 1.06016,0.75726 3.93772,4.39208 4.24062,6.20949 0.3029,1.81741 1.66596,4.69498 0,4.69498 -1.66596,0 -4.54352,0.6058 -6.36093,-1.96886 -1.81742,-2.57467 -5.90659,-7.11819 -6.66384,-8.17835 -0.75726,-1.06016 -5.75514,-4.08918 -4.69498,-6.36094 z"
       id="path30"
       inkscape:connector-curvature="0" />
  </g>
</svg>
