<?xml version="1.0" encoding="UTF-8" standalone="no"?>
<!-- Created with Inkscape (http://www.inkscape.org/) -->

<svg
   xmlns:dc="http://purl.org/dc/elements/1.1/"
   xmlns:cc="http://creativecommons.org/ns#"
   xmlns:rdf="http://www.w3.org/1999/02/22-rdf-syntax-ns#"
   xmlns:svg="http://www.w3.org/2000/svg"
   xmlns="http://www.w3.org/2000/svg"
   xmlns:sodipodi="http://sodipodi.sourceforge.net/DTD/sodipodi-0.dtd"
   xmlns:inkscape="http://www.inkscape.org/namespaces/inkscape"
   width="210mm"
   height="297mm"
   viewBox="0 0 210 297"
   version="1.1"
   id="svg8"
   inkscape:version="0.92.4 (5da689c313, 2019-01-14)"
   sodipodi:docname="U+751F.svg">
  <defs
     id="defs2" />
  <sodipodi:namedview
     id="base"
     pagecolor="#ffffff"
     bordercolor="#666666"
     borderopacity="1.0"
     inkscape:pageopacity="0.0"
     inkscape:pageshadow="2"
     inkscape:zoom="1.24"
     inkscape:cx="421.53696"
     inkscape:cy="560"
     inkscape:document-units="mm"
     inkscape:current-layer="layer2"
     showgrid="false"
     inkscape:window-width="1920"
     inkscape:window-height="1051"
     inkscape:window-x="-9"
     inkscape:window-y="-9"
     inkscape:window-maximized="1" />
  <metadata
     id="metadata5">
    <rdf:RDF>
      <cc:Work
         rdf:about="">
        <dc:format>image/svg+xml</dc:format>
        <dc:type
           rdf:resource="http://purl.org/dc/dcmitype/StillImage" />
        <dc:title></dc:title>
      </cc:Work>
    </rdf:RDF>
  </metadata>
  <g
     inkscape:groupmode="layer"
     id="layer2"
     inkscape:label="圖層 2">
    <path
       style="fill:#000000;stroke:none;stroke-width:0.26458332px;stroke-linecap:butt;stroke-linejoin:miter;stroke-opacity:1;fill-opacity:1"
       d="m 70.199932,118.833 c -0.740741,-0.91509 -1.920362,-3.62736 1.493615,-3.20061 3.41398,0.42675 7.254706,1.06687 7.894825,4.48085 0.640123,3.41398 1.493615,7.46807 -2.560484,12.80242 -4.054099,5.33434 -7.894825,10.4553 -10.455309,12.80242 -2.560484,2.34711 -6.187834,5.12096 -7.681449,4.69422 -1.493618,-0.42675 -0.640123,-1.92037 0.640119,-2.98724 1.280242,-1.06686 10.898305,-7.39552 12.80242,-13.22916 1.604248,-4.91493 2.00477,-10.2503 -2.133737,-15.3629 z"
       id="path22"
       inkscape:connector-curvature="0"
       sodipodi:nodetypes="sscscccas" />
    <path
       style="fill:#000000;stroke:none;stroke-width:0.26458332px;stroke-linecap:butt;stroke-linejoin:miter;stroke-opacity:1;fill-opacity:1"
       d="m 96.231518,133.12903 c -1.352521,-0.40474 -9.815189,-1.92036 -3.200606,-2.77386 6.614583,-0.85349 27.311828,-6.40121 29.018818,-7.68145 1.70699,-1.28024 1.92036,-4.0541 4.0541,-3.41398 2.13374,0.64013 5.97446,0.8535 8.96169,2.56049 2.98723,1.70699 -5.76109,4.26747 -5.76109,4.26747 0,0 -24.32459,6.40121 -26.6717,6.18784 -2.34711,-0.21338 -4.338951,1.47063 -6.401212,0.85349 z"
       id="path24"
       inkscape:connector-curvature="0"
       sodipodi:nodetypes="acscscca" />
    <path
       style="fill:#000000;stroke:none;stroke-width:0.26458332px;stroke-linecap:butt;stroke-linejoin:miter;stroke-opacity:1;fill-opacity:1"
       d="m 87.483197,152.11928 c 0,0 1.066869,5.33435 2.347111,5.76109 1.280242,0.42675 13.442542,-2.77385 14.722782,-2.98723 1.28024,-0.21337 6.62382,-1.75806 9.81519,-2.98723 1.24701,-0.48029 2.36282,-1.27491 3.62735,-1.70699 1.86154,-0.63607 3.62735,-1.49361 5.76109,-1.28024 2.13373,0.21338 8.1082,2.34711 5.33434,4.48085 -2.77386,2.13374 -3.84072,2.13374 -10.24193,3.2006 -6.40121,1.06687 -17.71002,3.84073 -20.483877,5.12097 -2.773857,1.28024 -3.627351,6.18783 -6.187835,4.90759 -2.560484,-1.28024 -7.254705,0 -7.041331,-5.97446 0.213376,-5.97446 0.426749,-8.32157 2.34711,-8.53495 z"
       id="path26"
       inkscape:connector-curvature="0"
       sodipodi:nodetypes="cccaacscsssc" />
    <path
       style="fill:#000000;stroke:none;stroke-width:0.26458332px;stroke-linecap:butt;stroke-linejoin:miter;stroke-opacity:1;fill-opacity:1"
       d="m 97.725134,89.600806 c 0,0 -2.133738,-1.920364 0.426746,-2.133738 2.56048,-0.213373 7.25471,2.347111 10.02856,2.987231 2.77386,0.640122 4.90759,0.426749 5.33434,2.987233 0.42675,2.560484 0.64012,4.694219 -0.64012,11.735548 -1.28024,7.04133 -2.98723,14.50941 -3.2006,16.85652 -0.21338,2.34711 -0.64012,28.80544 -0.42675,33.28629 0.21337,4.48085 -0.85349,20.69724 -1.06687,25.17809 -0.21337,4.48085 -1.49361,4.69422 -1.49361,4.69422 0,0 -2.56049,-5.12097 -2.34711,-8.1082 0.21337,-2.98723 2.56048,-35.84677 2.34711,-41.82123 -0.21338,-5.97446 2.34711,-36.913646 0.21337,-38.407261 -2.13374,-1.493615 -8.321571,-4.907592 -9.175066,-7.254703 z"
       id="path28"
       inkscape:connector-curvature="0" />
    <path
       style="fill:#000000;stroke:none;stroke-width:0.26458332px;stroke-linecap:butt;stroke-linejoin:miter;stroke-opacity:1;fill-opacity:1"
       d="m 71.480174,189.03293 c 0,0 3.413979,1.06687 11.095429,-0.8535 7.681452,-1.92036 25.178087,-5.76109 29.018817,-5.76109 3.84073,0 18.35013,-1.70698 23.4711,0.42675 5.12097,2.13374 10.88206,1.28024 12.37567,4.0541 1.49362,2.77386 2.77386,7.04133 -4.69422,6.40121 -7.46807,-0.64012 -30.08568,-4.69422 -36.70026,-3.2006 -6.614588,1.49361 -19.843755,4.48084 -22.830985,6.18783 -2.98723,1.70699 -4.907595,5.54772 -8.748321,-0.21337 -3.840726,-5.76109 -3.200603,-3.20061 -2.98723,-7.04133 z"
       id="path30"
       inkscape:connector-curvature="0" />
  </g>
</svg>
