<?xml version="1.0" encoding="UTF-8" standalone="no"?>
<!-- Created with Inkscape (http://www.inkscape.org/) -->

<svg
   xmlns:dc="http://purl.org/dc/elements/1.1/"
   xmlns:cc="http://creativecommons.org/ns#"
   xmlns:rdf="http://www.w3.org/1999/02/22-rdf-syntax-ns#"
   xmlns:svg="http://www.w3.org/2000/svg"
   xmlns="http://www.w3.org/2000/svg"
   xmlns:sodipodi="http://sodipodi.sourceforge.net/DTD/sodipodi-0.dtd"
   xmlns:inkscape="http://www.inkscape.org/namespaces/inkscape"
   width="210mm"
   height="297mm"
   viewBox="0 0 210 297"
   version="1.1"
   id="svg8"
   inkscape:version="0.92.4 (5da689c313, 2019-01-14)"
   sodipodi:docname="U+7D50.svg">
  <defs
     id="defs2" />
  <sodipodi:namedview
     id="base"
     pagecolor="#ffffff"
     bordercolor="#666666"
     borderopacity="1.0"
     inkscape:pageopacity="0.0"
     inkscape:pageshadow="2"
     inkscape:zoom="0.70910507"
     inkscape:cx="397.54749"
     inkscape:cy="512.3762"
     inkscape:document-units="mm"
     inkscape:current-layer="layer2"
     showgrid="false"
     inkscape:window-width="1920"
     inkscape:window-height="1051"
     inkscape:window-x="-9"
     inkscape:window-y="-9"
     inkscape:window-maximized="1" />
  <metadata
     id="metadata5">
    <rdf:RDF>
      <cc:Work
         rdf:about="">
        <dc:format>image/svg+xml</dc:format>
        <dc:type
           rdf:resource="http://purl.org/dc/dcmitype/StillImage" />
        <dc:title></dc:title>
      </cc:Work>
    </rdf:RDF>
  </metadata>
  <g
     inkscape:groupmode="layer"
     id="layer2"
     inkscape:label="圖層 2">
    <path
       style="fill:#000000;stroke:none;stroke-width:0.26458332px;stroke-linecap:butt;stroke-linejoin:miter;stroke-opacity:1;fill-opacity:1"
       d="m 69.521847,103.80018 c 0,0 3.653388,0.53727 4.083201,1.28943 0.42981,0.75217 2.363956,2.90122 3.008672,3.65339 0.644715,0.75217 2.793767,1.93415 1.289431,3.97575 -1.504336,2.0416 -6.1248,7.73659 -6.662063,9.13347 -0.537263,1.39688 0.156008,0.66041 0.429811,0.75217 0.51728,0.17336 0.322357,-0.64472 1.504338,-0.64472 1.181979,0 3.33103,-0.53726 4.298104,0 0.967073,0.53727 -0.537263,1.39689 -2.363957,2.68632 -1.826694,1.28943 -5.157727,4.72791 -6.017347,6.44716 -0.859621,1.71924 -5.372632,8.48875 -7.629136,8.16639 -2.256505,-0.32236 -3.545938,-6.1248 -3.331033,-8.59621 0.214905,-2.47141 4.620464,-5.48008 8.273852,-7.52168 3.653391,-2.0416 3.613369,-3.46754 4.620463,-5.69498 0.972781,-2.15155 2.041601,-4.08321 1.18198,-6.98443 -0.859623,-2.90122 -0.969286,-2.06119 -1.396885,-3.11612 -0.472452,-1.16559 -2.578862,-3.8683 -1.289431,-3.54594 z"
       id="path22"
       inkscape:connector-curvature="0"
       sodipodi:nodetypes="ccsssascscsssasac" />
    <path
       style="fill:#000000;stroke:none;stroke-width:0.26458332px;stroke-linecap:butt;stroke-linejoin:miter;stroke-opacity:1;fill-opacity:1"
       d="m 88.218604,107.99083 c 0,0 3.223578,1.39689 4.405556,3.11613 1.181981,1.71924 1.719244,4.72791 1.181981,5.48008 -0.537265,0.75217 -6.017347,5.15773 -7.306781,6.66206 -1.289431,1.50434 -8.811114,11.71234 -8.811114,11.71234 0,0 -5.587537,7.73659 -5.69499,8.3813 -0.107452,0.64472 0.429811,1.39689 2.149055,0.96708 1.719241,-0.42981 8.273851,-2.68632 9.026019,-2.68632 0.752168,0 1.289431,-0.10744 3.116125,0.32237 1.826696,0.42981 3.008675,0.64471 3.008675,0.64471 0,0 -4.620464,1.07452 -7.521683,3.00867 -2.901223,1.93415 -12.464506,10.74526 -12.464506,10.74526 0,0 -2.793766,4.19066 -6.662062,-0.85962 -3.868295,-5.05027 0.107452,-8.05894 0.107452,-8.05894 0,0 2.901223,1.28942 6.662063,-3.97576 3.760843,-5.26518 13.001768,-19.0191 13.431578,-19.44891 0.429811,-0.42982 7.629136,-13.53904 5.372632,-16.01045 z"
       id="path24"
       inkscape:connector-curvature="0"
       sodipodi:nodetypes="ccccccssscscscscc" />
    <path
       style="fill:#000000;stroke:none;stroke-width:0.26458332px;stroke-linecap:butt;stroke-linejoin:miter;stroke-opacity:1;fill-opacity:1"
       d="m 85.317382,136.03597 c 0,0 2.901222,-0.85962 4.405558,1.07452 1.504336,1.93415 4.727917,6.1248 3.008673,8.59621 -1.719242,2.47141 -7.951494,9.13348 -9.45583,9.9931 -1.504336,0.85962 -2.149052,1.39688 -2.149052,1.39688 0,0 6.447158,-9.77819 5.909895,-11.81979 -0.537266,-2.0416 -3.22358,-8.81111 -1.719244,-9.24092 z"
       id="path26"
       inkscape:connector-curvature="0" />
    <path
       style="fill:#000000;stroke:none;stroke-width:0.26458332px;stroke-linecap:butt;stroke-linejoin:miter;stroke-opacity:1;fill-opacity:1"
       d="m 51.469805,172.46241 c 0,0 -0.322357,-4.40556 0.859624,-3.54594 1.181978,0.85962 4.19065,3.97575 5.694986,4.62046 1.504339,0.64472 4.405559,0.85962 5.587537,0.21491 1.181979,-0.64472 9.670738,-5.15773 10.315454,-5.37263 0.644715,-0.21491 11.819786,-5.26518 11.819786,-5.26518 0,0 1.504339,-0.64472 1.181981,-0.21491 -0.322358,0.42981 -6.876968,8.1664 -6.876968,8.1664 l -17.084968,14.18375 c 0,0 -3.653388,5.26518 -6.447158,0.42981 -2.793767,-4.83537 -4.942821,-12.57196 -5.050274,-13.21667 z"
       id="path28"
       inkscape:connector-curvature="0" />
    <path
       style="fill:#000000;stroke:none;stroke-width:0.26458332px;stroke-linecap:butt;stroke-linejoin:miter;stroke-opacity:1;fill-opacity:1"
       d="m 110.99856,122.06713 c 0,0 0.42981,0.53726 3.00867,0.32235 2.57887,-0.2149 18.80421,-4.0832 18.80421,-4.0832 0,0 5.48009,-2.79376 6.33971,-2.57886 0.85962,0.21491 6.76951,1.07453 5.48008,3.00868 -1.28943,1.93414 -21.92033,10.4229 -21.92033,10.4229 0,0 -2.79377,1.07452 -2.79377,1.93415 0,0.85962 -1.39689,1.82669 -5.37263,-1.07453 -3.97575,-2.90122 -4.19066,-3.43848 -3.54594,-7.95149 z"
       id="path30"
       inkscape:connector-curvature="0" />
    <path
       style="fill:#000000;stroke:none;stroke-width:0.26458332px;stroke-linecap:butt;stroke-linejoin:miter;stroke-opacity:1;fill-opacity:1"
       d="m 120.02458,106.27159 c 0,0 -0.10745,-1.61179 0.53726,-3.00867 0.64472,-1.39689 0.64472,-2.0416 2.25651,-1.28944 1.61179,0.75217 6.1248,3.22358 7.30678,3.22358 1.18198,0 3.00867,0.32236 2.79376,1.39689 -0.2149,1.07452 -4.62046,21.70543 -4.62046,23.96193 0,2.25651 -0.2149,13.10922 -0.2149,13.10922 0,0 -0.75217,2.36396 -1.39689,2.57887 -0.64471,0.2149 -1.50433,-3.33104 -1.50433,-3.33104 l -0.53727,-22.13524 0.10746,-8.16639 c 0,0 0.10745,-2.14906 -1.28944,-3.33104 -1.39688,-1.18198 -3.00867,0.96708 -3.43848,-3.00867 z"
       id="path32"
       inkscape:connector-curvature="0" />
    <path
       style="fill:#000000;stroke:none;stroke-width:0.26458332px;stroke-linecap:butt;stroke-linejoin:miter;stroke-opacity:1;fill-opacity:1"
       d="m 99.393676,149.03774 23.639584,-5.05028 c 0,0 2.1721,-0.65509 9.88563,-1.28943 3.89132,-0.32001 21.70543,-2.68632 22.2427,-3.11613 0.53726,-0.42981 1.93415,-3.22358 3.43848,-3.22358 1.50434,0 12.14215,7.30678 12.14215,7.30678 0,0 2.47141,2.36396 1.07452,2.25651 -1.39688,-0.10745 -12.14214,-1.28943 -13.53902,-2.0416 -1.39689,-0.75217 -4.21849,-1.67773 -6.44716,-1.8267 -7.04035,-0.47057 -14.19711,0.97344 -20.95327,3.00868 -8.00784,2.41231 -20.6309,9.88564 -22.6725,10.74526 -2.0416,0.85962 -1.50434,0.75217 -3.54594,-0.75217 -2.04159,-1.50433 -6.017342,-5.80244 -5.265174,-6.01734 z"
       id="path34"
       inkscape:connector-curvature="0"
       sodipodi:nodetypes="ccscscsccassc" />
    <path
       style="fill:#000000;stroke:none;stroke-width:0.26458332px;stroke-linecap:butt;stroke-linejoin:miter;stroke-opacity:1;fill-opacity:1"
       d="m 103.04707,165.26308 c 0,0 -1.18198,-2.90122 -0.10746,-3.22358 1.07453,-0.32236 5.9099,2.79377 6.44716,3.33103 0.53726,0.53727 5.37263,4.19066 6.76952,4.29811 1.39688,0.10745 2.79376,-0.53727 2.36395,0.64471 -0.42981,1.18198 -0.96707,5.15773 -0.96707,6.33971 0,1.18198 0.85962,11.49743 1.18198,12.35705 0.32236,0.85962 3.11613,3.65339 1.93414,6.33971 -1.18197,2.68631 -1.18197,8.16639 -3.97574,4.62046 -2.79377,-3.54594 -3.11613,-2.79377 -2.90122,-9.67074 0.2149,-6.87697 -2.0416,-13.75393 -2.0416,-13.75393 0,0 -0.21491,-0.64472 -1.8267,-2.57887 -1.61179,-1.93415 -6.76951,-7.73658 -6.87696,-8.70366 z"
       id="path36"
       inkscape:connector-curvature="0" />
    <path
       style="fill:#000000;stroke:none;stroke-width:0.26458332px;stroke-linecap:butt;stroke-linejoin:miter;stroke-opacity:1;fill-opacity:1"
       d="m 117.55317,168.05685 c 0,0 -0.42981,-2.14905 0.75217,-2.0416 1.18198,0.10745 5.80244,0.64472 7.41423,0 1.61179,-0.64472 6.87697,-2.57886 7.95149,-3.00868 1.07453,-0.42981 5.58754,-2.36395 9.13348,-2.2565 3.54593,0.10745 7.19932,2.14905 5.90989,2.68632 -1.28943,0.53726 -3.00867,4.0832 -5.37263,4.2981 -2.36396,0.21491 -8.38131,1.39688 -9.67074,2.14905 -1.28943,0.75217 -8.70366,4.83537 -10.208,4.0832 -1.50433,-0.75216 -6.1248,-1.07452 -5.90989,-5.90989 z"
       id="path42"
       inkscape:connector-curvature="0" />
    <path
       style="fill:#000000;stroke:none;stroke-width:0.26458332px;stroke-linecap:butt;stroke-linejoin:miter;stroke-opacity:1;fill-opacity:1"
       d="m 141.73001,158.38611 c 0,0 -0.85962,-4.40555 2.36396,-3.33103 3.22358,1.07453 9.88564,5.48009 9.77819,6.98442 -0.10746,1.50434 -2.79377,7.30678 -3.33103,8.38131 -0.53727,1.07452 -8.1664,13.64648 -8.1664,13.64648 0,0 -2.04161,5.26518 -3.00868,5.05027 -0.96707,-0.2149 -3.43848,0.85962 -3.65339,-1.93414 -0.2149,-2.79377 3.97575,-14.2912 4.51301,-16.54771 0.53727,-2.2565 1.50434,-12.2496 1.50434,-12.2496 z"
       id="path44"
       inkscape:connector-curvature="0" />
    <path
       style="fill:#000000;stroke:none;stroke-width:0.26458332px;stroke-linecap:butt;stroke-linejoin:miter;stroke-opacity:1;fill-opacity:1"
       d="m 117.44572,190.29954 c 0,0 13.64648,-5.26518 17.62223,-5.48008 3.97574,-0.21491 8.59621,-1.28943 10.74526,1.18198 2.14905,2.47141 4.72792,4.0832 2.79377,4.72791 -1.93415,0.64472 -5.9099,-0.53726 -8.59621,-0.32236 -2.68632,0.21491 -15.90299,2.68632 -17.94459,3.54594 -2.0416,0.85962 -4.72792,2.25651 -5.37263,0.53726 -0.64472,-1.71924 -0.42981,-3.11612 0.75217,-4.19065 z"
       id="path46"
       inkscape:connector-curvature="0" />
  </g>
</svg>
