<?xml version="1.0" encoding="UTF-8" standalone="no"?>
<!-- Created with Inkscape (http://www.inkscape.org/) -->

<svg
   xmlns:dc="http://purl.org/dc/elements/1.1/"
   xmlns:cc="http://creativecommons.org/ns#"
   xmlns:rdf="http://www.w3.org/1999/02/22-rdf-syntax-ns#"
   xmlns:svg="http://www.w3.org/2000/svg"
   xmlns="http://www.w3.org/2000/svg"
   xmlns:sodipodi="http://sodipodi.sourceforge.net/DTD/sodipodi-0.dtd"
   xmlns:inkscape="http://www.inkscape.org/namespaces/inkscape"
   width="210mm"
   height="297mm"
   viewBox="0 0 210 297"
   version="1.1"
   id="svg8"
   inkscape:version="0.92.4 (5da689c313, 2019-01-14)"
   sodipodi:docname="U+865F.svg">
  <defs
     id="defs2" />
  <sodipodi:namedview
     id="base"
     pagecolor="#ffffff"
     bordercolor="#666666"
     borderopacity="1.0"
     inkscape:pageopacity="0.0"
     inkscape:pageshadow="2"
     inkscape:zoom="1.979899"
     inkscape:cx="337.29174"
     inkscape:cy="563.30448"
     inkscape:document-units="mm"
     inkscape:current-layer="layer2"
     showgrid="false"
     inkscape:window-width="1920"
     inkscape:window-height="1051"
     inkscape:window-x="-9"
     inkscape:window-y="-9"
     inkscape:window-maximized="1" />
  <metadata
     id="metadata5">
    <rdf:RDF>
      <cc:Work
         rdf:about="">
        <dc:format>image/svg+xml</dc:format>
        <dc:type
           rdf:resource="http://purl.org/dc/dcmitype/StillImage" />
        <dc:title></dc:title>
      </cc:Work>
    </rdf:RDF>
  </metadata>
  <g
     inkscape:groupmode="layer"
     id="layer2"
     inkscape:label="圖層 2"
     style="display:inline">
    <path
       style="fill:#000000;fill-opacity:1;stroke:none;stroke-width:0.26458332px;stroke-linecap:butt;stroke-linejoin:miter;stroke-opacity:1"
       d="m 58.13112,109.91133 c -0.965736,-1.14002 -3.207233,-4.27632 -2.004519,-4.00905 1.202711,0.26727 0.935443,-0.26726 2.27179,0.13364 1.336347,0.40091 4.810852,2.40543 5.746295,3.0736 0.935442,0.66818 3.875407,0.66818 4.409948,2.6727 0.534537,2.00452 -0.267269,2.40542 -0.267269,4.40994 0,2.00452 -0.80181,5.47903 -0.534541,6.68174 0.267269,1.20271 -0.133635,4.67722 -0.801809,4.00904 -0.668173,-0.66817 -2.271789,-1.60361 -2.271789,-3.4745 0,-1.87089 0.267268,-7.75081 -0.668175,-9.22079 -0.935445,-1.46999 -4.313438,-2.42714 -5.879931,-4.27632 z"
       id="path22"
       inkscape:connector-curvature="0"
       sodipodi:nodetypes="ascccsscsca" />
    <path
       style="fill:#000000;fill-opacity:1;stroke:none;stroke-width:0.26458332px;stroke-linecap:butt;stroke-linejoin:miter;stroke-opacity:1"
       d="m 68.821902,103.89776 c 0,0 -0.133635,-1.20271 0.267269,-2.13815 0.400905,-0.93544 0.534541,-0.40091 0.935445,-0.40091 0.400905,0 0.668174,2.00453 1.737252,1.87089 1.069078,-0.13363 6.681737,-0.53454 8.285355,-1.60362 1.603616,-1.06908 2.672694,-4.142674 4.276312,-4.142674 1.603616,0 5.746295,1.069078 6.1472,1.603616 0.400904,0.534541 2.672694,2.004528 2.672694,3.608138 0,1.60362 -0.668174,2.93997 -2.672694,4.40995 -2.004523,1.46998 -4.009043,2.27179 -4.009043,3.60814 0,1.33634 0.935442,9.08716 0.267268,10.69078 -0.668173,1.60362 -1.202713,2.93996 -2.672693,2.13815 -1.469983,-0.8018 -4.14268,-2.40542 -4.14268,-5.07812 0,-2.67269 1.202714,-7.61718 0,-8.15172 -1.202713,-0.53453 -2.271791,-1.60361 -3.073598,-0.93544 -0.801809,0.66817 -3.741774,2.80633 -4.677217,1.87089 -0.935445,-0.93545 -2.138156,-1.20272 -2.53906,-2.93997 -0.400905,-1.73725 -0.935445,-3.74177 -0.80181,-4.40995 z"
       id="path24"
       inkscape:connector-curvature="0" />
    <path
       style="fill:#000000;fill-opacity:1;stroke:none;stroke-width:0.26458332px;stroke-linecap:butt;stroke-linejoin:miter;stroke-opacity:1"
       d="m 63.342876,125.5466 c 0,0 -2.271789,-2.13816 -0.534537,-2.6727 1.737251,-0.53454 11.759858,-2.13816 14.03165,-2.27179 2.271789,-0.13363 4.81085,-2.13816 6.280833,-2.00452 1.469982,0.13363 4.543583,2.00452 4.276312,3.20723 -0.267269,1.20272 -0.534538,2.93997 -1.469983,3.20724 -0.935442,0.26727 -6.401552,-0.68995 -9.488067,0 -1.633531,0.36515 -2.53906,1.73725 -4.543583,2.13815 -2.004521,0.40091 -6.013564,2.27179 -6.681737,1.20272 -0.668174,-1.06908 -1.336347,-2.6727 -1.870888,-2.80633 z"
       id="path26"
       inkscape:connector-curvature="0"
       sodipodi:nodetypes="cssccsaccc" />
    <path
       style="fill:#000000;fill-opacity:1;stroke:none;stroke-width:0.26458332px;stroke-linecap:butt;stroke-linejoin:miter;stroke-opacity:1"
       d="m 45.836723,144.92364 c 0,0 -2.405425,-2.53906 -0.133633,-3.20724 2.271789,-0.66817 7.483546,-3.4745 10.423509,-3.20723 2.939965,0.26727 10.156243,-2.80633 11.49259,-3.34087 1.336349,-0.53454 10.156242,-5.7463 11.358956,-5.21176 1.202711,0.53454 -0.801809,4.14268 3.207234,4.27631 4.009044,0.13364 4.81085,-2.13815 6.681737,-1.60361 1.870888,0.53454 4.276313,1.60361 4.677217,3.34087 0.400905,1.73725 1.336347,2.80633 -0.534537,3.20723 -1.870888,0.40091 -11.893495,0.40091 -12.82894,1.20271 -0.935442,0.80181 -18.575231,3.87541 -19.644309,5.61267 -1.069078,1.73725 -1.737252,0 -3.608139,0.4009 -1.870887,0.4009 -5.746295,5.34539 -7.216277,4.81085 -1.469983,-0.53454 -2.939963,-5.87993 -3.875408,-6.28083 z"
       id="path28"
       inkscape:connector-curvature="0" />
    <path
       style="fill:#000000;fill-opacity:1;stroke:none;stroke-width:0.26458332px;stroke-linecap:butt;stroke-linejoin:miter;stroke-opacity:1"
       d="m 78.176336,138.6428 c 0,0 2.00452,3.87541 1.069078,4.94449 -0.935442,1.06908 -5.211754,2.53906 -6.147199,3.87541 -0.935443,1.33635 -2.80633,4.40994 -1.603616,4.14267 1.202711,-0.26726 5.479024,-0.26727 6.013564,-0.13363 0.534538,0.13363 4.543581,1.60362 5.34539,2.6727 0.801809,1.06907 2.138156,0.8018 1.603616,3.34087 -0.534538,2.53906 -3.608137,7.48354 -3.608137,8.55262 0,1.06908 -0.801809,4.40995 -1.336349,6.28083 -0.534538,1.87089 -2.80633,7.08264 -3.340867,7.88445 -0.534541,0.80181 -5.612662,7.61719 -6.68174,8.15173 -1.069078,0.53453 -4.81085,0.4009 -5.078122,-0.40091 -0.267268,-0.80181 -1.202711,-1.60362 0.668174,-2.40543 1.870887,-0.8018 6.68174,-4.27631 7.617182,-6.81537 0.935445,-2.53906 0.267271,-4.81085 2.539061,-7.88445 2.271792,-3.0736 3.207234,-4.67722 3.608138,-7.08264 0.400905,-2.40543 1.069078,-4.67722 -0.534537,-6.01357 -1.603619,-1.33634 -5.211757,-5.34539 -7.349914,-4.27631 -2.138156,1.06908 -4.944485,4.00905 -6.013563,5.21176 -1.069078,1.20271 -2.004523,1.46998 -2.939966,1.06907 -0.935442,-0.4009 -3.073598,-1.60361 -1.603615,-2.93996 1.46998,-1.33635 7.884451,-6.28083 7.750815,-7.48355 -0.133636,-1.20271 -1.603618,-2.00452 0.267269,-3.34086 1.870887,-1.33635 8.552624,-1.46999 6.949008,-5.47903 -1.603618,-4.00904 -0.935445,-5.21176 0,-5.07812 0.935443,0.13363 2.939966,2.53906 2.80633,3.20723 z"
       id="path30"
       inkscape:connector-curvature="0"
       sodipodi:nodetypes="csccccssccccccsscssccscscc" />
    <path
       style="fill:#000000;fill-opacity:1;stroke:none;stroke-width:0.26458332px;stroke-linecap:butt;stroke-linejoin:miter;stroke-opacity:1"
       d="m 109.5805,98.285106 c 0,0 -1.60361,-4.677217 0.26728,-4.276313 1.87088,0.400905 4.40994,2.405425 5.47902,2.80633 1.06908,0.400905 3.20723,1.202711 4.14268,2.939965 0.93544,1.737252 1.06908,2.806332 1.46998,4.142672 0.40091,1.33635 -0.53454,3.60814 -0.4009,4.67722 0.13363,1.06908 -0.13364,4.94449 -0.26727,5.61266 -0.13364,0.66818 -0.80181,2.80633 -1.33635,2.00452 -0.53454,-0.80181 -1.06908,-0.80181 -1.06908,-2.80633 0,-2.00452 0.26727,-5.74629 -0.26727,-6.68174 -0.53454,-0.93544 -1.73725,-4.67721 -2.80633,-5.21175 -1.06908,-0.53454 -4.40995,0.13363 -4.81085,-0.80181 -0.40091,-0.935442 -0.40091,-2.405424 -0.40091,-2.405424 z"
       id="path32"
       inkscape:connector-curvature="0" />
    <path
       style="fill:#000000;fill-opacity:1;stroke:none;stroke-width:0.26458332px;stroke-linecap:butt;stroke-linejoin:miter;stroke-opacity:1"
       d="m 122.67671,94.543331 c 0,0 3.34087,2.138156 4.40995,2.004523 1.06908,-0.133636 4.54358,-0.668176 6.1472,-1.202714 1.60362,-0.53454 3.0736,-1.202713 4.94449,-1.202713 1.87088,0 3.74177,0.53454 3.60813,1.336349 -0.13363,0.801807 0.13364,2.405425 -1.06907,2.939963 -1.20272,0.53454 -4.00905,0.53454 -5.3454,1.202714 -1.33634,0.668177 -3.74177,2.004517 -4.54358,2.672697 -0.80181,0.66817 -2.80633,1.20271 -4.14267,-0.13364 -1.33635,-1.33634 -2.00453,-0.80181 -2.93997,-1.87088 -0.93544,-1.069082 -2.53906,-5.612663 -1.06908,-5.746299 z"
       id="path34"
       inkscape:connector-curvature="0" />
    <path
       style="fill:#000000;fill-opacity:1;stroke:none;stroke-width:0.26458332px;stroke-linecap:butt;stroke-linejoin:miter;stroke-opacity:1"
       d="m 96.083394,121.13665 c 0,0 1.069078,-2.00452 0.668173,-2.93997 -0.400904,-0.93544 -0.935442,-1.60361 0.400905,-1.60361 1.336347,0 5.211758,0.26727 6.147198,-0.26727 0.93544,-0.53454 18.8425,-4.54358 20.31248,-4.54358 1.46999,0 12.42804,-0.40091 13.89802,-0.66818 1.46998,-0.26727 8.68626,-1.46998 9.48807,-2.80633 0.80181,-1.33635 0.53454,-4.27631 2.53906,-3.8754 2.00452,0.4009 4.54358,0.93544 5.74629,2.53905 1.20272,1.60362 4.94449,2.93997 5.34539,4.94449 0.40091,2.00452 -0.13363,3.34087 -1.33634,4.27631 -1.20272,0.93545 -5.07812,2.40543 -6.1472,2.53906 -1.06908,0.13364 -3.87541,1.33635 -3.87541,0.26727 0,-1.06907 -1.06908,-4.67721 0.93544,-4.94448 2.00452,-0.26727 2.40543,-3.74178 1.46999,-3.60814 -0.93545,0.13363 -2.13816,-0.26727 -4.27632,0.26727 -2.13815,0.53454 -5.34539,1.33634 -6.94901,1.87088 -1.60361,0.53454 -3.07359,-0.26726 -6.28083,0.93545 -3.20723,1.20271 -10.82441,2.00452 -13.63074,2.67269 -2.80633,0.66818 -10.95806,1.73726 -12.16077,2.6727 -1.20271,0.93544 -6.1472,2.40542 -6.41447,2.80633 -0.26727,0.4009 -4.276308,3.0736 -4.810848,2.27179 -0.534538,-0.80181 -1.870887,-2.27179 -1.069078,-2.80633 z"
       id="path36"
       inkscape:connector-curvature="0" />
    <path
       style="fill:#000000;fill-opacity:1;stroke:none;stroke-width:0.26458332px;stroke-linecap:butt;stroke-linejoin:miter;stroke-opacity:1"
       d="m 101.69605,125.14569 c 0,0 3.47451,0.40091 4.14268,1.46999 0.66818,1.06907 1.20271,1.73725 2.13816,2.27178 0.93544,0.53454 2.27179,2.13816 1.87089,3.74178 -0.40091,1.60361 -2.93997,4.27631 -3.20724,6.01356 -0.26727,1.73725 -0.80181,3.0736 -1.33635,6.28084 -0.53454,3.20723 -2.13815,6.28083 -2.67269,7.75081 -0.53454,1.46999 -1.33635,0.80181 -1.20272,6.1472 0.13364,5.34539 -0.4009,8.15172 -1.33634,10.15625 -0.935448,2.00452 -6.013566,11.89349 -7.884454,14.03164 -1.870887,2.13816 -6.414468,8.28536 -7.082641,9.2208 -0.668176,0.93545 -6.949009,4.14268 -6.949009,4.14268 0,0 5.612659,-7.08264 6.548104,-8.81989 0.935442,-1.73725 6.280834,-15.90254 7.08264,-17.10525 0.80181,-1.20271 4.058069,-8.96693 5.345393,-11.4926 2.111506,-4.14267 5.078117,-11.75985 5.078117,-13.0962 0,-1.33635 2.00452,-9.35443 2.00452,-10.28988 0,-0.93544 0.13364,-5.34539 -0.4009,-5.87993 -0.53454,-0.53453 -3.4745,-3.74177 -2.13816,-4.54358 z"
       id="path38"
       inkscape:connector-curvature="0"
       sodipodi:nodetypes="ccccssccccccccssscc" />
    <path
       style="fill:#000000;fill-opacity:1;stroke:none;stroke-width:0.26458332px;stroke-linecap:butt;stroke-linejoin:miter;stroke-opacity:1"
       d="m 114.65863,135.1683 c 0,0 -2.13816,-3.34087 -1.87089,-4.67722 0.26727,-1.33634 0.80181,-3.0736 1.33635,-2.53906 0.53454,0.53454 0.93544,1.73725 2.40542,1.60362 1.46999,-0.13364 13.22984,-2.13816 14.03165,-2.53906 0.80181,-0.4009 3.60814,-1.73725 4.67722,-1.87089 1.06908,-0.13363 4.14268,-0.13363 4.27631,0.40091 0.13364,0.53453 -1.06908,3.74177 -2.80633,5.34539 -1.73725,1.60362 -8.68626,4.94448 -9.88897,5.21175 -1.20271,0.26727 -3.34087,1.33635 -4.14268,2.40543 -0.80181,1.06908 -0.53454,1.87088 -2.67269,1.73725 -2.13816,-0.13363 -5.21176,-0.53454 -5.34539,-1.20271 -0.13364,-0.66818 0.53454,-3.74178 0,-3.87541 z"
       id="path40"
       inkscape:connector-curvature="0"
       sodipodi:nodetypes="ccscsccsssscc" />
    <path
       style="fill:#000000;fill-opacity:1;stroke:none;stroke-width:0.26458332px;stroke-linecap:butt;stroke-linejoin:miter;stroke-opacity:1"
       d="m 116.52951,123.80935 c 0,0 -3.20723,-2.6727 -0.53454,-3.60814 2.6727,-0.93545 5.61266,-0.26727 6.01357,0.13363 0.4009,0.4009 4.54358,3.47451 5.21175,4.67722 0.66818,1.20271 -0.26727,4.67721 -0.66817,6.41447 -0.4009,1.73725 -0.80181,7.61718 -0.4009,8.15172 0.4009,0.53454 1.06907,2.00452 1.87088,2.13815 0.80181,0.13364 7.48355,-0.4009 8.8199,-0.53454 1.33635,-0.13363 2.67269,-0.53453 3.60813,0.26727 0.93545,0.80181 2.40543,2.40543 1.73726,3.0736 -0.66818,0.66818 -3.20724,1.87089 -6.68174,1.73725 -3.4745,-0.13363 -8.15172,0.93545 -8.95353,1.06908 -0.80181,0.13364 -2.40543,-0.26727 -3.60814,-2.53906 -1.20271,-2.27179 -3.0736,-2.53906 -3.0736,-6.94901 0,-4.40994 -1.06908,-8.81989 -1.06908,-9.75533 0,-0.93545 -0.26727,-3.60814 -2.27179,-4.27631 z"
       id="path42"
       inkscape:connector-curvature="0" />
    <path
       style="fill:#000000;fill-opacity:1;stroke:none;stroke-width:0.26458332px;stroke-linecap:butt;stroke-linejoin:miter;stroke-opacity:1"
       d="m 114.92589,159.48983 c 0,0 0.80181,-0.93545 2.00453,-0.13364 1.20271,0.80181 2.40542,2.6727 3.74177,3.20723 1.33635,0.53454 2.6727,1.33635 2.13816,2.80634 -0.53454,1.46998 -2.13816,9.22079 -2.93997,10.42351 -0.80181,1.20271 -2.53906,6.949 -5.74629,7.88445 -3.20724,0.93544 -2.27179,0.80181 -2.27179,0.80181 0,0 3.20723,-3.60814 4.14267,-7.08265 0.93545,-3.4745 1.87089,-13.63074 1.06908,-14.29892 -0.80181,-0.66817 -2.93996,-2.93996 -2.13816,-3.60813 z"
       id="path44"
       inkscape:connector-curvature="0" />
    <path
       style="fill:#000000;fill-opacity:1;stroke:none;stroke-width:0.26458332px;stroke-linecap:butt;stroke-linejoin:miter;stroke-opacity:1"
       d="m 130.16026,152.13992 c 0,0 -1.06908,-0.40091 -0.93544,1.73725 0.13363,2.13815 0.53453,4.81085 0.66817,5.34539 0.13363,0.53453 0.26727,0.80181 0.80181,2.40542 0.53454,1.60362 0.80181,2.53906 0.4009,2.80633 -0.4009,0.26727 -0.80181,0.13364 -0.93544,2.80633 -0.13364,2.6727 0.13363,10.69078 0.13363,10.69078 0,0 1.87089,3.0736 3.47451,4.40995 1.60361,1.33635 3.0736,3.47451 4.94448,3.87541 1.87089,0.4009 11.09169,1.60362 12.02713,1.46998 0.93545,-0.13363 5.61266,-0.4009 7.75082,0.26727 2.13815,0.66817 6.5481,1.06908 8.41899,0.93544 1.87088,-0.13363 4.94448,-1.20271 4.94448,-2.67269 0,-1.46998 0.93545,-3.60814 -1.06907,-4.54358 -2.00453,-0.93545 -3.47451,-4.00905 -4.00905,-4.40995 -0.53454,-0.4009 -2.13815,-1.33635 -2.00452,-0.26727 0.13364,1.06908 -0.13363,3.87541 -0.93544,4.54358 -0.80181,0.66818 -3.34087,2.00452 -4.67722,2.13816 -1.33635,0.13363 -9.48807,0 -10.82441,0 -1.33635,0 -5.34539,0.4009 -7.75082,-0.66818 -2.40542,-1.06908 -6.01356,-2.00452 -6.68174,-5.61266 -0.66817,-3.60813 0.26727,-11.35895 0.93545,-13.22984 0.66817,-1.87088 1.73725,-5.61266 3.20723,-6.81537 1.46998,-1.20271 1.87089,-2.40543 0.4009,-4.40995 -1.46998,-2.00452 -1.73725,-4.00904 -3.60813,-2.93996 -1.87089,1.06907 -3.87541,2.40542 -4.67722,2.13816 z"
       id="path50"
       inkscape:connector-curvature="0" />
  </g>
</svg>
