<?xml version="1.0" encoding="UTF-8" standalone="no"?>
<!-- Created with Inkscape (http://www.inkscape.org/) -->

<svg
   xmlns:dc="http://purl.org/dc/elements/1.1/"
   xmlns:cc="http://creativecommons.org/ns#"
   xmlns:rdf="http://www.w3.org/1999/02/22-rdf-syntax-ns#"
   xmlns:svg="http://www.w3.org/2000/svg"
   xmlns="http://www.w3.org/2000/svg"
   xmlns:sodipodi="http://sodipodi.sourceforge.net/DTD/sodipodi-0.dtd"
   xmlns:inkscape="http://www.inkscape.org/namespaces/inkscape"
   width="210mm"
   height="297mm"
   viewBox="0 0 210 297"
   version="1.1"
   id="svg8"
   inkscape:version="0.92.4 (5da689c313, 2019-01-14)"
   sodipodi:docname="U+91D1.svg">
  <defs
     id="defs2" />
  <sodipodi:namedview
     id="base"
     pagecolor="#ffffff"
     bordercolor="#666666"
     borderopacity="1.0"
     inkscape:pageopacity="0.0"
     inkscape:pageshadow="2"
     inkscape:zoom="1.1575153"
     inkscape:cx="497.57983"
     inkscape:cy="560"
     inkscape:document-units="mm"
     inkscape:current-layer="layer2"
     showgrid="false"
     inkscape:window-width="1920"
     inkscape:window-height="1051"
     inkscape:window-x="-9"
     inkscape:window-y="-9"
     inkscape:window-maximized="1" />
  <metadata
     id="metadata5">
    <rdf:RDF>
      <cc:Work
         rdf:about="">
        <dc:format>image/svg+xml</dc:format>
        <dc:type
           rdf:resource="http://purl.org/dc/dcmitype/StillImage" />
        <dc:title></dc:title>
      </cc:Work>
    </rdf:RDF>
  </metadata>
  <g
     inkscape:groupmode="layer"
     id="layer2"
     inkscape:label="圖層 2">
    <path
       style="fill:#000000;stroke:none;stroke-width:0.26458332px;stroke-linecap:butt;stroke-linejoin:miter;stroke-opacity:1;fill-opacity:1"
       d="m 86.402742,102.02238 c 0,0 4.342995,0.91431 6.171623,3.65726 1.828631,2.74294 1.371473,2.51437 -0.685736,5.48589 -2.057207,2.97152 -5.714467,5.02873 -8.68599,10.97178 -2.971522,5.94305 -6.83821,13.32956 -9.600302,21.02924 -2.197837,6.12675 -7.566773,10.65815 -12.114671,15.31477 -3.667134,3.7548 -7.386734,7.77864 -12.11467,10.05746 -1.682638,0.81102 -5.48589,1.14289 -5.48589,1.14289 0,0 8.41039,-6.58176 17.60056,-15.77193 6.628781,-6.62878 12.14301,-19.99308 16.000507,-26.7437 0,0 12.800407,-17.82914 8.914569,-25.14366 z"
       id="path22"
       inkscape:connector-curvature="0"
       sodipodi:nodetypes="ccsssaacssc" />
    <path
       style="fill:#000000;stroke:none;stroke-width:0.26458332px;stroke-linecap:butt;stroke-linejoin:miter;stroke-opacity:1;fill-opacity:1"
       d="m 96.917361,112.76558 c 0,0 -0.914316,-2.74294 6.171629,-1.14289 7.08593,1.60005 6.17162,2.74294 10.28604,5.71446 4.11441,2.97153 12.8004,11.88609 17.1434,12.34325 4.34299,0.45716 1.60005,-0.68573 6.85736,2.74295 5.25731,3.42868 9.14315,6.4002 16.0005,8.22883 6.85737,1.82863 10.51463,1.60005 13.02899,3.65726 2.51436,2.05721 5.48589,2.97152 1.14289,3.88583 -4.34299,0.91432 -19.65776,1.1429 -21.48639,1.82863 -1.82863,0.68574 -2.28579,-0.91431 -5.71447,-4.80015 -3.42868,-3.88584 -18.05772,-16.68624 -20.80066,-19.42919 -2.74294,-2.74294 -9.6003,-10.28604 -12.34325,-10.97177 -2.74294,-0.68574 -9.143145,0.22857 -10.286039,-2.05721 z"
       id="path24"
       inkscape:connector-curvature="0" />
    <path
       style="fill:#000000;stroke:none;stroke-width:0.26458332px;stroke-linecap:butt;stroke-linejoin:miter;stroke-opacity:1;fill-opacity:1"
       d="m 84.802692,139.73787 c 0.236417,-2.81746 5.257309,-0.45716 8.228831,-2.05721 2.971522,-1.60006 8.914567,-5.94305 11.657517,-5.94305 2.74294,0 6.17162,-0.45716 7.08593,0 0.91432,0.45716 1.60006,4.34299 -0.68573,5.25731 -2.28579,0.91431 -16.229086,6.17162 -18.972032,5.94304 -2.742944,-0.22857 -7.537049,-0.54811 -7.314516,-3.20009 z"
       id="path26"
       inkscape:connector-curvature="0"
       sodipodi:nodetypes="acsccca" />
    <path
       style="fill:#000000;stroke:none;stroke-width:0.26458332px;stroke-linecap:butt;stroke-linejoin:miter;stroke-opacity:1;fill-opacity:1"
       d="m 78.17391,154.13832 c 0,0 1.37147,-0.68574 3.42868,0.22858 2.057206,0.91431 3.885837,0.68573 6.62878,-0.22858 2.742946,-0.91431 15.31477,-3.65726 15.31477,-3.65726 0,0 3.88584,-2.28579 6.85736,-2.28579 2.97153,0 8.45742,1.1429 7.08594,2.51437 -1.37147,1.37147 0.22858,2.74294 -6.62878,3.42868 -6.85736,0.68574 -2.05721,0.22858 -9.14315,1.60005 -7.085935,1.37147 -16.000504,6.85736 -17.829135,5.48589 -1.828628,-1.37147 -8.228832,-3.42868 -5.714465,-7.08594 z"
       id="path28"
       inkscape:connector-curvature="0" />
    <path
       style="fill:#000000;stroke:none;stroke-width:0.26458332px;stroke-linecap:butt;stroke-linejoin:miter;stroke-opacity:1;fill-opacity:1"
       d="m 90.060001,145.68091 c 0,0 0.457158,-1.37147 2.514364,-0.91432 2.05721,0.45716 4.800153,4.11442 5.48589,4.80016 0.685736,0.68573 1.600049,-1.60005 1.600049,5.02873 0,6.62878 0.228579,29.71523 -0.457155,31.54386 -0.685737,1.82862 -1.828631,1.37147 -2.285788,-1.60006 -0.457158,-2.97152 -0.228579,-29.02949 -1.371473,-29.48665 -1.142892,-0.45715 -0.914313,-10.05746 -5.485887,-9.37172 z"
       id="path30"
       inkscape:connector-curvature="0" />
    <path
       style="fill:#000000;stroke:none;stroke-width:0.26458332px;stroke-linecap:butt;stroke-linejoin:miter;stroke-opacity:1;fill-opacity:1"
       d="m 82.516905,168.53878 c 0,0 3.42868,-1.82863 3.885837,0.22858 0.457158,2.05721 -0.228578,6.17162 0.914313,7.08593 1.142894,0.91432 3.657261,5.25731 5.028732,5.25731 1.371473,0 -5.257308,2.05721 -7.314518,-0.45715 -2.057206,-2.51437 -5.714468,-5.02873 -2.514364,-12.11467 z"
       id="path32"
       inkscape:connector-curvature="0" />
    <path
       style="fill:#000000;stroke:none;stroke-width:0.26458332px;stroke-linecap:butt;stroke-linejoin:miter;stroke-opacity:1;fill-opacity:1"
       d="m 112.00355,160.99568 c 0,0 4.11442,-2.74294 5.48589,-0.45716 1.37148,2.28579 4.80015,3.2001 -0.22858,8.91457 -5.02873,5.71447 -6.85736,7.5431 -6.85736,7.5431 0,0 7.31452,-15.77193 1.60005,-16.00051 z"
       id="path34"
       inkscape:connector-curvature="0" />
    <path
       style="fill:#000000;stroke:none;stroke-width:0.26458332px;stroke-linecap:butt;stroke-linejoin:miter;stroke-opacity:1;fill-opacity:1"
       d="m 73.145178,190.71091 c 0,0 -2.057209,-3.88584 -0.228579,-3.42868 1.828631,0.45716 1.142894,2.97152 3.885838,2.74294 2.742943,-0.22858 20.572081,-4.34299 26.743703,-4.57157 6.17163,-0.22858 20.57208,1.82863 22.17213,0.45716 1.60006,-1.37148 3.88584,-3.88584 7.31452,0 3.42868,3.88583 6.17163,6.85736 2.97152,7.31451 -3.2001,0.45716 -5.2573,0.45716 -12.11467,-1.82862 -6.85736,-2.28579 -5.02872,-3.65726 -22.85786,-2.74295 -17.829141,0.91432 -19.200612,2.74295 -20.343506,3.65726 -1.142894,0.91431 -5.028731,7.77167 -5.714465,4.34299 -0.685737,-3.42868 -0.685737,-5.71446 -1.828631,-5.94304 z"
       id="path36"
       inkscape:connector-curvature="0" />
  </g>
</svg>
