<?xml version="1.0" encoding="UTF-8" standalone="no"?>
<!-- Created with Inkscape (http://www.inkscape.org/) -->

<svg
   xmlns:dc="http://purl.org/dc/elements/1.1/"
   xmlns:cc="http://creativecommons.org/ns#"
   xmlns:rdf="http://www.w3.org/1999/02/22-rdf-syntax-ns#"
   xmlns:svg="http://www.w3.org/2000/svg"
   xmlns="http://www.w3.org/2000/svg"
   xmlns:sodipodi="http://sodipodi.sourceforge.net/DTD/sodipodi-0.dtd"
   xmlns:inkscape="http://www.inkscape.org/namespaces/inkscape"
   width="210mm"
   height="297mm"
   viewBox="0 0 210 297"
   version="1.1"
   id="svg8"
   inkscape:version="0.92.4 (5da689c313, 2019-01-14)"
   sodipodi:docname="U+971C.svg">
  <defs
     id="defs2" />
  <sodipodi:namedview
     id="base"
     pagecolor="#ffffff"
     bordercolor="#666666"
     borderopacity="1.0"
     inkscape:pageopacity="0.0"
     inkscape:pageshadow="2"
     inkscape:zoom="1.63"
     inkscape:cx="417.23836"
     inkscape:cy="535.46012"
     inkscape:document-units="mm"
     inkscape:current-layer="layer2"
     showgrid="false"
     inkscape:window-width="1920"
     inkscape:window-height="1051"
     inkscape:window-x="-9"
     inkscape:window-y="-9"
     inkscape:window-maximized="1" />
  <metadata
     id="metadata5">
    <rdf:RDF>
      <cc:Work
         rdf:about="">
        <dc:format>image/svg+xml</dc:format>
        <dc:type
           rdf:resource="http://purl.org/dc/dcmitype/StillImage" />
        <dc:title></dc:title>
      </cc:Work>
    </rdf:RDF>
  </metadata>
  <g
     inkscape:groupmode="layer"
     id="layer2"
     inkscape:label="圖層 2">
    <path
       style="fill:#000000;stroke:none;stroke-width:0.26458332px;stroke-linecap:butt;stroke-linejoin:miter;stroke-opacity:1;fill-opacity:1"
       d="m 88.627301,103.02633 c 0,0 -2.434818,-3.246424 1.460889,-3.246424 3.895703,0 16.71907,-2.921778 18.82924,-4.220347 2.11018,-1.298567 5.19428,-1.298567 5.68124,-0.324641 0.48696,0.973925 2.75946,6.330522 -4.05803,7.466772 -6.81748,1.13624 -9.08998,1.29856 -9.73926,2.92177 -0.64928,1.62322 -0.32464,4.545 -1.62321,5.3566 -1.29857,0.81161 -7.46677,-0.97393 -8.440695,-1.46089 -0.973929,-0.48696 -1.460892,-6.33052 -2.110174,-6.49284 z"
       id="path22"
       inkscape:connector-curvature="0" />
    <path
       style="fill:#000000;stroke:none;stroke-width:0.26458332px;stroke-linecap:butt;stroke-linejoin:miter;stroke-opacity:1;fill-opacity:1"
       d="m 58.27326,112.44095 c 0,0 4.058027,7.62909 5.681238,9.41462 1.623211,1.78553 2.92178,0.32464 1.947852,4.70731 -0.973926,4.38267 0.973928,9.90159 -0.324641,12.01176 -1.298567,2.11017 -3.895706,3.24642 -4.382669,5.3566 -0.486963,2.11017 1.62321,8.11605 -0.16232,8.44069 -1.785533,0.32464 -2.434818,1.13625 -2.434818,1.13625 0,0 -1.78553,-2.59714 -0.811604,-5.3566 0.973926,-2.75946 3.571063,-3.8957 3.733385,-9.90158 0.162319,-6.00588 -0.649284,-11.5248 -1.460891,-12.01176 -0.811604,-0.48696 -6.492843,-9.2523 -1.785532,-13.79729 z"
       id="path24"
       inkscape:connector-curvature="0"
       sodipodi:nodetypes="cssscscsscc" />
    <path
       style="fill:#000000;stroke:none;stroke-width:0.26458332px;stroke-linecap:butt;stroke-linejoin:miter;stroke-opacity:1;fill-opacity:1"
       d="m 71.096626,123.96574 c 0,0 -2.921781,-2.59713 1.298567,-2.75945 4.220347,-0.16232 15.907464,-2.2725 17.530675,-2.92178 1.623211,-0.64929 12.498722,-2.2725 17.043712,-2.75946 4.54499,-0.48696 15.4205,-1.46089 19.96549,-2.11018 4.54499,-0.64928 8.76534,-0.64928 10.06391,-2.59713 1.29857,-1.94785 0.32464,-5.84356 5.19427,-4.38267 4.86963,1.46089 12.3364,7.79141 12.98569,8.92766 0.64928,1.13625 1.46088,2.59714 0.32464,3.24642 -1.13625,0.64928 -9.41462,8.27837 -11.36248,9.08998 -1.94785,0.8116 -2.75946,-0.81161 -2.11017,-3.24642 0.64928,-2.43482 5.35659,-6.00588 1.94785,-9.2523 -3.40874,-3.24642 -9.57694,-1.94785 -9.57694,-1.94785 0,0 -26.29601,3.73338 -29.38011,4.54498 -3.0841,0.81161 -19.640851,2.92178 -24.510483,5.03196 -4.869633,2.11017 -5.356596,9.2523 -9.414621,1.13624 z"
       id="path28"
       inkscape:connector-curvature="0" />
    <path
       style="fill:#000000;stroke:none;stroke-width:0.26458332px;stroke-linecap:butt;stroke-linejoin:miter;stroke-opacity:1;fill-opacity:1"
       d="m 97.8796,108.54524 c 0,0 0,-1.62321 2.2725,-0.48696 2.27249,1.13625 7.30444,2.92178 6.65516,5.84356 -0.64929,2.92178 -1.78553,26.9453 -2.11018,30.0294 -0.32464,3.0841 -2.27249,6.81748 -2.11017,8.11605 0.16232,1.29857 -3.40874,2.11017 -3.084099,-4.86963 0.324641,-6.97981 1.298569,-31.97725 0.486963,-32.46422 -0.811604,-0.48696 -3.733385,-3.8957 -2.110174,-6.1682 z"
       id="path30"
       inkscape:connector-curvature="0" />
    <path
       style="fill:#000000;stroke:none;stroke-width:0.26458332px;stroke-linecap:butt;stroke-linejoin:miter;stroke-opacity:1;fill-opacity:1"
       d="m 80.024284,132.24412 c 0,0 -2.272496,-1.94785 -0.162322,-2.11017 2.110174,-0.16233 8.765339,-0.97393 9.252302,-2.75946 0.486963,-1.78554 4.058025,-1.46089 3.408741,-0.48697 -0.649285,0.97393 -4.707311,8.60302 -6.005878,7.95374 -1.29857,-0.64929 -6.00588,-0.81161 -6.492843,-2.59714 z"
       id="path32"
       inkscape:connector-curvature="0" />
    <path
       style="fill:#000000;stroke:none;stroke-width:0.26458332px;stroke-linecap:butt;stroke-linejoin:miter;stroke-opacity:1;fill-opacity:1"
       d="m 80.99821,144.25588 c 0,0 -1.785533,-3.24642 3.246421,-4.54499 5.031952,-1.29857 8.603017,-2.92178 8.116052,-1.46089 -0.486963,1.46089 -5.031952,7.95373 -5.843556,9.08998 -0.811607,1.13624 -5.194276,-2.59714 -5.518917,-3.0841 z"
       id="path34"
       inkscape:connector-curvature="0" />
    <path
       style="fill:#000000;stroke:none;stroke-width:0.26458332px;stroke-linecap:butt;stroke-linejoin:miter;stroke-opacity:1;fill-opacity:1"
       d="m 112.16385,121.04397 c 0.16233,-0.16233 3.73339,-2.75946 5.03196,-0.97393 1.29856,1.78553 5.68123,3.57106 1.62321,6.33052 -4.05803,2.75946 -5.51892,3.40874 -5.51892,3.40874 0,0 1.13625,-5.51891 0.16232,-6.00588 -0.97393,-0.48696 -2.43481,-1.62321 -1.29857,-2.75945 z"
       id="path36"
       inkscape:connector-curvature="0" />
    <path
       style="fill:#000000;stroke:none;stroke-width:0.26458332px;stroke-linecap:butt;stroke-linejoin:miter;stroke-opacity:1;fill-opacity:1"
       d="m 110.37832,135.9775 c 0,0 8.11605,-0.64928 9.2523,-1.29857 1.13625,-0.64928 4.70731,-0.48696 3.73339,1.13625 -0.97393,1.62321 -3.89571,6.65517 -8.11606,5.19428 -4.22034,-1.46089 -5.51891,-4.05803 -4.86963,-5.03196 z"
       id="path38"
       inkscape:connector-curvature="0" />
    <path
       style="fill:#000000;stroke:none;stroke-width:0.26458332px;stroke-linecap:butt;stroke-linejoin:miter;stroke-opacity:1;fill-opacity:1"
       d="m 61.195039,168.60404 c 0,0 -0.649282,-3.24643 2.921781,-2.92178 3.571062,0.32464 16.556749,-4.22035 18.504601,-5.03196 1.947851,-0.8116 11.037831,-4.54498 13.959609,-3.0841 2.921781,1.46089 -1.947852,2.2725 -3.733382,3.57107 -1.785532,1.29857 -17.043712,7.14213 -18.17996,7.95373 -1.136247,0.81161 -5.681236,6.33052 -7.304447,7.14213 -1.623211,0.81161 -1.612122,1.52977 -4.707312,-2.59714 0,0 1.298569,-3.89571 -1.46089,-5.03195 z"
       id="path40"
       inkscape:connector-curvature="0"
       sodipodi:nodetypes="ccccscssc" />
    <path
       style="fill:#000000;stroke:none;stroke-width:0.26458332px;stroke-linecap:butt;stroke-linejoin:miter;stroke-opacity:1;fill-opacity:1"
       d="m 81.485173,150.91104 c 0,0 8.116054,0.64928 8.603017,2.11018 0.486963,1.46088 -2.759459,10.55086 -2.597137,22.23798 0.162319,11.68712 -0.973926,32.13957 -1.136248,32.78886 -0.162322,0.64928 -1.623211,5.19427 -2.272495,5.84355 -0.649285,0.64929 -0.324642,-4.05802 -0.324642,-8.44069 0,-4.38267 0.315044,-17.98569 -0.324643,-26.9453 -0.621809,-8.7092 -2.759456,-23.53655 -3.408741,-25.97137 -0.649285,-2.43481 1.460889,-1.62321 1.460889,-1.62321 z"
       id="path42"
       inkscape:connector-curvature="0"
       sodipodi:nodetypes="ccsccsacc" />
    <path
       style="fill:#000000;stroke:none;stroke-width:0.26458332px;stroke-linecap:butt;stroke-linejoin:miter;stroke-opacity:1;fill-opacity:1"
       d="m 81.647495,171.85046 c 0,0 -0.324644,-2.43482 2.272493,-2.59714 2.597139,-0.16232 6.979806,0.64929 4.544991,4.38267 -2.434818,3.73339 -21.26406,25.97137 -23.211912,28.08154 -1.947854,2.11018 18.666921,-28.08154 16.394428,-29.86707 z"
       id="path44"
       inkscape:connector-curvature="0" />
    <path
       style="fill:#000000;stroke:none;stroke-width:0.26458332px;stroke-linecap:butt;stroke-linejoin:miter;stroke-opacity:1;fill-opacity:1"
       d="m 85.867842,170.38957 c 0,0 2.272493,4.05802 4.707311,4.70731 2.434815,0.64928 9.901587,4.05803 9.739257,6.65516 -0.16231,2.59714 0.97393,8.4407 -1.460884,6.00588 -2.434815,-2.43481 -11.200154,-8.92766 -12.985684,-17.36835 z"
       id="path46"
       inkscape:connector-curvature="0" />
    <path
       style="fill:#000000;stroke:none;stroke-width:0.26458332px;stroke-linecap:butt;stroke-linejoin:miter;stroke-opacity:1;fill-opacity:1"
       d="m 104.21012,158.86477 c 0,0 5.68124,1.46089 5.68124,5.03196 0,3.57106 0.48696,25.97137 -0.16232,29.86707 -0.64929,3.89571 -1.94786,8.11605 -2.2725,5.68124 -0.32464,-2.43482 -1.78553,-8.4407 -2.11017,-22.40031 -0.32464,-13.95961 -2.59714,-17.36835 -1.13625,-18.17996 z"
       id="path48"
       inkscape:connector-curvature="0" />
    <path
       style="fill:#000000;stroke:none;stroke-width:0.26458332px;stroke-linecap:butt;stroke-linejoin:miter;stroke-opacity:1;fill-opacity:1"
       d="m 109.72904,156.42996 c 0,0 -2.59714,-2.59714 1.62321,-3.73339 4.22035,-1.13625 11.52479,-4.54499 12.49872,-5.19427 0.97393,-0.64929 0.16232,-2.11018 2.2725,-1.78553 2.11017,0.32464 6.16819,2.11017 7.62908,4.54499 1.46089,2.43481 2.92178,-0.16232 2.2725,11.03783 -0.64929,11.20015 -2.75946,35.71063 -1.78553,37.65849 0.97392,1.94785 2.59713,4.38266 0.32464,7.95373 -2.27249,3.57106 -3.89571,3.8957 -3.89571,3.8957 0,0 -0.97392,-5.35659 -2.27249,-7.14212 -1.29857,-1.78554 -2.59714,-6.33053 -3.57106,-7.30445 -0.97393,-0.97393 3.8957,2.27249 4.54499,0.97392 0.64928,-1.29856 0.48696,-29.70475 0.48696,-31.00332 0,-1.29857 1.13625,-11.36247 -0.64928,-12.98568 -1.78554,-1.62321 -2.92179,-1.78554 -5.51892,-0.16232 -2.59714,1.62321 -4.86963,3.24642 -6.97981,4.86963 -2.11017,1.62321 -3.57106,1.62321 -4.54499,0.97392 -0.97392,-0.64928 -2.43481,-1.78553 -2.43481,-2.59713 z"
       id="path50"
       inkscape:connector-curvature="0" />
    <path
       style="fill:#000000;stroke:none;stroke-width:0.26458332px;stroke-linecap:butt;stroke-linejoin:miter;stroke-opacity:1;fill-opacity:1"
       d="m 107.45654,172.98671 c 0,-0.16233 1.46089,-2.2725 3.40874,-2.59714 1.94786,-0.32464 5.3566,-2.2725 7.14213,-4.05803 1.78553,-1.78553 2.43482,-2.27249 3.40875,-1.13624 0.97392,1.13624 1.6232,5.84355 -2.11018,6.81748 -3.73338,0.97393 -11.03783,3.57106 -11.36247,3.24642 -0.32465,-0.32464 -1.29857,-1.62321 -0.48697,-2.27249 z"
       id="path52"
       inkscape:connector-curvature="0" />
    <path
       style="fill:#000000;stroke:none;stroke-width:0.26458332px;stroke-linecap:butt;stroke-linejoin:miter;stroke-opacity:1;fill-opacity:1"
       d="m 107.94351,185.97239 c 0,0 -1.46089,-1.62321 1.62321,-2.11017 3.0841,-0.48697 5.84355,-0.81161 7.30444,-1.78553 1.46089,-0.97393 3.73339,-2.2725 4.545,-1.13625 0.8116,1.13625 1.94785,2.43481 0.48696,3.73338 -1.46089,1.29857 -5.51892,2.2725 -8.4407,2.2725 -2.92178,0 -5.03195,1.13624 -5.51891,-0.97393 z"
       id="path54"
       inkscape:connector-curvature="0" />
    <path
       style="fill:#000000;stroke:none;stroke-width:0.26458332px;stroke-linecap:butt;stroke-linejoin:miter;stroke-opacity:1;fill-opacity:1"
       d="m 102.42459,201.39289 c 0,0 -3.084101,-1.94785 3.73338,-3.8957 6.81749,-1.94786 12.82337,-4.38267 16.06979,-4.05803 3.24642,0.32464 11.52479,0.64928 12.66104,1.62321 1.13625,0.97393 2.2725,1.94785 0.81161,3.0841 -1.46089,1.13625 -2.2725,1.62321 -4.05803,1.13625 -1.78553,-0.48697 -8.76534,-2.59714 -12.66104,-1.29857 -3.89571,1.29857 -10.87551,3.73338 -12.49872,4.38267 -1.62321,0.64928 -3.40875,3.24642 -4.05803,-0.97393 z"
       id="path56"
       inkscape:connector-curvature="0" />
  </g>
</svg>
