<?xml version="1.0" encoding="UTF-8" standalone="no"?>
<!-- Created with Inkscape (http://www.inkscape.org/) -->

<svg
   xmlns:dc="http://purl.org/dc/elements/1.1/"
   xmlns:cc="http://creativecommons.org/ns#"
   xmlns:rdf="http://www.w3.org/1999/02/22-rdf-syntax-ns#"
   xmlns:svg="http://www.w3.org/2000/svg"
   xmlns="http://www.w3.org/2000/svg"
   xmlns:sodipodi="http://sodipodi.sourceforge.net/DTD/sodipodi-0.dtd"
   xmlns:inkscape="http://www.inkscape.org/namespaces/inkscape"
   width="512"
   height="512"
   viewBox="0 0 135.46666 135.46667"
   version="1.1"
   id="svg8"
   inkscape:version="0.92.4 (5da689c313, 2019-01-14)"
   sodipodi:docname="U+9732.svg">
  <defs
     id="defs2" />
  <sodipodi:namedview
     id="base"
     pagecolor="#ffffff"
     bordercolor="#666666"
     borderopacity="1.0"
     inkscape:pageopacity="0.0"
     inkscape:pageshadow="2"
     inkscape:zoom="0.9983453"
     inkscape:cx="414.56022"
     inkscape:cy="203.17301"
     inkscape:document-units="px"
     inkscape:current-layer="layer2"
     showgrid="false"
     inkscape:window-width="1920"
     inkscape:window-height="1017"
     inkscape:window-x="-8"
     inkscape:window-y="-8"
     inkscape:window-maximized="1"
     units="px" />
  <metadata
     id="metadata5">
    <rdf:RDF>
      <cc:Work
         rdf:about="">
        <dc:format>image/svg+xml</dc:format>
        <dc:type
           rdf:resource="http://purl.org/dc/dcmitype/StillImage" />
        <dc:title></dc:title>
      </cc:Work>
    </rdf:RDF>
  </metadata>
  <g
     inkscape:groupmode="layer"
     id="layer2"
     inkscape:label="圖層 2"
     transform="translate(0,-161.53332)">
    <path
       style="fill:#000000;fill-opacity:1;stroke:none;stroke-width:0.26458332px;stroke-linecap:butt;stroke-linejoin:miter;stroke-opacity:1"
       d="m 51.538089,174.59134 c 0,0 3.668275,1.48714 6.047697,1.18971 2.379422,-0.29743 10.608256,-0.694 11.401396,-1.388 0.79314,-0.69399 2.57771,-2.37942 3.9657,-2.5777 1.388,-0.19829 4.46142,-0.694 4.46142,0.0991 0,0.79314 -3.27171,6.14684 -4.36228,6.24598 -1.09057,0.0991 -13.780814,1.78457 -15.961949,3.17256 -2.181137,1.388 -2.875134,-0.59485 -3.370847,-0.89228 -0.495713,-0.29743 -2.181137,-5.84941 -2.181137,-5.84941 z"
       id="path25"
       inkscape:connector-curvature="0" />
    <path
       style="fill:#000000;fill-opacity:1;stroke:none;stroke-width:0.26458332px;stroke-linecap:butt;stroke-linejoin:miter;stroke-opacity:1"
       d="m 25.761023,185.19959 c 0,0 4.758845,7.43569 5.056271,9.51769 0.297429,2.08199 -0.594856,17.54823 -2.676849,19.33279 -2.081993,1.78457 0.693998,3.56914 0.693998,3.56914 0,0 2.676848,-3.17257 3.271706,-4.46142 0.594855,-1.28885 2.77599,-7.33655 3.271703,-8.72454 0.495713,-1.388 1.883709,-9.12111 0.793139,-11.10397 -1.090567,-1.98285 -6.146838,-5.75026 -6.840834,-7.13826 -0.694,-1.388 -2.081995,-3.76742 -2.875136,-3.86656 -0.793139,-0.0991 -1.18971,2.08199 -0.693998,2.87513 z"
       id="path27"
       inkscape:connector-curvature="0"
       sodipodi:nodetypes="ccccccsccc" />
    <path
       style="display:inline;fill:#000000;fill-opacity:1;stroke:none;stroke-width:0.26458332px;stroke-linecap:butt;stroke-linejoin:miter;stroke-opacity:1"
       d="m 39.541841,190.55329 c 0,0 20.704149,-1.6827 31.031621,-2.77599 10.82659,-1.14613 31.031618,-4.16399 32.419618,-3.9657 1.38799,0.19828 4.75884,-0.39658 6.04769,1.98285 1.28886,2.37942 2.37942,5.55198 1.18971,6.84083 -1.18971,1.28886 -1.98285,4.26313 -2.77599,4.16399 -0.79314,-0.0991 -3.86656,-6.44427 -3.2717,-7.73312 0.59485,-1.28886 3.56913,-1.78457 2.37942,-2.77599 -1.18971,-0.99143 -8.327978,-0.99143 -9.616828,-0.89229 -1.28886,0.0991 -16.64022,1.62672 -24.88478,2.97429 -4.1641,0.68061 -8.280643,1.63274 -12.392822,2.5777 -4.616667,1.06088 -12.690248,1.78456 -13.780818,3.46999 -1.090567,1.68542 -1.883707,2.08199 -3.370845,1.38799 -1.487138,-0.69399 -3.172563,-2.47856 -3.271705,-3.37084 -0.09914,-0.89228 -0.495713,-1.98285 0.297429,-1.88371 z"
       id="path29"
       inkscape:connector-curvature="0"
       sodipodi:nodetypes="cacccccccaacccc" />
    <path
       style="fill:#000000;fill-opacity:1;stroke:none;stroke-width:0.26458332px;stroke-linecap:butt;stroke-linejoin:miter;stroke-opacity:1"
       d="m 59.766921,182.82017 c 0,0 3.271705,-0.694 4.56056,0.39657 1.288851,1.09057 4.758841,3.17256 5.551981,3.2717 0.79314,0.0991 2.67685,0.59486 1.58628,1.48714 -1.09057,0.89228 -3.2717,1.88371 -3.2717,3.27171 0,1.38799 -1.88371,9.91424 -1.78457,12.09538 0.0992,2.18113 -0.29743,10.80655 -0.495711,11.4014 -0.198284,0.59486 -0.09914,2.37942 -0.594855,2.18114 -0.495713,-0.19828 -0.660722,-4.48284 -0.79314,-6.74169 -0.09283,-1.58356 0.02249,-3.17273 -3e-6,-4.75885 -0.0661,-4.66111 0.198288,-13.08682 -0.396571,-13.9791 -0.594855,-0.89228 -2.478564,-3.66827 -3.469989,-5.05627 -0.991426,-1.388 -2.081993,-2.37942 -0.892284,-3.56913 z"
       id="path32"
       inkscape:connector-curvature="0"
       sodipodi:nodetypes="cccsscscaacscc" />
    <path
       style="fill:#000000;fill-opacity:1;stroke:none;stroke-width:0.26458332px;stroke-linecap:butt;stroke-linejoin:miter;stroke-opacity:1"
       d="m 47.671529,199.6744 c 0,0 2.775992,-1.28885 3.767418,-0.79314 0.991425,0.49572 2.478563,2.082 3.866559,1.78457 1.387997,-0.29743 2.974277,-0.39657 1.883709,0.694 -1.090567,1.09057 -4.26313,2.67685 -4.857985,3.37085 -0.594855,0.69399 -1.487138,0.69399 -2.379422,-0.79315 -0.892283,-1.48713 -0.198284,-2.18113 -1.090567,-2.37942 -0.892284,-0.19828 -1.685425,-1.98285 -1.189712,-1.88371 z"
       id="path34"
       inkscape:connector-curvature="0" />
    <path
       style="fill:#000000;fill-opacity:1;stroke:none;stroke-width:0.26458332px;stroke-linecap:butt;stroke-linejoin:miter;stroke-opacity:1"
       d="m 44.697252,212.86037 c 0,0 6.444266,-3.27171 7.931407,-3.56914 1.487138,-0.29742 4.659698,0 4.659698,0 0,0 0.892284,-0.0991 0.396571,0.29743 -0.495713,0.39657 -1.784567,0.29743 -3.073418,0.89228 -1.288855,0.59486 -3.965705,3.46999 -4.362273,4.06485 -0.396571,0.59485 -0.495713,2.28028 -3.073421,1.88371 -2.577706,-0.39657 -1.790891,-0.15428 -2.280277,-0.79314 -0.564141,-0.73644 -0.892284,-2.57771 -0.198287,-2.77599 z"
       id="path36"
       inkscape:connector-curvature="0"
       sodipodi:nodetypes="ccccccsac" />
    <path
       style="fill:#000000;fill-opacity:1;stroke:none;stroke-width:0.26458332px;stroke-linecap:butt;stroke-linejoin:miter;stroke-opacity:1"
       d="m 73.746022,197.59241 c 0,0 0.694,-1.28885 1.88371,-1.09057 1.18971,0.19829 2.87513,-0.0991 2.97428,0.49572 0.0991,0.59485 -0.89229,2.5777 -2.37943,2.5777 -1.48713,0 -3.76741,-1.18971 -2.47856,-1.98285 z"
       id="path38"
       inkscape:connector-curvature="0" />
    <path
       style="fill:#000000;fill-opacity:1;stroke:none;stroke-width:0.26458332px;stroke-linecap:butt;stroke-linejoin:miter;stroke-opacity:1"
       d="m 75.728872,206.61438 c 0,0 3.56914,-0.79314 5.25456,-0.19828 1.68542,0.59486 3.66827,-0.0991 2.67685,1.48714 -0.99143,1.58628 -2.18114,3.2717 -2.97428,3.56913 -0.79314,0.29743 -0.59486,-0.694 -1.28885,-0.99143 -0.694,-0.29742 -1.58629,-1.18971 -2.67685,-1.48713 -1.09057,-0.29743 -1.98285,-0.79315 -1.78457,-1.388 0.19829,-0.59485 0.0991,-1.09057 0.79314,-0.99143 z"
       id="path40"
       inkscape:connector-curvature="0" />
    <path
       style="fill:#000000;fill-opacity:1;stroke:none;stroke-width:0.26458332px;stroke-linecap:butt;stroke-linejoin:miter;stroke-opacity:1"
       d="m 36.369278,226.04633 c 0,0 3.751451,-0.32363 5.155412,0.69399 1.78317,1.29248 2.676849,3.56914 2.875136,5.94856 0.198284,2.37942 0.396568,5.45284 0.396568,6.74169 0,1.28885 0.297429,2.47857 -0.495713,1.48714 -0.793138,-0.99143 -0.691995,-5.13278 -1.784566,-7.43569 -0.818778,-1.72582 -2.081992,-3.86656 -3.469988,-4.56056 -1.387996,-0.694 -1.586283,0.29747 -2.875134,-0.49571 -1.288855,-0.79314 -0.297428,-2.37942 0.198283,-2.37942 z"
       id="path42"
       inkscape:connector-curvature="0"
       sodipodi:nodetypes="cacscasccc" />
    <path
       style="fill:#000000;fill-opacity:1;stroke:none;stroke-width:0.26458332px;stroke-linecap:butt;stroke-linejoin:miter;stroke-opacity:1"
       d="m 48.960383,225.0549 c 0,0 0.892283,-0.99142 2.181135,-0.99142 1.288854,0 3.469992,-1.18972 3.569134,-2.67686 0.09914,-1.48713 0.594854,-2.08199 0.991425,-1.98285 0.396571,0.0992 1.487138,1.28886 2.28028,1.58628 0.793139,0.29743 2.875132,0.99143 2.875132,2.47857 0,1.48714 -1.288852,4.85799 -1.982851,5.65112 -0.693997,0.79315 -1.883707,1.98286 -2.181135,4.26314 -0.297429,2.28027 0,2.67684 -0.396571,3.46998 -0.396571,0.79315 -2.081993,-0.29742 -2.676848,-1.18971 -0.594857,-0.89228 0.594855,-5.55198 -0.297429,-6.64255 -0.892283,-1.09057 -1.090567,-1.28885 -2.280279,-1.28885 -1.18971,0 -1.427069,-0.31913 -1.58628,-0.89229 z"
       id="path44"
       inkscape:connector-curvature="0"
       sodipodi:nodetypes="cssccscsccsssc" />
    <path
       style="fill:#000000;fill-opacity:1;stroke:none;stroke-width:0.26458332px;stroke-linecap:butt;stroke-linejoin:miter;stroke-opacity:1"
       d="m 35.972707,242.3057 c 0,0 4.276251,-1.89836 6.444265,-2.77599 1.90022,-0.76923 3.776701,-1.62654 5.750269,-2.18113 3.107485,-0.87324 7.931405,-1.88371 9.517688,-1.78457 1.58628,0.0991 2.37942,0.89228 2.181136,1.48714 -0.198287,0.59485 -4.004353,0.48055 -5.948555,0.99143 -2.618778,0.68813 -5.174612,1.64327 -7.633978,2.77599 -1.58607,0.7305 -4.560555,2.5777 -4.560555,2.5777 -0.396571,0.694 -0.693998,3.07343 -1.685426,2.776 -0.991425,-0.29743 -3.569131,-0.19829 -4.064844,-0.89229 -0.495713,-0.694 -0.693997,-3.07342 0,-2.97428 z"
       id="path46"
       inkscape:connector-curvature="0"
       sodipodi:nodetypes="caaccaacssc" />
    <path
       style="fill:#000000;fill-opacity:1;stroke:none;stroke-width:0.26458332px;stroke-linecap:butt;stroke-linejoin:miter;stroke-opacity:1"
       d="m 44.697252,243.19799 c 0,0 1.982851,1.09057 3.172563,1.48714 1.18971,0.39657 2.379422,0 3.172561,1.18971 0.793141,1.18971 1.288854,1.48714 1.288854,2.67685 0,1.18971 -0.198287,8.6254 -0.198287,8.6254 v 6.44427 c 0,0 0.09915,2.18113 -0.396568,2.77599 -0.495713,0.59485 -1.982851,-0.39657 -1.982851,-1.78457 0,-1.388 -0.09914,-9.22026 -0.09914,-9.22026 v -3.46999 c 0,0 0.793141,-1.98285 -2.379422,-4.46141 -3.172561,-2.47857 -1.131243,-3.44741 -2.577706,-4.26313 -1e-6,0 -4e-6,0 -4e-6,0 z"
       id="path48"
       inkscape:connector-curvature="0"
       sodipodi:nodetypes="cscscccscccac" />
    <path
       style="fill:#000000;fill-opacity:1;stroke:none;stroke-width:0.26458332px;stroke-linecap:butt;stroke-linejoin:miter;stroke-opacity:1"
       d="m 57.387499,245.47827 c 0,0 2.875135,2.67685 3.172564,3.76742 0.297426,1.09056 0.495712,2.87513 0.09914,3.56913 -0.396571,0.69399 -0.892284,1.38799 -1.586281,0.39657 -0.693999,-0.99143 -1.387996,-4.46142 -1.487138,-5.05627 -0.09914,-0.59486 -0.198285,-2.67685 -0.198285,-2.67685 z"
       id="path50"
       inkscape:connector-curvature="0"
       sodipodi:nodetypes="cscccac" />
    <path
       style="fill:#000000;fill-opacity:1;stroke:none;stroke-width:0.26458332px;stroke-linecap:butt;stroke-linejoin:miter;stroke-opacity:1"
       d="m 30.420724,253.0131 c 0,0 0.793141,-0.39657 2.280279,0.29743 1.487139,0.69399 5.45284,2.87514 5.750269,4.56056 0.297428,1.68542 0.594856,10.01339 0.495714,11.8971 -0.09915,1.88371 0.297426,3.66828 -0.297429,4.56056 -0.594857,0.89228 -2.280279,-0.29742 -2.676849,-2.5777 -0.396571,-2.28028 -0.495714,-11.59969 -1.48714,-12.69025 -0.991425,-1.09057 -1.982849,-2.37943 -4.163987,-3.46999 -2.181135,-1.09057 -2.181136,-2.57771 -2.181136,-2.57771 z"
       id="path52"
       inkscape:connector-curvature="0"
       sodipodi:nodetypes="ccsccscccc" />
    <path
       style="fill:#000000;fill-opacity:1;stroke:none;stroke-width:0.26458332px;stroke-linecap:butt;stroke-linejoin:miter;stroke-opacity:1"
       d="m 29.528441,276.60903 c 0,0 1.105365,2.47193 1.883709,3.56913 0.730612,1.02992 1.396522,2.32953 2.577706,2.77599 0.932016,0.35228 2.67685,1.388 2.974276,-0.29742 0.297429,-1.68543 2.478564,-6.54341 3.668276,-7.83226 1.189709,-1.28886 6.05828,-4.72062 9.418542,-6.54341 1.693825,-0.91882 4.216985,-0.41445 5.353699,-2.18114 0.395016,-0.61394 1.189712,-1.98285 0.39657,-2.08199 -0.793141,-0.0992 -5.095822,0.94001 -7.534833,1.78456 -3.786365,1.3111 -7.223394,3.47631 -10.905683,5.05627 -1.404263,0.60253 -2.916732,0.96279 -4.263131,1.68543 -1.171274,0.62864 -2.56151,1.15657 -3.271705,2.28027 -0.32219,0.50978 -0.297426,1.78457 -0.297426,1.78457 z"
       id="path54"
       inkscape:connector-curvature="0"
       sodipodi:nodetypes="caascaccaaaac" />
    <path
       style="fill:#000000;fill-opacity:1;stroke:none;stroke-width:0.26458332px;stroke-linecap:butt;stroke-linejoin:miter;stroke-opacity:1"
       d="m 75.332302,222.47719 c 0,0 0.0991,-2.18113 0.79314,-1.38799 0.694,0.79314 0.89229,0.19828 1.388,3.17256 0.49571,2.97428 0.29742,6.44426 -0.99143,8.22883 -1.28885,1.78457 -3.07342,4.16399 -4.26313,4.75885 -1.18971,0.59485 -1.58628,0.39657 -0.59485,-0.99143 0.99142,-1.388 0.69399,-5.55199 1.28885,-7.23741 0.59486,-1.68542 2.57771,-5.3537 2.37942,-6.54341 z"
       id="path56"
       inkscape:connector-curvature="0" />
    <path
       style="fill:#000000;fill-opacity:1;stroke:none;stroke-width:0.26458332px;stroke-linecap:butt;stroke-linejoin:miter;stroke-opacity:1"
       d="m 83.065422,221.38662 c 0,0 4.26313,0.19829 6.14684,-2.67684 1.88371,-2.87514 1.78457,-4.95713 3.27171,-4.75885 1.48713,0.19829 2.08199,-0.19828 2.67684,0.79314 0.59486,0.99143 1.88371,2.57771 1.88371,3.37085 0,0.79314 -1.09057,3.37085 -1.68542,3.9657 -0.59486,0.59486 -4.85799,1.98286 -6.14684,4.26313 -1.28885,2.28028 -13.68167,23.59593 -14.87138,25.57878 -1.18971,1.98285 -7.83227,16.45767 -9.319405,17.74652 -1.487138,1.28885 -5.155414,4.75885 -6.345123,5.25456 -1.18971,0.49571 -2.181138,0.79314 -2.181138,0.79314 0,0 2.67685,-2.87514 3.767418,-4.16399 1.09057,-1.28885 8.427118,-11.69882 9.418548,-13.48339 0.99142,-1.78456 9.02197,-16.25938 9.61683,-17.44909 0.59485,-1.18971 8.32797,-12.98767 7.43569,-15.06967 -0.89229,-2.08199 -1.58628,-2.37942 -2.28028,-2.67685 -0.694,-0.29742 -2.28028,-0.49571 -1.388,-1.48714 z"
       id="path58"
       inkscape:connector-curvature="0" />
    <path
       style="fill:#000000;fill-opacity:1;stroke:none;stroke-width:0.26458332px;stroke-linecap:butt;stroke-linejoin:miter;stroke-opacity:1"
       d="m 81.974852,232.2923 c 0,0 1.18971,-0.79313 1.88371,0.89229 0.694,1.68542 1.68542,2.87513 2.97428,3.66827 1.28885,0.79315 11.20311,8.92284 15.367098,10.7074 4.16398,1.78457 7.43569,3.27171 10.11254,3.86656 2.67685,0.59486 4.06484,0.29743 5.94855,1.58628 1.88371,1.28886 6.74169,3.9657 6.84084,5.45284 0.0991,1.48714 -10.40997,2.28028 -11.50054,2.47857 -1.09057,0.19828 -3.17256,-1.09057 -6.54341,-4.16399 -3.37085,-3.07342 -9.715968,-9.22026 -13.185958,-12.39282 -3.46999,-3.17256 -8.42711,-7.03912 -9.12111,-7.03912 -0.694,0 -1.68543,0.694 -2.18114,-0.19829 -0.49572,-0.89228 -1.19782,-1.55182 -1.28881,-2.47857 -0.0807,-0.82223 0.69395,-2.37942 0.69395,-2.37942 z"
       id="path60"
       inkscape:connector-curvature="0"
       sodipodi:nodetypes="csccccccssscac" />
    <path
       style="fill:#000000;fill-opacity:1;stroke:none;stroke-width:0.26458332px;stroke-linecap:butt;stroke-linejoin:miter;stroke-opacity:1"
       d="m 64.426621,258.66422 c 0,0 3.668281,-0.29737 5.353701,0.59486 1.68542,0.89228 1.48714,1.88371 2.47856,3.86656 0.99143,1.98285 4.06485,9.51769 4.56056,10.0134 0.49571,0.49571 1.58628,7.03912 1.48714,8.03055 -0.0991,0.99142 -2.47856,-1.18971 -3.17256,-2.28028 -0.694,-1.09057 1.29629,-1.17484 -6.64255,-12.78939 -3.640368,-5.32586 -5.056277,-7.23741 -4.064851,-7.4357 z"
       id="path64"
       inkscape:connector-curvature="0"
       sodipodi:nodetypes="cccscssc" />
    <path
       style="fill:#000000;fill-opacity:1;stroke:none;stroke-width:0.26458332px;stroke-linecap:butt;stroke-linejoin:miter;stroke-opacity:1"
       d="m 77.315152,260.34965 c 0,0 0.694,-0.99142 2.082,-1.18971 1.38799,-0.19828 8.6254,-2.37942 9.22026,-2.97428 0.59485,-0.59485 4.06484,-1.78456 5.45284,-4.16398 1.38799,-2.37943 1.68542,-1.68543 2.67685,-1.388 0.99142,0.29743 3.370838,-0.49572 4.659688,0 1.28886,0.49571 4.16399,1.78457 3.07343,3.56913 -1.09057,1.78457 -5.353698,2.082 -6.543408,6.24598 -1.18971,4.16399 -2.57771,8.1297 -2.776,10.21169 -0.19828,2.08199 -0.99142,4.75884 -1.88371,3.86656 -0.89228,-0.89229 -1.78456,-2.67685 -1.8837,-4.16399 -0.0991,-1.48714 -0.19829,-7.4357 -0.19829,-8.52626 0,-1.09057 0,-2.37942 0,-2.37942 0,0 -0.79314,-0.39657 -1.78457,0.0991 -0.99142,0.49571 -9.81511,2.28028 -10.50911,1.98285 -0.69399,-0.29743 -2.28027,-0.39657 -1.58628,-1.18971 z"
       id="path66"
       inkscape:connector-curvature="0"
       sodipodi:nodetypes="ccsccccscccsccccc" />
    <path
       style="fill:#000000;fill-opacity:1;stroke:none;stroke-width:0.26458332px;stroke-linecap:butt;stroke-linejoin:miter;stroke-opacity:1"
       d="m 74.935732,274.4279 c 0,0 0.59486,1.28885 0.59486,2.77599 0,1.48713 0.99142,2.77599 1.48714,3.07342 0.49571,0.29742 2.67684,-2.97428 3.17256,-2.97428 0.49571,0 13.58253,-2.18114 14.57395,-2.67685 0.99143,-0.49571 1.78457,-2.87513 0.89229,-3.2717 -0.89229,-0.39658 -3.66828,-1.68543 -4.95713,-0.89229 -1.28886,0.79314 -2.37942,1.58628 -6.24598,2.082 -3.86656,0.49571 -8.42712,0.49571 -8.42712,0.49571 0,0 -1.388,-0.39657 -1.09057,1.388 z"
       id="path68"
       inkscape:connector-curvature="0" />
  </g>
</svg>
