<?xml version="1.0" encoding="UTF-8" standalone="no"?>
<!-- Created with Inkscape (http://www.inkscape.org/) -->

<svg
   xmlns:dc="http://purl.org/dc/elements/1.1/"
   xmlns:cc="http://creativecommons.org/ns#"
   xmlns:rdf="http://www.w3.org/1999/02/22-rdf-syntax-ns#"
   xmlns:svg="http://www.w3.org/2000/svg"
   xmlns="http://www.w3.org/2000/svg"
   xmlns:sodipodi="http://sodipodi.sourceforge.net/DTD/sodipodi-0.dtd"
   xmlns:inkscape="http://www.inkscape.org/namespaces/inkscape"
   width="512"
   height="512"
   viewBox="0 0 135.46666 135.46667"
   version="1.1"
   id="svg8"
   inkscape:version="0.92.4 (5da689c313, 2019-01-14)"
   sodipodi:docname="U+9E97.svg">
  <defs
     id="defs2" />
  <sodipodi:namedview
     id="base"
     pagecolor="#ffffff"
     bordercolor="#666666"
     borderopacity="1.0"
     inkscape:pageopacity="0.0"
     inkscape:pageshadow="2"
     inkscape:zoom="1.6183779"
     inkscape:cx="370.22739"
     inkscape:cy="181.79075"
     inkscape:document-units="px"
     inkscape:current-layer="layer2"
     showgrid="false"
     inkscape:window-width="1920"
     inkscape:window-height="1017"
     inkscape:window-x="-8"
     inkscape:window-y="-8"
     inkscape:window-maximized="1"
     units="px" />
  <metadata
     id="metadata5">
    <rdf:RDF>
      <cc:Work
         rdf:about="">
        <dc:format>image/svg+xml</dc:format>
        <dc:type
           rdf:resource="http://purl.org/dc/dcmitype/StillImage" />
        <dc:title></dc:title>
      </cc:Work>
    </rdf:RDF>
  </metadata>
  <g
     inkscape:groupmode="layer"
     id="layer2"
     inkscape:label="圖層 2"
     transform="translate(0,-161.53331)">
    <path
       style="fill:#000000;fill-opacity:1;stroke:none;stroke-width:0.26458332px;stroke-linecap:butt;stroke-linejoin:miter;stroke-opacity:1"
       d="m 44.240503,183.31347 c 0,0 -0.973926,-1.21741 0.405802,-1.37973 1.379731,-0.16232 13.229167,-3.00294 13.959613,-3.00294 0.730443,0 10.71319,-3.16526 10.71319,-3.97686 0,-0.81161 0.32464,-1.13625 1.29857,-0.73045 0.97392,0.4058 5.35659,1.54205 4.22034,2.35366 -1.13624,0.8116 -10.063901,1.54205 -11.200149,1.78553 -1.136248,0.24348 -10.388547,2.35365 -13.066844,3.81454 -2.678298,1.4609 -3.814546,2.75946 -4.788472,2.75946 -0.973926,0 -1.623211,-1.46088 -1.54205,-1.62321 z"
       id="path22"
       inkscape:connector-curvature="0" />
    <path
       style="fill:#000000;fill-opacity:1;stroke:none;stroke-width:0.26458332px;stroke-linecap:butt;stroke-linejoin:miter;stroke-opacity:1"
       d="m 46.350677,190.21212 c 0,0 0.486963,-0.8116 1.136248,-0.4058 0.649285,0.4058 1.623211,2.11017 2.191335,2.27249 0.568123,0.16232 0.486962,0.97393 0.486962,2.92178 0,1.94785 0,12.57988 -0.162321,14.04077 -0.162322,1.46089 0.649284,3.65223 -0.324641,2.6783 -0.973926,-0.97393 -2.515979,-2.75946 -2.434818,-4.54499 0.08116,-1.78553 0.568124,-1.13625 0.892768,-2.92178 0.324641,-1.78553 0.892765,-4.13919 0.486963,-5.27543 -0.405805,-1.13625 -0.973926,-5.27544 -1.54205,-5.7624 -0.568124,-0.48696 -0.730446,-3.00294 -0.730446,-3.00294 z"
       id="path24"
       inkscape:connector-curvature="0" />
    <path
       style="fill:#000000;fill-opacity:1;stroke:none;stroke-width:0.26458332px;stroke-linecap:butt;stroke-linejoin:miter;stroke-opacity:1"
       d="m 51.626111,190.94256 c 0,0 12.498721,-5.76239 13.797291,-5.76239 1.29857,0 2.840616,-1.13625 4.058026,-0.16232 1.21741,0.97392 2.51598,1.13624 2.59714,2.27249 0.0812,1.13625 -1.78553,6.49284 -2.02902,8.19721 -0.24348,1.70438 -1.54205,10.55087 -1.37972,11.5248 0.16232,0.97392 -1.05509,2.02901 -1.05509,2.02901 0,0 -0.48696,-0.97392 -0.32465,-2.84062 0.16233,-1.86669 1.13625,-6.9798 1.13625,-7.87257 0,-0.89276 1.54205,-9.82042 0.16232,-10.71319 -1.37972,-0.89276 -3.408739,-0.97392 -4.544984,-0.73044 -1.136248,0.24348 -12.336402,3.57106 -12.417563,4.05802 z"
       id="path26"
       inkscape:connector-curvature="0" />
    <path
       style="fill:#000000;fill-opacity:1;stroke:none;stroke-width:0.26458332px;stroke-linecap:butt;stroke-linejoin:miter;stroke-opacity:1"
       d="m 55.359496,179.90473 c 0,0 1.866691,1.37973 2.515976,2.35365 0.649285,0.97393 3.408743,3.48991 3.084099,4.86964 -0.324641,1.37973 -4.788471,11.03783 -5.600075,11.9306 -0.811604,0.89276 3.161764,-11.19899 2.35016,-12.33523 -0.811607,-1.13625 -1.863197,-6.3317 -2.35016,-6.81866 z"
       id="path28"
       inkscape:connector-curvature="0"
       sodipodi:nodetypes="cccccc" />
    <path
       style="fill:#000000;fill-opacity:1;stroke:none;stroke-width:0.26458332px;stroke-linecap:butt;stroke-linejoin:miter;stroke-opacity:1"
       d="m 59.904485,195.97452 c 0,0 4.70731,3.00294 4.950793,4.22034 0.243483,1.21741 0.324641,2.59714 -0.568124,2.2725 -0.892765,-0.32464 -4.058026,-2.51598 -4.382669,-6.49284 z"
       id="path30"
       inkscape:connector-curvature="0" />
    <path
       style="fill:#000000;fill-opacity:1;stroke:none;stroke-width:0.26458332px;stroke-linecap:butt;stroke-linejoin:miter;stroke-opacity:1"
       d="m 86.493488,176.38621 c 0,0 -0.0995,-1.59225 2.08982,-1.69176 2.18934,-0.0995 6.96607,-0.49758 7.66268,-1.09467 0.6966,-0.59709 1.29369,-0.69661 2.68691,-0.39806 1.393212,0.29855 3.881092,1.99031 0.79612,2.38837 -3.08497,0.39806 -8.55831,0.6966 -9.65298,1.09466 -1.09467,0.39806 -3.08497,0.89564 -3.58255,-0.29854 z"
       id="path32"
       inkscape:connector-curvature="0" />
    <path
       style="fill:#000000;fill-opacity:1;stroke:none;stroke-width:0.26458332px;stroke-linecap:butt;stroke-linejoin:miter;stroke-opacity:1"
       d="m 76.940028,187.53192 c 0,0 1.09467,-0.29855 1.59224,0.39806 0.49758,0.69661 1.09467,1.69176 1.99031,2.78642 0.89563,1.09467 1.9903,0.69661 1.59224,2.98546 -0.39806,2.28885 0.0995,7.56316 0.0995,8.25977 0,0.69661 0.29854,4.67721 -0.19903,6.16994 -0.49758,1.49273 -1.19419,0.69661 -1.69176,-0.99515 -0.49758,-1.69176 0.59709,-9.35443 -0.0995,-10.84716 -0.6966,-1.49273 -1.9903,-5.97092 -2.58739,-6.36898 -0.5971,-0.39806 -1.49273,-2.38836 -0.69661,-2.38836 z"
       id="path36"
       inkscape:connector-curvature="0" />
    <path
       style="fill:#000000;fill-opacity:1;stroke:none;stroke-width:0.26458332px;stroke-linecap:butt;stroke-linejoin:miter;stroke-opacity:1"
       d="m 83.308998,186.53677 c 0,0 -0.29854,0.59709 0.99516,1.39321 1.2937,0.79612 7.66267,0.0995 9.25492,-0.69661 1.59224,-0.79612 4.08012,-2.68691 5.57285,-2.38836 1.492732,0.29854 2.487882,0.0995 2.487882,2.08982 0,1.9903 0.79612,8.75734 -0.0995,10.15055 -0.89564,1.39321 -2.487892,2.68691 -2.089822,3.78158 0.39806,1.09467 -0.29855,2.18934 0.895632,4.37867 1.19419,2.18934 1.79128,1.79128 1.79128,1.79128 0,0 1.09466,-1.19419 0.59709,-4.37867 -0.49758,-3.18449 0.39806,-6.16995 0.99515,-8.35928 0.59709,-2.18934 1.89079,-7.96122 1.09467,-9.05589 -0.79612,-1.09467 -5.572862,-1.19419 -10.349592,-0.59709 -4.77673,0.59709 -10.94667,0.99515 -11.14571,1.89079 z"
       id="path38"
       inkscape:connector-curvature="0" />
    <path
       style="fill:#000000;fill-opacity:1;stroke:none;stroke-width:0.26458332px;stroke-linecap:butt;stroke-linejoin:miter;stroke-opacity:1"
       d="m 89.080888,181.76003 c 0,0 2.68691,3.98061 3.58255,4.08013 0.89564,0.0995 0.29855,2.18933 -0.29855,3.48303 -0.59709,1.2937 -2.98546,6.66752 -3.68206,6.96607 -0.69661,0.29854 -2.18934,1.19418 -2.18934,1.19418 0,0 2.98546,-1.39321 2.68691,-5.57285 -0.29854,-4.17964 -1.29369,-10.4491 -0.0995,-10.15056 z"
       id="path40"
       inkscape:connector-curvature="0" />
    <path
       style="fill:#000000;fill-opacity:1;stroke:none;stroke-width:0.26458332px;stroke-linecap:butt;stroke-linejoin:miter;stroke-opacity:1"
       d="m 90.275068,191.71156 c 0,0 5.57286,2.5874 5.97092,4.47818 0.39806,1.89079 0.59709,3.58255 -0.59709,2.78643 -1.19419,-0.79612 -2.38837,-3.68206 -3.68207,-4.5777 -1.2937,-0.89564 -0.99515,-2.08982 -1.69176,-2.68691 z"
       id="path42"
       inkscape:connector-curvature="0" />
    <path
       style="fill:#000000;fill-opacity:1;stroke:none;stroke-width:0.26458332px;stroke-linecap:butt;stroke-linejoin:miter;stroke-opacity:1"
       d="m 66.092866,207.634 c 0,0 3.881092,0.29854 3.881092,0.69661 0,0.39806 1.09467,2.78642 0.29855,3.78157 -0.79612,0.99516 -1.69176,3.38352 -1.79128,1.19419 -0.0995,-2.18934 -1.2937,-5.97092 -2.388362,-5.67237 z"
       id="path44"
       inkscape:connector-curvature="0" />
    <path
       style="fill:#000000;fill-opacity:1;stroke:none;stroke-width:0.26458332px;stroke-linecap:butt;stroke-linejoin:miter;stroke-opacity:1"
       d="m 57.435038,218.28213 c 0,0 5.771886,-4.67722 15.0268,-6.86655 9.25492,-2.18934 9.05589,-3.48304 12.73796,-3.48304 3.68206,0 3.38351,-1.89079 4.37866,-1.79127 0.99516,0.0995 2.78643,0.99515 3.18449,1.9903 0.39807,0.99516 4.37867,2.38837 -0.39806,2.38837 -4.77673,0 -18.70886,2.18933 -23.78414,3.48303 -5.075279,1.2937 -10.747649,3.78158 -11.14571,4.27916 z"
       id="path46"
       inkscape:connector-curvature="0" />
    <path
       style="fill:#000000;fill-opacity:1;stroke:none;stroke-width:0.26458332px;stroke-linecap:butt;stroke-linejoin:miter;stroke-opacity:1"
       d="m 53.65346,217.98358 c 0,0 2.885943,0.19903 3.383518,3.08498 0.497576,2.88594 1.293697,3.38351 -0.597097,8.06073 -1.890789,4.67721 -4.876248,11.04619 -4.5777,14.13117 0.298545,3.08497 0.995151,6.26946 0.09951,7.66267 -0.895638,1.39321 -19.30596,28.16282 -23.684629,30.94924 -4.378672,2.78643 -12.638437,6.36898 -13.63359,6.66752 l -0.995154,0.29855 c 0,0 9.752497,-7.06558 16.121473,-14.03165 6.368975,-6.96607 17.116621,-19.90304 17.813229,-22.58996 0.696606,-2.68691 3.284002,-11.24522 4.776731,-14.52923 1.492729,-3.284 4.478187,-11.04619 3.781579,-13.13601 -0.696606,-2.08982 -3.881094,-4.67722 -2.48788,-6.56801 z"
       id="path48"
       inkscape:connector-curvature="0"
       sodipodi:nodetypes="csssccccsscscc" />
    <path
       style="fill:#000000;fill-opacity:1;stroke:none;stroke-width:0.26458332px;stroke-linecap:butt;stroke-linejoin:miter;stroke-opacity:1"
       d="m 64.600138,224.55159 c 0,0 -0.895639,-1.99031 1.990304,-2.08982 2.885946,-0.0995 10.847166,-0.49758 12.538926,-1.2937 1.69175,-0.79612 10.15055,-2.08982 11.74279,-2.78643 1.59225,-0.6966 3.58255,-3.78158 5.07528,-2.48788 1.49273,1.2937 3.68207,1.59225 3.98061,3.18449 0.298552,1.59224 0.0995,2.68691 -1.79127,4.67722 -1.89079,1.9903 -4.67722,5.57285 -5.77189,6.07043 -1.09467,0.49757 -2.18933,0.0995 -0.99515,-1.79128 1.19418,-1.89079 4.27916,-7.06558 1.49273,-7.66267 -2.78643,-0.59709 -6.26946,-0.49758 -10.25007,0.89564 -3.98061,1.39321 -7.86171,0.99515 -10.25007,2.78642 -2.38837,1.79128 -3.58255,1.09467 -4.87625,0.99516 -1.293696,-0.0995 -2.985456,-0.39806 -2.88594,-0.49758 z"
       id="path50"
       inkscape:connector-curvature="0" />
    <path
       style="fill:#000000;fill-opacity:1;stroke:none;stroke-width:0.26458332px;stroke-linecap:butt;stroke-linejoin:miter;stroke-opacity:1"
       d="m 69.376868,216.09279 c 0,0 2.18934,-0.99515 2.98546,1.69176 0.79612,2.68691 0.39806,11.14571 0.29854,12.63844 -0.0995,1.49273 -1.09466,4.5777 -1.39321,2.88594 -0.29854,-1.69176 -0.526,-9.44683 -1.02358,-11.13859 -0.49757,-1.69176 -1.4643,-5.48045 -0.86721,-6.07755 z"
       id="path52"
       inkscape:connector-curvature="0"
       sodipodi:nodetypes="cscccc" />
    <path
       style="fill:#000000;fill-opacity:1;stroke:none;stroke-width:0.26458332px;stroke-linecap:butt;stroke-linejoin:miter;stroke-opacity:1"
       d="m 78.731308,210.71897 c 0,0 2.58739,2.18933 4.08012,2.88594 1.49273,0.69661 3.78158,3.28401 3.48303,4.27916 -0.29854,0.99515 -2.48788,7.26461 -2.58739,8.45879 -0.0995,1.19419 -0.99516,3.98061 -1.39322,4.47819 -0.39806,0.49758 -0.39806,-1.99031 -0.29854,-4.47819 0.0995,-2.48788 0.50469,-6.26238 -0.29143,-7.25753 -0.79613,-0.99515 -1.79839,-5.28139 -2.29597,-5.77896 -0.49757,-0.49758 -1.79127,-2.48788 -0.6966,-2.5874 z"
       id="path54"
       inkscape:connector-curvature="0"
       sodipodi:nodetypes="csccscccc" />
    <path
       style="fill:#000000;fill-opacity:1;stroke:none;stroke-width:0.26458332px;stroke-linecap:butt;stroke-linejoin:miter;stroke-opacity:1"
       d="m 62.609831,234.50311 c 0,0 -2.08982,-1.9903 2.288852,-1.9903 4.378675,0 16.320495,-2.78643 18.808385,-3.18449 2.48788,-0.39806 9.1554,-0.59709 9.1554,0.49758 0,1.09467 -0.79612,2.48788 -2.38837,2.38837 -1.59224,-0.0995 -2.98545,0.0995 -4.67721,-0.79613 -1.69176,-0.89563 -3.8811,-0.99515 -7.1651,-0.49757 -3.28401,0.49757 -10.54862,2.08982 -11.54377,2.48788 -0.995152,0.39806 -1.194184,1.89079 -1.89079,1.9903 -0.696606,0.0995 -2.089819,0 -2.587397,-0.89564 z"
       id="path56"
       inkscape:connector-curvature="0" />
    <path
       style="fill:#000000;fill-opacity:1;stroke:none;stroke-width:0.26458332px;stroke-linecap:butt;stroke-linejoin:miter;stroke-opacity:1"
       d="m 64.500622,238.08566 c 0,0 1.393212,-0.6966 2.08982,0 0.696606,0.69661 1.691756,2.68692 2.288846,2.98546 0.5971,0.29855 2.5874,0.89564 1.69176,2.38837 -0.89563,1.49273 -5.871395,8.95637 -6.767034,9.65298 -0.895635,0.6966 -1.592244,1.49273 0.398061,1.19418 1.990307,-0.29855 5.174793,-0.39806 5.672373,-0.69661 0.49757,-0.29854 3.98061,-4.27915 4.77673,-4.67721 0.79612,-0.39806 0.99515,-0.69661 0.99515,-0.69661 0,0 -6.16994,7.56316 -7.56316,8.16025 -1.393211,0.59709 -7.463642,2.48788 -8.060732,1.79127 -0.597093,-0.6966 -3.582551,-4.67721 -1.791274,-4.5777 1.791274,0.0995 1.990304,1.09467 2.985455,0.29855 0.995153,-0.79612 4.279156,-2.18934 4.378671,-4.27916 0.09952,-2.08982 -1.791274,-9.45395 -1.094666,-11.54377 z"
       id="path60"
       inkscape:connector-curvature="0" />
    <path
       style="fill:#000000;fill-opacity:1;stroke:none;stroke-width:0.26458332px;stroke-linecap:butt;stroke-linejoin:miter;stroke-opacity:1"
       d="m 74.949718,244.95222 c 0,0 3.18449,3.38351 4.17965,3.78158 0.99515,0.39806 1.89078,2.58739 1.09466,4.37867 -0.79612,1.79127 -2.6087,4.45687 -3.30531,2.06851 -0.69661,-2.38837 -1.17287,-10.02973 -1.969,-10.22876 z"
       id="path62"
       inkscape:connector-curvature="0"
       sodipodi:nodetypes="ccccc" />
    <path
       style="fill:#000000;fill-opacity:1;stroke:none;stroke-width:0.26458332px;stroke-linecap:butt;stroke-linejoin:miter;stroke-opacity:1"
       d="m 86.991068,235.6973 c 0,0 2.98546,0.39806 3.48303,1.69176 0.49758,1.2937 -0.89564,5.07527 -1.69176,6.568 -0.79612,1.49273 -1.9903,4.27916 -0.99515,4.47819 0.99515,0.19903 5.67237,-1.2937 6.86655,-2.08982 1.19419,-0.79612 2.38837,-1.49273 2.38837,-1.49273 0,0 -2.5874,3.48303 -3.68206,4.37867 -1.09467,0.89564 -3.78159,2.68691 -4.77674,3.48304 -0.99515,0.79612 -6.26946,1.59224 -4.77673,-2.98546 1.49273,-4.5777 3.62521,-5.89983 3.82424,-6.69595 0.19903,-0.79612 0.15637,-6.34055 -0.63975,-7.3357 z"
       id="path64"
       inkscape:connector-curvature="0"
       sodipodi:nodetypes="ccssccccssc" />
    <path
       style="display:inline;fill:#000000;fill-opacity:1;stroke:none;stroke-width:0.26458332px;stroke-linecap:butt;stroke-linejoin:miter;stroke-opacity:1"
       d="m 97.141618,238.88179 c 0,0 10.747652,4.77673 12.737962,7.06558 1.9903,2.28885 4.47818,5.27431 4.5777,6.26946 0.0995,0.99515 0.89564,5.47334 -0.59709,5.17479 -1.49273,-0.29854 -4.37867,-5.07528 -5.67237,-6.46849 -1.2937,-1.39321 -8.956382,-10.94668 -11.046202,-12.04134 z"
       id="path66"
       inkscape:connector-curvature="0" />
  </g>
</svg>
