<?xml version="1.0" encoding="UTF-8" standalone="no"?>
<!-- Created with Inkscape (http://www.inkscape.org/) -->

<svg
   xmlns:dc="http://purl.org/dc/elements/1.1/"
   xmlns:cc="http://creativecommons.org/ns#"
   xmlns:rdf="http://www.w3.org/1999/02/22-rdf-syntax-ns#"
   xmlns:svg="http://www.w3.org/2000/svg"
   xmlns="http://www.w3.org/2000/svg"
   xmlns:sodipodi="http://sodipodi.sourceforge.net/DTD/sodipodi-0.dtd"
   xmlns:inkscape="http://www.inkscape.org/namespaces/inkscape"
   width="210mm"
   height="297mm"
   viewBox="0 0 210 297"
   version="1.1"
   id="svg8"
   inkscape:version="0.92.4 (5da689c313, 2019-01-14)"
   sodipodi:docname="U+81F4.svg">
  <defs
     id="defs2" />
  <sodipodi:namedview
     id="base"
     pagecolor="#ffffff"
     bordercolor="#666666"
     borderopacity="1.0"
     inkscape:pageopacity="0.0"
     inkscape:pageshadow="2"
     inkscape:zoom="0.82"
     inkscape:cx="328.599"
     inkscape:cy="592.72323"
     inkscape:document-units="mm"
     inkscape:current-layer="layer2"
     showgrid="false"
     inkscape:window-width="1920"
     inkscape:window-height="1051"
     inkscape:window-x="-9"
     inkscape:window-y="-9"
     inkscape:window-maximized="1" />
  <metadata
     id="metadata5">
    <rdf:RDF>
      <cc:Work
         rdf:about="">
        <dc:format>image/svg+xml</dc:format>
        <dc:type
           rdf:resource="http://purl.org/dc/dcmitype/StillImage" />
        <dc:title></dc:title>
      </cc:Work>
    </rdf:RDF>
  </metadata>
  <g
     inkscape:groupmode="layer"
     id="layer2"
     inkscape:label="圖層 2"
     style="display:inline">
    <path
       style="fill:#000000;stroke:none;stroke-width:0.26458332px;stroke-linecap:butt;stroke-linejoin:miter;stroke-opacity:1;fill-opacity:1"
       d="m 52.129582,106.7287 c 0,0 4.012291,0.54362 6.401307,0.14545 2.389015,-0.39817 2.964091,-1.51654 4.379862,-2.38902 3.326573,-2.05002 9.640308,-6.669522 9.640308,-6.669522 0,0 0.313925,-0.85754 1.309349,-2.6493 0.995423,-1.791761 6.171625,-0.834493 6.171625,-0.834493 0,0 0.398169,5.972545 -1.791763,8.560635 -2.18993,2.58811 -10.01543,8.30792 -11.010853,10.09968 -0.995424,1.79177 -0.907209,3.95456 -2.526902,4.23442 -2.329638,0.40253 -2.879362,-4.31866 -5.467463,-4.51775 -2.588099,-0.19908 -8.299979,-4.5865 -7.10547,-5.9801 z"
       id="path21"
       inkscape:connector-curvature="0"
       sodipodi:nodetypes="csscscccscc" />
    <path
       style="fill:#000000;stroke:none;stroke-width:0.26458332px;stroke-linecap:butt;stroke-linejoin:miter;stroke-opacity:1;fill-opacity:1"
       d="m 57.995228,111.64495 5.167893,-2.64137 c 0,0 0.574209,-0.45937 1.148421,-0.68905 0.57421,-0.22969 0.803895,-1.14842 2.411683,0.80389 1.607788,1.95232 2.171486,2.38576 1.952315,3.78979 -0.442536,2.83493 -4.099882,4.01648 -6.086628,6.08663 -1.048442,1.09246 -2.011592,0.98696 -3.33042,4.59367 -0.464794,1.27112 -0.209331,5.61164 0.229684,4.93821 0.581063,-0.89133 2.838608,-0.90111 4.249156,-1.3781 2.729649,-0.92305 8.153785,-2.87105 8.153785,-2.87105 h 9.991256 c 0,0 -8.245876,3.41067 -12.173256,5.51242 -3.380885,1.80929 -6.882022,3.5544 -9.761572,6.08662 -1.225704,1.07786 -3.674945,1.26327 -3.100736,3.7898 0.574209,2.52652 -8.383469,0.11483 -8.383469,0.11483 0,0 -4.019472,-2.06715 -4.134315,-2.52652 -0.114839,-0.45937 0.574212,-4.70852 0.574212,-4.70852 0,0 4.249154,-1.26326 5.742103,-1.60779 1.492945,-0.34452 2.135643,-2.50402 2.985892,-3.90464 2.106131,-3.46942 4.649463,-6.99942 5.167891,-11.02483 0.188936,-1.46702 0.803893,-2.52652 -0.803895,-4.36399 z"
       id="path27"
       inkscape:connector-curvature="0"
       sodipodi:nodetypes="ccccasssaccaasccccaac" />
    <path
       style="fill:#000000;stroke:none;stroke-width:0.26458332px;stroke-linecap:butt;stroke-linejoin:miter;stroke-opacity:1;fill-opacity:1"
       d="m 68.67554,118.0761 c 0,0 4.363997,2.182 5.512416,3.33042 1.148421,1.14842 3.215577,4.59368 6.545996,6.546 3.330421,1.95231 5.627261,2.87105 5.627261,2.18199 0,-0.68905 -0.689051,-5.85694 -1.033578,-6.77568 -0.344527,-0.91873 -4.249156,-3.44526 -5.971787,-4.01947 -1.72263,-0.57421 -4.47884,-2.06715 -10.680308,-1.26326 z"
       id="path29"
       inkscape:connector-curvature="0"
       sodipodi:nodetypes="cscscsc" />
    <path
       style="fill:#000000;stroke:none;stroke-width:0.26458332px;stroke-linecap:butt;stroke-linejoin:miter;stroke-opacity:1;fill-opacity:1"
       d="m 52.827339,162.63481 c 0,0 2.526524,-6.08663 3.904628,-6.20147 1.378103,-0.11484 7.9241,-0.11484 7.9241,-0.11484 0,0 1.952315,-1.14842 2.756209,-0.11484 0.803895,1.03357 2.067158,1.03357 0.45937,2.41168 -1.607791,1.3781 -2.526527,1.72263 -3.445261,1.72263 -0.918737,0 -4.478841,-0.68905 -6.545997,0 -2.067157,0.68906 -5.053049,2.29684 -5.053049,2.29684 z"
       id="path35"
       inkscape:connector-curvature="0"
       sodipodi:nodetypes="cscccscc" />
    <path
       style="display:inline;fill:#000000;stroke:none;stroke-width:0.26458332px;stroke-linecap:butt;stroke-linejoin:miter;stroke-opacity:1;fill-opacity:1"
       d="m 52.597654,138.97736 c 0,0 1.607787,-0.68906 5.62726,2.98588 4.019471,3.67495 5.971786,4.13432 6.201471,7.23505 0.229682,3.10074 -0.689054,21.93483 -0.918738,23.31293 -0.229683,1.37811 -10.355158,1.13127 -10.795151,1.26326 0,0 0.114843,1.37812 2.411683,2.41169 2.29684,1.03358 7.9241,0.22969 7.34989,1.83747 -0.574212,1.60779 0.229685,3.62991 -3.100734,5.92675 -3.330422,2.29684 -2.75621,0.73409 -2.75621,3.37546 0,2.64137 0.114843,4.82336 0.114843,4.82336 0,0 0.459366,2.18201 1.148421,2.52653 0.689052,0.34453 3.215575,-3.67495 4.938205,-5.97179 1.722631,-2.29684 1.033579,-1.83747 4.249155,-6.20147 3.215579,-4.36399 9.761575,-12.28809 11.139678,-13.20683 1.378106,-0.91874 0.918737,-3.21557 0.918737,-3.21557 l -2.067157,-2.29685 c 0,0 -1.148418,3.33042 -3.789785,5.85695 -2.641367,2.52652 -4.019474,4.24915 -4.019474,4.24915 0,0 -0.803893,1.03358 -0.574208,-3.10073 0.229682,-4.13432 0.459367,-11.94358 0.459367,-11.94358 0,0 0.114843,-2.52652 0.574209,-4.47883 0.45937,-1.95232 1.378107,-11.48421 1e-6,-12.40294 -1.378104,-0.91874 -3.100734,-0.45937 -6.316313,-0.8039 -3.215576,-0.34452 -7.809259,-3.56009 -10.79515,-2.18199 z"
       id="path37"
       inkscape:connector-curvature="0"
       sodipodi:nodetypes="ccccscsssccsccccccscsccc" />
    <path
       style="fill:#000000;stroke:none;stroke-width:0.26458332px;stroke-linecap:butt;stroke-linejoin:miter;stroke-opacity:1;fill-opacity:1"
       d="m 105.42499,88.67654 c 0,0 0.45937,2.181997 1.37811,3.445258 0.91873,1.263264 2.28194,1.460541 2.75621,2.641367 0.99963,2.488864 -0.34453,8.038945 -0.34453,8.038945 0,0 -1.72263,24.57619 -1.72263,26.98788 0,2.41168 -0.45937,10.79515 -0.45937,10.79515 l 1.03358,3.78979 1.3781,-3.90463 c 0,0 -0.34373,-12.12345 0.22969,-18.14504 0.74103,-7.78165 1.95231,-20.09736 4.13431,-23.083254 2.182,-2.985892 1.49295,-7.120208 0.91874,-7.809259 -0.57421,-0.689052 -4.47884,-3.100734 -4.47884,-3.100734 0,0 -2.64137,-0.344528 -4.82337,0.344527 z"
       id="path40"
       inkscape:connector-curvature="0"
       sodipodi:nodetypes="ccacscccasscc" />
    <path
       style="display:inline;fill:#000000;stroke:none;stroke-width:0.26458332px;stroke-linecap:butt;stroke-linejoin:miter;stroke-opacity:1;fill-opacity:1"
       d="m 108.41088,119.91357 c 0,0 0.34453,0 2.75621,0.68905 2.41169,0.68906 4.47884,-0.80389 5.1679,-1.14842 0.68905,-0.34452 2.29684,-1.60778 2.75621,-2.18199 0.45936,-0.57421 1.83747,-2.182 1.83747,-2.182 0,0 1.72263,1.14841 1.72263,1.72262 0,0.57421 0.22968,4.24916 -0.91874,5.1679 -1.14842,0.91874 -2.9859,0.34453 -3.44527,0.68906 -0.45936,0.34452 -6.20146,1.95231 -7.80925,2.29683 -1.60778,0.34453 -4.01948,-2.98589 -4.24916,-4.01947 -0.22969,-1.03358 2.182,-1.03358 2.182,-1.03358 z"
       id="path42"
       inkscape:connector-curvature="0"
       sodipodi:nodetypes="cccccsscccc" />
    <path
       style="display:inline;fill:#000000;stroke:none;stroke-width:0.26458332px;stroke-linecap:butt;stroke-linejoin:miter;stroke-opacity:1;fill-opacity:1"
       d="m 105.08047,137.71409 c 0,0 2.06715,3.33042 -0.22969,5.39758 -2.29684,2.06715 -5.971785,3.21557 -6.20147,3.78978 -0.229682,0.57421 -0.918734,4.364 -0.229682,4.59368 0.689051,0.22969 4.823362,0.45937 5.282732,-0.11484 0.45937,-0.57421 1.5582,-3.08958 2.87106,-4.13431 2.25829,-1.79708 5.24126,-2.50678 8.03893,-3.21558 1.60641,-0.40699 4.93821,-0.57421 4.93821,-0.57421 0,0 -2.29684,-2.64137 -3.21558,-2.75621 -0.91873,-0.11484 -4.24915,-0.22968 -4.24915,-0.22968 0,0 -2.29684,0.45937 -7.00536,-2.75621 z"
       id="path55"
       inkscape:connector-curvature="0"
       sodipodi:nodetypes="ccccsaacccc" />
    <path
       style="fill:#000000;stroke:none;stroke-width:0.26458332px;stroke-linecap:butt;stroke-linejoin:miter;stroke-opacity:1;fill-opacity:1"
       d="m 120.92867,141.38903 c 0,0 4.24915,2.9859 4.93821,4.70853 0.68905,1.72263 0.80389,2.64136 -0.34453,3.21557 -1.14842,0.57422 -2.29684,5.1679 -2.9859,7.12021 -0.68905,1.95232 -0.91873,5.51242 -5.85694,11.25452 -4.93821,5.74211 -8.44359,7.71776 -12.74747,11.48421 -3.02463,2.64694 0.45937,-0.34453 -9.187358,7.80925 -9.646732,8.15379 -7.235047,9.41705 -9.417048,9.30221 -2.181997,-0.11484 -2.181998,-0.91874 -3.330419,-1.26327 -1.148419,-0.34452 -2.181997,-3.5601 -2.181997,-3.5601 l -0.114844,-3.33042 c 0,0 4.363999,0 6.660839,-0.45936 2.29684,-0.45937 2.985892,0.11484 4.134313,-0.45937 1.148422,-0.57421 15.090524,-9.67472 20.786404,-16.42242 3.03878,-3.59993 5.51242,-5.85694 6.77569,-12.40294 1.26326,-6.546 1.49294,-11.94357 1.49294,-11.94357 0,0 -0.22968,-6.31631 1.37811,-5.05305 z"
       id="path58"
       inkscape:connector-curvature="0"
       sodipodi:nodetypes="ccccsassccccsaccc" />
    <path
       style="fill:#000000;stroke:none;stroke-width:0.26458332px;stroke-linecap:butt;stroke-linejoin:miter;stroke-opacity:1;fill-opacity:1"
       d="m 103.8172,166.53944 c 0,0 4.82337,0.11484 7.57958,0.91874 2.75621,0.80389 15.50367,6.66084 17.2263,7.57958 1.72264,0.91873 17.34115,7.34988 19.06378,8.4983 1.72263,1.14842 25.49493,16.19273 26.87304,17.11147 1.3781,0.91873 2.29684,1.3781 2.29684,1.3781 0,0 -7.23505,1.26326 -9.41705,1.14842 -2.182,-0.11484 -14.12557,-11.82873 -21.13094,-15.96304 -7.00536,-4.13432 -12.51777,-7.80926 -15.61851,-9.5319 -0.57421,-0.22968 -9.87642,-3.44525 -13.78104,-3.67494 -3.90463,-0.22968 -4.03582,1.05743 -5.85695,0.34453 -1.28575,-0.50332 -0.11484,-1.49295 -2.87105,-2.98589 -2.75621,-1.49295 -3.78979,-2.29684 -3.78979,-2.29684 z"
       id="path60"
       inkscape:connector-curvature="0"
       sodipodi:nodetypes="cccsccscccaccc" />
  </g>
</svg>
