<?xml version="1.0" encoding="UTF-8" standalone="no"?>
<!-- Created with Inkscape (http://www.inkscape.org/) -->

<svg
   xmlns:dc="http://purl.org/dc/elements/1.1/"
   xmlns:cc="http://creativecommons.org/ns#"
   xmlns:rdf="http://www.w3.org/1999/02/22-rdf-syntax-ns#"
   xmlns:svg="http://www.w3.org/2000/svg"
   xmlns="http://www.w3.org/2000/svg"
   xmlns:sodipodi="http://sodipodi.sourceforge.net/DTD/sodipodi-0.dtd"
   xmlns:inkscape="http://www.inkscape.org/namespaces/inkscape"
   width="210mm"
   height="297mm"
   viewBox="0 0 210 297"
   version="1.1"
   id="svg8"
   inkscape:version="0.92.4 (5da689c313, 2019-01-14)"
   sodipodi:docname="U+96E8.svg">
  <defs
     id="defs2" />
  <sodipodi:namedview
     id="base"
     pagecolor="#ffffff"
     bordercolor="#666666"
     borderopacity="1.0"
     inkscape:pageopacity="0.0"
     inkscape:pageshadow="2"
     inkscape:zoom="1.6234774"
     inkscape:cx="475.94295"
     inkscape:cy="581.78388"
     inkscape:document-units="mm"
     inkscape:current-layer="layer2"
     showgrid="false"
     inkscape:window-width="1920"
     inkscape:window-height="1051"
     inkscape:window-x="-9"
     inkscape:window-y="-9"
     inkscape:window-maximized="1" />
  <metadata
     id="metadata5">
    <rdf:RDF>
      <cc:Work
         rdf:about="">
        <dc:format>image/svg+xml</dc:format>
        <dc:type
           rdf:resource="http://purl.org/dc/dcmitype/StillImage" />
        <dc:title></dc:title>
      </cc:Work>
    </rdf:RDF>
  </metadata>
  <g
     inkscape:groupmode="layer"
     id="layer2"
     inkscape:label="圖層 2">
    <path
       style="fill:#000000;stroke:none;stroke-width:0.26458332px;stroke-linecap:butt;stroke-linejoin:miter;stroke-opacity:1;fill-opacity:1"
       d="m 84.746071,104.36566 c 0,0 3.585411,0.32594 7.496768,-0.32595 3.911356,-0.65189 11.571101,-3.09649 14.341641,-3.42244 2.77055,-0.32594 4.72623,-1.792702 4.72623,-1.792702 l 3.09649,-2.607571 c 0.6233,-0.524884 3.02477,-0.194791 4.40027,0.325946 1.59533,0.603957 3.09649,2.770544 4.07434,3.096492 0,0 0.32594,2.281625 -1.30379,3.422435 -1.62973,1.14082 -9.38472,0.88974 -13.85273,2.28163 -3.03936,0.94683 -6.6819,2.28162 -8.637576,4.07432 -1.955678,1.79271 -1.303785,4.40029 -1.303785,4.40029 0,0 -6.51893,-1.95569 -8.637581,-2.77055 -2.118651,-0.81487 -3.259465,0.6519 -4.400277,-6.6819 z"
       id="path22"
       inkscape:connector-curvature="0"
       sodipodi:nodetypes="csccsaccacccc" />
    <path
       style="fill:#000000;stroke:none;stroke-width:0.26458332px;stroke-linecap:butt;stroke-linejoin:miter;stroke-opacity:1;fill-opacity:1"
       d="m 96.317169,110.55864 9.289471,0.32595 2.60757,3.09649 c 0,0 -1.30377,4.72622 -1.30377,7.33379 0,2.60758 0.16313,12.1909 0.32594,18.41597 0.23196,8.86954 0.48891,23.95707 0.48891,23.95707 l -1.46675,2.4446 c 0,0 -0.81487,0 -1.79271,-0.81487 -0.97784,-0.81487 -1.14081,-4.8892 -1.62973,-6.35596 -0.48892,-1.46675 -3.259465,-2.28162 -3.259465,-2.28162 l -1.303788,-0.97784 3.259463,-0.16297 c 0,0 0.97784,0.32594 0.81487,-1.46676 -0.16298,-1.79271 -0.48892,-19.06787 -0.48892,-19.06787 l -0.32595,-14.0157 c 0,0 0.6519,-2.60757 -2.118653,-5.21514 -2.770543,-2.60756 -3.096488,-5.21514 -3.096488,-5.21514 z"
       id="path24"
       inkscape:connector-curvature="0"
       sodipodi:nodetypes="cccssccscccccccsc" />
    <path
       style="fill:#000000;stroke:none;stroke-width:0.26458332px;stroke-linecap:butt;stroke-linejoin:miter;stroke-opacity:1;fill-opacity:1"
       d="m 54.758999,130.76732 c 0,0 4.563251,-1.30379 7.333795,0 2.770545,1.30378 6.518929,5.21514 7.170822,7.33379 0.651894,2.11865 2.444597,15.15651 3.259463,15.97138 0.814867,0.81486 0.814867,-0.81487 0.814867,-0.81487 l 1.140811,5.21514 c 0,0 0.325949,3.91136 0.325949,5.70407 0,1.7927 -1.629733,5.54109 -2.770545,5.86703 -1.140812,0.32595 -6.03001,-6.84487 -6.03001,-6.84487 0,0 0.556888,-4.12335 0.48892,-6.19299 -0.0991,-3.01766 -0.651894,-7.49676 -1.303785,-8.96352 -0.651894,-1.46676 -2.43963,-7.57684 -4.726225,-10.75623 -1.414589,-1.96692 -5.378116,-4.8892 -5.378116,-4.8892 0,0 -0.814864,-1.46676 -0.325946,-1.62973 z"
       id="path26"
       inkscape:connector-curvature="0"
       sodipodi:nodetypes="ccscccsccacacc" />
    <path
       style="fill:#000000;stroke:none;stroke-width:0.26458332px;stroke-linecap:butt;stroke-linejoin:miter;stroke-opacity:1;fill-opacity:1"
       d="m 85.72391,125.87812 c 0,0 7.305777,-0.0227 10.919206,-0.48891 9.478974,-1.22303 18.642034,-4.2449 28.031394,-6.03002 6.86982,-1.3061 14.17866,-3.25946 20.69759,-3.42244 6.51893,-0.16297 8.96353,0.97785 8.96353,0.97785 0,0 4.8892,5.05216 5.37812,6.03001 0.48892,0.97783 0.36572,5.48383 -0.16297,8.14865 -0.66945,3.37431 -2.77055,6.51893 -3.74839,9.61543 -0.97784,3.09649 -5.69277,13.31199 -7.00785,20.37165 -0.26879,1.44294 0.32595,3.58541 -0.16297,4.40027 -0.48892,0.81487 -4.07433,4.23731 -4.8892,4.72623 -0.81486,0.48892 -2.44459,1.30378 -2.93351,0.16297 -0.48892,-1.14081 -1.30379,-6.19298 -1.95568,-6.84488 -0.6519,-0.65189 -3.42244,-2.77054 -4.07433,-3.25946 -0.65189,-0.48892 -2.11865,-2.93352 -1.79271,-3.09649 0.32595,-0.16298 5.54109,1.14081 7.49677,2.77054 1.95568,1.62974 4.2373,-5.70406 4.2373,-5.70406 l 7.17083,-22.00138 c 0,0 1.7927,-2.60757 1.30378,-7.00785 -0.48892,-4.40027 -3.25947,-4.40028 -8.14867,-3.74838 -4.88919,0.65189 -21.53016,3.03436 -32.26869,4.72622 -4.5169,0.71164 -9.06537,1.27925 -13.526772,2.28162 -4.295541,0.9651 -12.711913,3.58541 -12.711913,3.58541 0,0 -3.422436,5.05218 -7.659741,4.56326 -0.488918,-1.62974 -3.585407,-9.12651 -2.281623,-9.61543 1.303788,-0.48892 9.126499,-1.14081 9.126499,-1.14081 z"
       id="path3731"
       inkscape:connector-curvature="0"
       sodipodi:nodetypes="caacccasaccscsccccscaacccc" />
    <path
       style="fill:#000000;stroke:none;stroke-width:0.26458332px;stroke-linecap:butt;stroke-linejoin:miter;stroke-opacity:1;fill-opacity:1"
       d="m 84.746072,140.87166 c 0,0 4.400275,-3.25947 6.030008,-3.25947 1.629733,0 2.933517,-0.65189 3.259465,1.30379 0.325946,1.95568 -0.977839,1.95568 -2.118653,3.25946 -1.140812,1.30379 -1.303785,2.93352 -2.607572,2.93352 -1.303785,0 -6.19298,-1.62973 -4.563248,-4.2373 z"
       id="path3737"
       inkscape:connector-curvature="0" />
    <path
       style="fill:#000000;stroke:none;stroke-width:0.26458332px;stroke-linecap:butt;stroke-linejoin:miter;stroke-opacity:1;fill-opacity:1"
       d="m 83.279312,153.42059 c 0,0 8.474607,-2.44459 8.963528,-3.25946 0.488918,-0.81487 1.792705,-1.95568 2.118651,-0.81487 0.325945,1.14082 0.651894,2.93352 -0.488921,4.23731 -1.140812,1.30378 -4.237302,4.56325 -4.400275,5.21514 -0.162975,0.65189 -2.93352,1.14081 -4.074332,1.14081 -1.140812,0 -3.259463,-5.54109 -2.118651,-6.51893 z"
       id="path3739"
       inkscape:connector-curvature="0" />
    <path
       style="fill:#000000;stroke:none;stroke-width:0.26458332px;stroke-linecap:butt;stroke-linejoin:miter;stroke-opacity:1;fill-opacity:1"
       d="m 115.71098,135.00462 c 0,0 7.00785,-1.62973 8.80055,-0.97784 1.79271,0.65189 0.97785,2.77055 0.97785,2.77055 0,0 -3.58542,2.4446 -4.56325,2.11865 -0.97784,-0.32595 -5.86704,-2.93352 -5.21515,-3.91136 z"
       id="path3741"
       inkscape:connector-curvature="0" />
    <path
       style="fill:#000000;stroke:none;stroke-width:0.26458332px;stroke-linecap:butt;stroke-linejoin:miter;stroke-opacity:1;fill-opacity:1"
       d="m 114.4072,145.59788 c 0,0 2.11865,1.95568 3.09649,1.62973 0.97784,-0.32594 8.4746,-0.97784 9.77839,-0.32594 1.30379,0.65189 2.4446,2.28162 1.30379,2.28162 -1.14082,0 -6.51893,1.14081 -7.82272,1.62973 -1.30378,0.48892 -3.25946,2.93352 -4.8892,1.30379 -1.62973,-1.62973 -2.60757,-6.51893 -1.46675,-6.51893 z"
       id="path3743"
       inkscape:connector-curvature="0" />
  </g>
</svg>
