<?xml version="1.0" standalone="no"?>
<!DOCTYPE svg PUBLIC "-//W3C//DTD SVG 1.1//EN" "http://www.w3.org/Graphics/SVG/1.1/DTD/svg11.dtd" >
<svg xmlns="http://www.w3.org/2000/svg" xmlns:xlink="http://www.w3.org/1999/xlink" version="1.1" viewBox="0 0 256 256">
  <g transform="matrix(1 0 0 -1 0 204)">
   <path fill="currentColor"
d="M115 206q8 -1 20 -13q0 -4 -5 -5q-6 4 -9 -4q-7 -13 -15 -23q-2 -2 0 -2q2 -2 4 0l8 4q5 3 8 5q5 4 8 2q7 -5 14 -13q0 -5 -4 -6q-5 1 -6 -6q-5 -19 -3 -45q1 -9 1 -15v-8q37 4 54 4q4 8 8 7q4 0 6 -1q10 -9 21 -12q8 -3 6 -7q-1 -5 -2 -3q-10 2 -19 8q-10 5 -21 5
q-16 0 -49 -5h-3q2 -6 -1 -8q-2 -1 -5 7q-2 0 -4 -1t-3 0v-5q20 -21 50 -43q8 -6 22 -6q28 1 46 -9q2 -1 -2 -2q-16 2 -25 2h-17q-9 -2 -16 5q-36 23 -59 49q-2 -15 -2 -40q1 -24 3 -37q-1 -1 0 -5q1 -3 1 -5q0 -1 -3 -2q-4 0 -3 3l-1 2q-1 4 -6 9l-14 14q-1 2 1 0
q3 -1 12 -5q2 -1 3 -2q6 -2 6 1q-3 20 -2 63q-28 -28 -51 -35q-5 -1 -1 2q31 17 48 37q3 4 3 7q-45 -8 -77 -18q-5 -2 -6 0q-2 0 -5 1q-4 1 -5 2q-3 1 0 2q9 -1 34 6q15 3 42 9q11 1 16 3q-1 6 2 5q2 0 6 -4q2 -1 5 1q-1 1 -3 5q-2 7 -3 11h2q2 -5 4 -6t3 3v17q-1 10 -1 20
q0 5 1 10q-8 -2 -15 -10q-3 -3 0 1q1 3 1 4t-2 1q-4 -2 -10 -1q-1 -12 1 -20q0 -2 1 -6q0 -2 1 -4q-1 -8 1 -10q-1 -3 -3 -2q-6 5 -5 8q0 1 -2 4q0 -1 -1 2q-2 2 2 7q1 4 1 11v28q0 2 -1 3q-1 0 -2 -1q-4 -4 -5 -3t1 7q0 1 3 3q5 3 16 32q6 13 0 14q-4 2 1 2zM119 139
q2 2 4 2q4 0 9 -3v14q1 5 1 9q0 3 -1 4t-3 -1q-8 -5 -19 -11q-5 -3 -4 -8v-13q1 0 4 1q7 3 9 6zM177 183q8 -8 11 -15q0 -2 -3 -1q-3 0 -9 -7q-17 -20 -24 -30q-2 -2 -2 -3q1 -1 3 0q18 2 21 7q8 7 8 11q0 1 2 2q1 -2 5 -4q3 -2 7 -4q2 -1 2 -5q-1 -3 -4 -2q-9 1 -13 -2
q-14 -10 -26 -24q-2 -2 -2 -3q1 -1 3 0q9 2 20 7q-1 7 2 5q12 -2 19 -6q1 0 0 -3q-1 -4 -5 -2q-11 2 -17 1l-4 -2q-10 -4 -17 -6q-2 -2 -4 -2q-2 -1 -3 -2q-5 -2 -5 1q1 8 6 10q0 -1 3 4t11 13q1 2 -1 2q-11 -2 -19 -9q-3 2 -3 3t1 4q0 2 1 4q0 1 2 3l1 1q2 -2 25 33
q8 13 7 19q-1 3 1 2zM78 170q-1 2 1 1q4 -2 7 -6q1 -2 0 -2q-12 -16 -17 -32q-5 -13 -8 -19q-2 -3 2 -1l22 10q4 5 4 8q0 1 3 2q0 -1 1 -2q5 -4 6 -6q0 -1 -2 -2q-4 1 -8 -4q-16 -17 -20 -26q-1 -2 0 -3t3 1q6 4 10 9q1 1 2 0q-1 -6 -8 -12q-4 -4 -7 -8v-1q-3 0 -3 2
q-2 2 -1 8q-1 1 1 3q1 1 3 4q1 5 12 19q1 2 -1 2q-7 -4 -15 -10q-10 -6 -10 -4q-4 0 1 9t12 28q1 2 2 6q6 12 8 18q3 4 0 8zM117 107q3 2 9 1q1 -2 -1 -5q-6 -5 -13 -1q-2 0 0 2q3 1 5 3zM87 101q1 -3 5 -6q5 -5 5 -10q-2 -2 -4 0q-6 7 -7 15q0 2 1 1z" />
  </g>

</svg>
