<?xml version="1.0" standalone="no"?>
<!DOCTYPE svg PUBLIC "-//W3C//DTD SVG 1.1//EN" "http://www.w3.org/Graphics/SVG/1.1/DTD/svg11.dtd" >
<svg xmlns="http://www.w3.org/2000/svg" xmlns:xlink="http://www.w3.org/1999/xlink" version="1.1" viewBox="0 0 256 256">
  <g transform="matrix(1 0 0 -1 0 204)">
   <path fill="currentColor"
d="M72 194q5 -8 6 -9q1 -2 -1 -4q-10 -5 -30 -61q-2 -4 -1 -5t5 2q36 18 35 36q-1 1 0 2h3q5 -2 10 -5v-5q-9 -3 -15 -12q-15 -19 -26 -46q8 3 23 14q2 1 3 2q5 -2 7 -4v-5q-2 -2 -4 -3t-3 -2q-1 -3 -8 -5q-2 0 -1 2q3 3 5 8q1 3 -1 1q-9 -8 -14 -11q-3 -2 -6 -5
q-2 -3 -3 -3t-1 3q-5 3 -1 5q1 13 14 37q-5 -4 -8 -6q-5 -5 -8 -6q-6 -3 -8 -7q-2 -3 -4 -3q-1 0 -2 3q-3 7 -1 8q3 2 4 6q9 32 25 66q1 3 3 12q0 2 3 0zM166 117q10 -3 14 -8q1 -2 0 -4q-2 -1 -3 -8v-1q-1 -4 0 -14t1 -13q5 -69 -2 -87q-1 -4 -7 -5q-36 1 -53 9q-3 3 1 2
q17 -1 25 -2h19q11 2 13 11q4 17 -1 69q0 5 -2 18q-1 4 -1 8q-1 20 -5 23q-2 2 1 2zM151 99q4 -1 12 -4q1 -2 0 -4q-4 0 -18 -16q7 3 11 6q1 1 3 0q7 -6 1 -9q-4 -2 -6 -2l-9 -3q-5 -3 -12 -3q-5 -1 -5 2q-3 4 5 7l1 1q4 2 11 12q0 3 -2 2t-3 -2q-3 -2 -8 -3q-3 -1 -9 -4
q-3 -1 -4 -1q-2 -1 -3 0q8 9 31 16q2 6 4 5zM111 85q-2 -16 19 -24q2 -1 2 -5q-1 -1 -1 -2h-1q-7 2 -17 10q-3 3 -1 5q-7 11 -3 17q0 1 2 -1zM91 59q13 -9 16 -15q2 -4 1 -6q-3 -3 -3 -1q-7 1 -15 21q-1 2 1 1zM65 46q2 0 3 -2h2q1 -2 3 -5q2 -4 4 -5q0 -2 -1 -5q-3 -3 -5 0
q-2 1 -7 11v3q-1 1 -1 2t2 1zM41 34q2 1 2 -1q-2 -8 3 -13q2 0 1 -3q-2 -7 -6 -4q-8 11 -4 22q0 3 4 -1zM153 125q17 3 29 6q15 2 18 3q1 3 5 4q-1 0 1 1q4 1 6 -1q10 -5 16 -6v-1q3 0 2 -4q0 -4 -2 -2q-29 6 -39 1q-7 -2 -11 -2q-5 -2 -1 2q-24 -4 -69 -20q-6 -5 -19 -1
q-2 1 0 3q6 0 17 4q12 3 23 7zM115 117q-7 -5 -2 2q16 16 24 38q-8 -3 -14 -3q-8 -2 -15 4q-3 2 1 2q13 -2 24 2q1 -1 3 0q1 1 3 1q6 25 4 41l-1 2q1 1 3 1q10 -7 8 -10q-1 -1 -1 -2q-3 -7 -2 -9l-4 -20q16 5 22 10q0 1 2 2l2 2q6 3 9 2q5 -5 10 -4q5 -1 5 -5q-1 -4 -8 -1
q-6 0 -11 -2q-16 -7 -33 -11q-11 -28 -29 -42zM147 148q-2 1 -2 2l3 1q22 1 36 -4q4 -3 0 -9q-2 -4 -17 5q-2 0 -5 1q-9 3 -15 4z" />
  </g>

</svg>
