
<svg version="1.1" baseProfile="full" xmlns="http://www.w3.org/2000/svg" width="512" height="512" viewBox="0,0,512,512">

  <rect width="512" height="512" stroke="red" fill="white"></rect>

  <text x="2" y="12" font-size="12" text-anchor="start" fill="red">0</text>
  <path d="M256  64 H0 H512" stroke="lightgray" fill="white"></path>
  <text x="2" y="64" font-size="12" text-anchor="start" fill="red">64</text>
  <path d="M256 128 H0 H512" stroke="lightgray" fill="white"></path>
  <text x="2" y="128" font-size="12" text-anchor="start" fill="red">128</text>
  <path d="M256 192 H0 H512" stroke="lightgray" fill="white"></path>
  <text x="2" y="192" font-size="12" text-anchor="start" fill="red">192</text>
  <path d="M256 256 H0 H512" stroke="lightgray" fill="white"></path>
  <text x="2" y="256" font-size="12" text-anchor="start" fill="red">256</text>
  <path d="M256 320 H0 H512" stroke="lightgray" fill="white"></path>
  <text x="2" y="320" font-size="12" text-anchor="start" fill="red">320</text>
  <path d="M256 384 H0 H512" stroke="lightgray" fill="white"></path>
  <text x="2" y="384" font-size="12" text-anchor="start" fill="red">384</text>
  <path d="M256 448 H0 H512" stroke="lightgray" fill="white"></path>
  <text x="2" y="448" font-size="12" text-anchor="start" fill="red">448</text>
  <text x="2" y="512" font-size="12" text-anchor="start" fill="red">512</text>

  <path d="M64  0 V512" stroke="lightgray" fill="white"></path>
  <text x="64" y="12" font-size="12" text-anchor="start" fill="red">64</text>
  <path d="M128  0 V512" stroke="lightgray" fill="white"></path>
  <text x="128" y="12" font-size="12" text-anchor="start" fill="red">128</text>
  <path d="M195  0 V512" stroke="lightgray" fill="white"></path>
  <text x="192" y="12" font-size="12" text-anchor="start" fill="red">192</text>
  <path d="M256  0 V512" stroke="lightgray" fill="white"></path>
  <text x="256" y="12" font-size="12" text-anchor="start" fill="red">256</text>
  <path d="M320  0 V512" stroke="lightgray" fill="white"></path>
  <text x="320" y="12" font-size="12" text-anchor="start" fill="red">320</text>
  <path d="M384  0 V512" stroke="lightgray" fill="white"></path>
  <text x="384" y="12" font-size="12" text-anchor="start" fill="red">384</text>
  <path d="M448  0 V512" stroke="lightgray" fill="white"></path>
  <text x="448" y="12" font-size="12" text-anchor="start" fill="red">448</text>
  <text x="512" y="12" font-size="12" text-anchor="start" fill="red">512</text>


  <path d="M256 256 V270 V242 M256 256 H270 H242" stroke="black" fill="white"></path>
  <text x="256" y="256" font-size="16" text-anchor="middle" fill="red">(256, 256)</text>

  <defs>
    <path id="a2" d="M0 50 C150 150 100 -350 40 50" stroke="#000" fill="none" transform="translate(175,215)"></path>
  </defs>
  <text>
     <textPath href="#a2">喔氣氣氣氣氣氣氣氣
    </textPath>
  </text>

  <defs>
    <path id="a1" d="M0 50 C150 150 100 -50 40 50" stroke="#000" fill="none" transform="translate(175,215)"></path>
  </defs>
  <text>
     <textPath href="#a1">喔氣氣氣氣氣氣氣氣
    </textPath>
  </text>
  <defs>
    <path id="a3" d="M0 50 C150 150 100 -150 40 50" stroke="#000" fill="none" transform="translate(175,215)"></path>
  </defs>
  <text>
     <textPath href="#a3">喔氣氣氣氣氣氣氣氣
    </textPath>
  </text>
  <defs>
    <path id="a4" d="M0 50 C150 150 100 -250 40 50" stroke="#000" fill="none" transform="translate(175,215)"></path>
  </defs>
  <text>
     <textPath href="#a4">喔氣氣氣氣氣氣氣氣
    </textPath>
  </text>
  <defs>
    <path id="a5" d="M0 50 C150 150 100 -450 40 50" stroke="#000" fill="none" transform="translate(175,215)"></path>
  </defs>
  <text>
     <textPath href="#a5">喔氣氣氣氣氣氣氣氣
    </textPath>
  </text>
 
</svg>
